<svg width="193" height="21" viewBox="0 0 193 21" fill="none" xmlns="http://www.w3.org/2000/svg">
<path d="M8.216 19.174C8.18133 19.6767 7.91267 20.0233 7.41 20.214C6.92467 20.4047 6.04067 20.5 4.758 20.5C3.47533 20.5 2.40067 20.3873 1.534 20.162C0.684667 19.9193 0.26 19.616 0.26 19.252C0.26 18.836 1.03133 16.184 2.574 11.296C4.11667 6.39067 5.00067 3.56533 5.226 2.82C5.31267 2.59467 6.006 2.41267 7.306 2.274C8.62333 2.118 10.0273 2.04 11.518 2.04C13.026 2.04 13.858 2.3 14.014 2.82C17.29 13.7053 18.928 19.2347 18.928 19.408C18.928 19.5813 18.824 19.7547 18.616 19.928C18.1307 20.3093 17.1687 20.5 15.73 20.5C12.662 20.5 11.0933 20.136 11.024 19.408L10.842 17.718H8.346L8.216 19.174ZM10.296 12.778L9.906 8.098H9.334L8.892 12.778H10.296ZM28.5293 20.5H22.3933C21.544 20.5 20.972 20.4393 20.6773 20.318C20.3826 20.1967 20.2353 19.9973 20.2353 19.72V3.314C20.2353 2.86333 20.426 2.54267 20.8073 2.352C21.1886 2.144 21.8473 2.04 22.7833 2.04H28.6333C31.9613 2.04 34.258 2.69867 35.5233 4.016C36.7886 5.316 37.4213 7.69067 37.4213 11.14C37.4213 14.5893 36.7626 17.016 35.4453 18.42C34.128 19.8067 31.8226 20.5 28.5293 20.5ZM28.3213 5.914C27.9053 5.914 27.628 5.94867 27.4893 6.018V16.522L28.4773 16.626C28.9973 16.626 29.3873 16.21 29.6473 15.378C29.9246 14.546 30.0633 13.1073 30.0633 11.062C30.0633 9.01667 29.9246 7.64733 29.6473 6.954C29.37 6.26067 28.928 5.914 28.3213 5.914ZM52.4869 19.408C51.9669 19.7893 51.2389 20.11 50.3029 20.37C49.3842 20.6127 48.1882 20.734 46.7149 20.734C45.2589 20.734 43.8722 20.6127 42.5549 20.37C41.2376 20.1273 40.2929 19.8587 39.7209 19.564C39.1489 19.2693 38.8629 18.9833 38.8629 18.706C38.8629 17.7353 39.0016 16.73 39.2789 15.69C39.5562 14.6327 39.8856 14.104 40.2669 14.104C40.3362 14.104 41.0556 14.338 42.4249 14.806C43.7942 15.274 44.8256 15.508 45.5189 15.508C46.2122 15.508 46.6629 15.4387 46.8709 15.3C47.0789 15.144 47.1829 14.9273 47.1829 14.65C47.1829 14.3727 46.9922 14.13 46.6109 13.922C46.2296 13.6967 45.7529 13.506 45.1809 13.35C44.6089 13.1767 43.9849 12.934 43.3089 12.622C42.6502 12.31 42.0349 11.9633 41.4629 11.582C40.8909 11.2007 40.4142 10.6633 40.0329 9.97C39.6516 9.25933 39.4609 8.45333 39.4609 7.552C39.4609 3.704 41.7576 1.78 46.3509 1.78C48.0669 1.78 49.5489 1.89267 50.7969 2.118C52.0449 2.326 52.9202 2.56867 53.4229 2.846C53.9429 3.106 54.2029 3.366 54.2029 3.626C54.2029 4.52733 53.9862 5.498 53.5529 6.538C53.1369 7.578 52.7296 8.098 52.3309 8.098C52.2616 8.098 52.0362 8.02 51.6549 7.864C50.5109 7.36133 49.5576 7.11 48.7949 7.11C48.0496 7.11 47.5382 7.17933 47.2609 7.318C47.0009 7.45667 46.8709 7.67333 46.8709 7.968C46.8709 8.24533 47.0616 8.47933 47.4429 8.67C47.8242 8.84333 48.2922 9.008 48.8469 9.164C49.4189 9.30267 50.0342 9.528 50.6929 9.84C51.3689 10.1347 51.9929 10.49 52.5649 10.906C53.1369 11.3047 53.6136 11.8767 53.9949 12.622C54.3762 13.3673 54.5669 14.234 54.5669 15.222C54.5669 16.262 54.2982 17.2067 53.7609 18.056C53.4316 18.576 53.0069 19.0267 52.4869 19.408ZM69.9825 20.734C68.6825 20.734 67.5645 20.6213 66.6285 20.396C65.6925 20.1707 64.8431 19.772 64.0805 19.2C62.5031 18.056 61.7145 15.924 61.7145 12.804C61.7145 10.0307 62.5205 8.046 64.1325 6.85C65.6405 5.74067 67.5905 5.186 69.9825 5.186C71.0051 5.186 71.8805 5.238 72.6085 5.342C73.3365 5.42867 74.0731 5.628 74.8185 5.94C75.5811 6.252 76.1878 6.67667 76.6385 7.214C77.1065 7.75133 77.4878 8.49667 77.7825 9.45C78.0771 10.386 78.2245 11.504 78.2245 12.804C78.2245 15.4387 77.4791 17.4233 75.9885 18.758C74.4978 20.0753 72.4958 20.734 69.9825 20.734ZM69.0725 15.664C69.1938 16.288 69.3151 16.6607 69.4365 16.782C69.5751 16.9033 69.7485 16.964 69.9565 16.964C70.1818 16.964 70.3551 16.9033 70.4765 16.782C70.6151 16.6607 70.7365 16.288 70.8405 15.664C70.9618 15.04 71.0225 14.26 71.0225 13.324C71.0225 12.3707 70.9965 11.6427 70.9445 11.14C70.9098 10.62 70.8578 10.2213 70.7885 9.944C70.7365 9.66667 70.6585 9.45 70.5545 9.294C70.3985 9.06867 70.2078 8.956 69.9825 8.956C69.7745 8.956 69.6011 9.02533 69.4625 9.164C69.3238 9.28533 69.1938 9.66667 69.0725 10.308C68.9511 10.932 68.8905 11.8247 68.8905 12.986C68.8905 14.1473 68.9511 15.04 69.0725 15.664ZM88.1713 11.92V19.876C88.1713 20.0667 87.6946 20.2227 86.7413 20.344C85.7879 20.448 84.6179 20.5 83.2313 20.5C81.8446 20.5 81.1513 20.292 81.1513 19.876V11.92H79.8253C79.3573 11.92 79.1233 11.1313 79.1233 9.554C79.1233 8.93 79.2273 8.34933 79.4353 7.812C79.6606 7.25733 79.9466 6.98 80.2933 6.98H81.1513C81.1513 5.81867 81.3159 4.80467 81.6453 3.938C81.9919 3.07133 82.3993 2.41267 82.8673 1.962C83.3526 1.494 83.9333 1.12133 84.6093 0.843999C85.6146 0.427999 86.7586 0.219999 88.0413 0.219999C91.2653 0.219999 92.8773 0.748666 92.8773 1.806C92.8773 2.95 92.7646 3.886 92.5393 4.614C92.3139 5.342 92.0106 5.706 91.6293 5.706C91.4733 5.706 91.1786 5.654 90.7453 5.55C90.3293 5.42867 89.9306 5.368 89.5493 5.368C88.5439 5.368 88.0413 5.71467 88.0413 6.408C88.0413 6.58133 88.0846 6.772 88.1713 6.98H91.6293C92.0973 6.98 92.3313 7.74267 92.3313 9.268C92.3313 9.944 92.2273 10.5593 92.0193 11.114C91.8286 11.6513 91.5686 11.92 91.2393 11.92H88.1713ZM105.909 20.708C105.319 20.708 104.773 20.6473 104.271 20.526C103.768 20.4047 103.239 20.1533 102.685 19.772C102.147 19.3733 101.688 18.8533 101.307 18.212C100.44 16.756 100.007 14.5633 100.007 11.634C100.007 10.022 100.223 8.60067 100.657 7.37C101.09 6.13933 101.636 5.186 102.295 4.51C102.953 3.81667 103.742 3.25333 104.661 2.82C105.579 2.38667 106.437 2.10933 107.235 1.988C108.032 1.84933 108.881 1.78 109.783 1.78C111.863 1.78 113.327 1.962 114.177 2.326C115.026 2.67267 115.451 3.34867 115.451 4.354C115.451 5.15133 115.303 6.018 115.009 6.954C114.714 7.87267 114.281 8.332 113.709 8.332C113.57 8.332 112.981 8.202 111.941 7.942C110.901 7.66467 110.121 7.526 109.601 7.526C108.11 7.526 107.365 8.78267 107.365 11.296C107.365 12.5613 107.538 13.506 107.885 14.13C108.231 14.7367 108.665 15.0747 109.185 15.144V12.804C109.185 12.3707 109.627 11.972 110.511 11.608C111.395 11.244 112.244 11.062 113.059 11.062C113.873 11.062 114.463 11.114 114.827 11.218C115.208 11.322 115.468 11.4693 115.607 11.66C115.849 11.972 115.971 12.2493 115.971 12.492V19.694C115.971 19.9193 115.511 20.1013 114.593 20.24C113.691 20.3787 112.747 20.448 111.759 20.448C110.788 20.448 110.173 20.4047 109.913 20.318C109.653 20.214 109.505 19.9453 109.471 19.512L109.289 17.978H109.081C108.959 18.7233 108.647 19.3647 108.145 19.902C107.659 20.4393 106.914 20.708 105.909 20.708ZM124.494 14.624C124.494 15.7507 125.031 16.314 126.106 16.314C126.73 16.314 127.545 16.106 128.55 15.69C129.555 15.2567 130.084 15.04 130.136 15.04C130.465 15.04 130.899 15.534 131.436 16.522C131.973 17.51 132.242 18.238 132.242 18.706C132.242 19.382 131.549 19.8933 130.162 20.24C128.775 20.5867 127.415 20.76 126.08 20.76C124.763 20.76 123.653 20.656 122.752 20.448C121.868 20.24 121.14 19.98 120.568 19.668C120.013 19.3387 119.519 18.94 119.086 18.472C118.67 18.004 118.358 17.562 118.15 17.146C117.942 16.7127 117.777 16.236 117.656 15.716C117.483 14.9533 117.396 14.1647 117.396 13.35C117.396 10.1953 118.219 8.02 119.866 6.824C120.681 6.21733 121.591 5.79267 122.596 5.55C123.601 5.30733 124.789 5.186 126.158 5.186C130.543 5.186 132.736 6.71133 132.736 9.762C132.736 13.0033 130.275 14.624 125.352 14.624H124.494ZM124.442 10.828V12.544C124.945 12.544 125.352 12.3447 125.664 11.946C125.993 11.5473 126.158 11.062 126.158 10.49C126.158 9.45 125.889 8.93 125.352 8.93C124.745 8.93 124.442 9.56267 124.442 10.828ZM149.965 11.868V19.876C149.965 20.0667 149.471 20.2227 148.483 20.344C147.495 20.448 146.472 20.5 145.415 20.5C144.375 20.5 143.699 20.4567 143.387 20.37C143.092 20.266 142.945 20.1013 142.945 19.876V11.608C142.945 10.828 142.91 10.3167 142.841 10.074C142.789 9.83133 142.737 9.61467 142.685 9.424C142.564 9.09467 142.347 8.93 142.035 8.93C141.55 8.93 141.307 9.164 141.307 9.632V19.876C141.307 20.0667 140.813 20.2227 139.825 20.344C138.854 20.448 137.84 20.5 136.783 20.5C135.743 20.5 135.067 20.4567 134.755 20.37C134.443 20.266 134.287 20.1013 134.287 19.876V7.058C134.287 6.694 134.781 6.33 135.769 5.966C136.774 5.602 137.832 5.42 138.941 5.42C140.05 5.42 140.674 5.74067 140.813 6.382L141.047 7.526H141.229C141.732 6.52067 142.598 5.81867 143.829 5.42C144.332 5.264 144.886 5.186 145.493 5.186C147.244 5.186 148.422 5.71467 149.029 6.772C149.653 7.812 149.965 9.51067 149.965 11.868ZM158.931 7.058V19.876C158.931 20.0667 158.428 20.2227 157.423 20.344C156.435 20.448 155.412 20.5 154.355 20.5C153.315 20.5 152.639 20.4567 152.327 20.37C152.032 20.266 151.885 20.1013 151.885 19.876V7.526C151.885 7.14467 152.37 6.772 153.341 6.408C154.329 6.02667 155.404 5.836 156.565 5.836C158.142 5.836 158.931 6.24333 158.931 7.058ZM155.395 0.219999C156.539 0.219999 157.432 0.393332 158.073 0.739999C158.732 1.06933 159.061 1.676 159.061 2.56C159.061 4.12 157.848 4.9 155.421 4.9C152.994 4.9 151.781 4.12 151.781 2.56C151.781 0.999999 152.986 0.219999 155.395 0.219999ZM166.097 20.734C164.156 20.734 162.795 20.2313 162.015 19.226C161.252 18.2207 160.871 16.47 160.871 13.974V6.902C160.871 6.55533 161.382 6.226 162.405 5.914C163.428 5.58467 164.502 5.42 165.629 5.42C167.137 5.42 167.891 5.81 167.891 6.59V13.194C167.891 14.5113 167.943 15.4733 168.047 16.08C168.151 16.6693 168.411 16.964 168.827 16.964C169.382 16.964 169.659 16.73 169.659 16.262V6.902C169.659 6.538 170.196 6.2 171.271 5.888C172.346 5.576 173.516 5.42 174.781 5.42C176.046 5.42 176.679 5.758 176.679 6.434V19.824C176.679 20.0667 176.133 20.24 175.041 20.344C173.949 20.448 172.874 20.5 171.817 20.5C170.76 20.5 170.222 20.3613 170.205 20.084L169.945 18.394H169.737C169.581 19.018 169.269 19.5293 168.801 19.928C168.558 20.136 168.194 20.3267 167.709 20.5C167.241 20.656 166.704 20.734 166.097 20.734ZM185.564 20.734C182.687 20.734 180.581 20.4567 179.246 19.902C178.57 19.6073 178.232 19.3213 178.232 19.044C178.232 18.3333 178.44 17.5013 178.856 16.548C179.272 15.5947 179.636 15.118 179.948 15.118C180.121 15.118 180.702 15.3087 181.69 15.69C182.695 16.0713 183.536 16.262 184.212 16.262C184.905 16.262 185.356 16.2187 185.564 16.132C185.789 16.0453 185.902 15.8807 185.902 15.638C185.902 15.378 185.729 15.1787 185.382 15.04C185.035 14.884 184.602 14.78 184.082 14.728C183.562 14.676 182.999 14.572 182.392 14.416C181.803 14.26 181.248 14.0607 180.728 13.818C180.208 13.5753 179.775 13.1767 179.428 12.622C179.081 12.05 178.908 11.4433 178.908 10.802C178.908 10.1433 178.925 9.658 178.96 9.346C178.995 9.01667 179.133 8.566 179.376 7.994C179.636 7.40467 179.991 6.928 180.442 6.564C180.91 6.2 181.621 5.87067 182.574 5.576C183.545 5.28133 184.628 5.134 185.824 5.134C187.02 5.134 188.017 5.17733 188.814 5.264C189.629 5.33333 190.261 5.42867 190.712 5.55C191.18 5.67133 191.561 5.81 191.856 5.966C192.359 6.226 192.61 6.512 192.61 6.824C192.61 7.5 192.367 8.28 191.882 9.164C191.397 10.048 191.007 10.49 190.712 10.49C190.435 10.49 189.819 10.3427 188.866 10.048C187.913 9.736 187.211 9.58 186.76 9.58C186.032 9.58 185.668 9.788 185.668 10.204C185.668 10.464 185.911 10.6633 186.396 10.802C186.899 10.9233 187.497 11.0533 188.19 11.192C188.883 11.3307 189.577 11.53 190.27 11.79C190.981 12.0327 191.579 12.4833 192.064 13.142C192.567 13.8007 192.818 14.6327 192.818 15.638C192.818 19.0353 190.4 20.734 185.564 20.734Z" fill="url(#paint0_linear_147_425)"/>
<defs>
<linearGradient id="paint0_linear_147_425" x1="0" y1="10" x2="193.88" y2="10" gradientUnits="userSpaceOnUse">
<stop offset="0.195" stop-color="#9C8BE5"/>
<stop offset="0.4" stop-color="#6F55E5"/>
<stop offset="0.65" stop-color="#2A00E4"/>
<stop offset="0.7" stop-color="#2A00E4"/>
</linearGradient>
</defs>
</svg>
