<svg width="360" height="310" viewBox="0 0 360 310" fill="none" xmlns="http://www.w3.org/2000/svg">
<g clip-path="url(#clip0_15_2249)">
<g clip-path="url(#clip1_15_2249)">
<g clip-path="url(#clip2_15_2249)">
<mask id="mask0_15_2249" style="mask-type:luminance" maskUnits="userSpaceOnUse" x="0" y="0" width="360" height="310">
<path d="M359.479 0.479004H0.242493V309.385H359.479V0.479004Z" fill="white"/>
</mask>
<g mask="url(#mask0_15_2249)">
<path d="M335.717 1.073H24.0045C11.2092 1.073 0.836548 11.4456 0.836548 24.2409V285.623C0.836548 298.418 11.2092 308.791 24.0045 308.791H335.717C348.512 308.791 358.885 298.418 358.885 285.623V24.2409C358.885 11.4456 348.512 1.073 335.717 1.073Z" fill="url(#paint0_linear_15_2249)" stroke="#2F00FF" stroke-width="1.1881"/>
<g filter="url(#filter0_d_15_2249)">
<path d="M1.08716 269.481V259.597C1.08716 254.588 5.74348 250.879 10.6259 251.999C14.3318 252.849 18.1103 250.902 19.5685 247.39L23.9901 236.742C24.6146 235.238 26.0828 234.258 27.711 234.258C29.9361 234.258 31.74 232.455 31.74 230.229V218.459C31.74 216.826 33.0632 215.503 34.6955 215.503C36.1401 215.503 37.373 214.459 37.6108 213.034L40.4522 196.01C40.8841 193.421 44.6344 193.512 44.9411 196.118L45.0151 196.746C45.1073 197.53 45.7713 198.12 46.5602 198.12C47.4195 198.12 48.1161 198.817 48.1161 199.676V211.304C48.1161 213.623 50.0366 215.503 52.3556 215.503C54.6304 215.503 56.5141 213.659 56.5141 211.384V208.21C56.5141 205.687 59.5748 204.435 61.3438 206.233C62.2159 207.12 63.5656 207.33 64.6664 206.752L72.0403 202.874C73.8462 201.924 76.0353 202.081 77.6862 203.281C79.1481 204.342 81.0461 204.597 82.7362 203.956L84.6169 203.243C85.0322 203.086 85.2401 203.008 85.4367 202.944C88.0648 202.095 90.943 202.606 93.1178 204.308C93.2811 204.435 93.4487 204.581 93.7843 204.871L97.4876 208.078C101.3 211.38 107.258 209.318 108.215 204.366C108.887 200.887 112.203 198.572 115.701 199.139L127.798 201.102C128.593 201.231 129.37 200.792 129.67 200.046C130.328 198.407 132.733 198.705 132.97 200.456L135.218 217.049C135.602 219.891 137.902 222.088 140.759 222.343L159.847 224.048C160.668 224.121 161.078 224.158 161.489 224.154C161.9 224.15 162.31 224.105 163.128 224.016L181.173 222.05C182.007 221.96 182.84 222.23 183.461 222.794C184.385 223.632 185.738 223.795 186.834 223.198L187.552 222.807C188.6 222.236 189.845 222.152 190.96 222.577L201.745 226.689C204.139 227.602 206.83 226.502 207.898 224.174C208.551 222.751 209.849 221.729 211.385 221.429L240.411 215.754C240.9 215.658 241.144 215.61 241.39 215.577C241.592 215.55 241.796 215.53 242 215.518C242.248 215.503 242.496 215.503 242.994 215.503C246.945 215.503 248.921 215.503 250.54 214.78C251.861 214.19 253.005 213.266 253.86 212.098C254.907 210.667 255.322 208.735 256.152 204.872L257.629 197.996C258.129 195.667 260.188 194.004 262.569 194.004C264.448 194.004 266.172 192.962 267.044 191.298L268.083 189.317C268.128 189.232 268.15 189.19 268.172 189.148C268.718 188.136 269.468 187.247 270.375 186.54C270.412 186.51 270.451 186.482 270.527 186.424L282.765 177.09C284.266 175.946 285.017 175.373 285.869 174.985C286.72 174.597 287.645 174.407 289.494 174.026L297.83 172.308C299.229 172.019 299.929 171.875 300.587 171.618C301.003 171.455 301.405 171.26 301.79 171.032C302.397 170.673 302.943 170.211 304.033 169.288C305.953 167.66 306.913 166.847 308.022 166.361C308.722 166.054 309.461 165.844 310.217 165.739C311.417 165.571 312.661 165.761 315.149 166.138L315.446 166.184C320.168 166.902 322.53 167.261 324.554 166.504C325.404 166.187 326.196 165.732 326.9 165.158C328.574 163.793 329.456 161.573 331.22 157.133L337.545 141.215C338.361 139.16 340.832 138.338 342.716 139.492C344.422 140.537 346.654 139.974 347.658 138.244L358.843 118.983" stroke="#2F00FF" stroke-width="1.1881"/>
</g>
<path d="M113.575 49.4051C113.043 49.4051 112.551 49.2958 112.099 49.0771C111.648 48.8585 111.263 48.5568 110.945 48.1718C110.626 47.7869 110.398 47.3449 110.26 46.8459L111.265 46.575C111.356 46.9457 111.52 47.2665 111.757 47.5374C111.995 47.8035 112.273 48.0102 112.591 48.1576C112.914 48.3049 113.252 48.3785 113.604 48.3785C114.06 48.3785 114.468 48.2692 114.83 48.0506C115.196 47.8273 115.486 47.5326 115.699 47.1667C115.913 46.8007 116.02 46.3992 116.02 45.9619C116.02 45.5105 115.908 45.1041 115.685 44.743C115.462 44.377 115.167 44.0871 114.801 43.8733C114.435 43.6594 114.036 43.5525 113.604 43.5525C113.119 43.5525 112.701 43.6594 112.349 43.8733C111.997 44.0824 111.717 44.3461 111.508 44.6645L110.553 44.2653L110.866 38.926H116.348V39.9311H111.33L111.85 39.4393L111.572 43.9945L111.308 43.6451C111.603 43.3077 111.959 43.044 112.377 42.8539C112.796 42.6638 113.235 42.5687 113.696 42.5687C114.328 42.5687 114.899 42.7208 115.407 43.025C115.916 43.3244 116.32 43.7307 116.619 44.244C116.918 44.7572 117.068 45.3299 117.068 45.9619C117.068 46.5893 116.909 47.1643 116.59 47.6871C116.272 48.2051 115.849 48.6209 115.322 48.9346C114.794 49.2482 114.212 49.4051 113.575 49.4051ZM123.382 49.3979C122.698 49.3979 122.111 49.2078 121.621 48.8276C121.132 48.4475 120.802 47.9389 120.631 47.3021L121.678 47.0526C121.764 47.4281 121.961 47.7465 122.27 48.0079C122.584 48.2645 122.952 48.3928 123.375 48.3928C123.641 48.3928 123.91 48.3286 124.181 48.2003C124.456 48.072 124.672 47.8605 124.829 47.5659C124.934 47.3615 124.993 47.1405 125.008 46.9029C125.027 46.6605 125.036 46.3707 125.036 46.0332V38.926H126.091V46.0332C126.091 46.3184 126.089 46.5774 126.084 46.8102C126.079 47.0384 126.053 47.2593 126.006 47.4732C125.963 47.6823 125.88 47.8938 125.756 48.1077C125.509 48.5401 125.176 48.8633 124.758 49.0771C124.345 49.291 123.886 49.3979 123.382 49.3979ZM131.186 49.3837C130.725 49.3837 130.321 49.3124 129.974 49.1698C129.632 49.0272 129.339 48.8348 129.097 48.5924C128.859 48.35 128.667 48.0744 128.52 47.7655C128.372 47.4518 128.265 47.1215 128.199 46.7746C128.132 46.4229 128.099 46.0736 128.099 45.7267V41.4923H129.154V45.4202C129.154 45.8431 129.194 46.2352 129.275 46.5964C129.356 46.9576 129.484 47.2736 129.66 47.5445C129.841 47.8106 130.071 48.0174 130.352 48.1647C130.637 48.312 130.981 48.3857 131.385 48.3857C131.756 48.3857 132.081 48.3215 132.362 48.1932C132.647 48.0649 132.885 47.8819 133.075 47.6443C133.27 47.4019 133.417 47.1097 133.517 46.7675C133.617 46.4206 133.666 46.0309 133.666 45.5984L134.408 45.7623C134.408 46.5512 134.27 47.2142 133.994 47.7512C133.719 48.2882 133.338 48.6946 132.854 48.9702C132.369 49.2459 131.813 49.3837 131.186 49.3837ZM133.773 49.1912V47.295H133.666V41.4923H134.714V49.1912H133.773ZM136.849 49.1912V38.7122H137.897V49.1912H136.849ZM142.604 49.1841L142.611 48.2288L147.252 44.0372C147.651 43.676 147.915 43.3339 148.043 43.0107C148.176 42.6828 148.243 42.3406 148.243 41.9842C148.243 41.5612 148.143 41.1787 147.943 40.8365C147.744 40.4943 147.475 40.2234 147.138 40.0238C146.8 39.8195 146.422 39.7173 146.004 39.7173C145.567 39.7173 145.177 39.8218 144.835 40.0309C144.493 40.2401 144.222 40.5157 144.022 40.8579C143.828 41.2 143.733 41.5731 143.737 41.9771H142.668C142.668 41.3545 142.815 40.7961 143.11 40.3018C143.405 39.8076 143.804 39.4203 144.308 39.1399C144.811 38.8547 145.382 38.7122 146.018 38.7122C146.641 38.7122 147.199 38.8595 147.694 39.1541C148.193 39.444 148.585 39.8385 148.87 40.3375C149.16 40.8317 149.305 41.383 149.305 41.9913C149.305 42.419 149.252 42.7968 149.148 43.1248C149.048 43.4479 148.889 43.7497 148.67 44.0301C148.456 44.3057 148.183 44.5909 147.851 44.8855L143.73 48.6067L143.566 48.1789H149.305V49.1841H142.604ZM154.37 49.4051C153.738 49.4051 153.168 49.2577 152.659 48.9631C152.156 48.6684 151.756 48.2692 151.462 47.7655C151.167 47.257 151.02 46.6867 151.02 46.0546V42.0626C151.02 41.4305 151.167 40.8626 151.462 40.3589C151.756 39.8504 152.156 39.4488 152.659 39.1541C153.168 38.8595 153.738 38.7122 154.37 38.7122C155.002 38.7122 155.57 38.8595 156.074 39.1541C156.582 39.4488 156.984 39.8504 157.279 40.3589C157.573 40.8626 157.721 41.4305 157.721 42.0626V46.0546C157.721 46.6867 157.573 47.257 157.279 47.7655C156.984 48.2692 156.582 48.6684 156.074 48.9631C155.57 49.2577 155.002 49.4051 154.37 49.4051ZM154.37 48.3928C154.793 48.3928 155.178 48.2906 155.525 48.0863C155.872 47.8772 156.148 47.5991 156.352 47.2522C156.556 46.9053 156.659 46.5227 156.659 46.1045V42.0127C156.659 41.5897 156.556 41.2048 156.352 40.8579C156.148 40.5109 155.872 40.2353 155.525 40.0309C155.178 39.8218 154.793 39.7173 154.37 39.7173C153.947 39.7173 153.562 39.8218 153.215 40.0309C152.868 40.2353 152.593 40.5109 152.388 40.8579C152.184 41.2048 152.082 41.5897 152.082 42.0127V46.1045C152.082 46.5227 152.184 46.9053 152.388 47.2522C152.593 47.5991 152.868 47.8772 153.215 48.0863C153.562 48.2906 153.947 48.3928 154.37 48.3928ZM159.437 49.1841L159.444 48.2288L164.085 44.0372C164.484 43.676 164.748 43.3339 164.876 43.0107C165.009 42.6828 165.076 42.3406 165.076 41.9842C165.076 41.5612 164.976 41.1787 164.776 40.8365C164.577 40.4943 164.308 40.2234 163.971 40.0238C163.633 39.8195 163.255 39.7173 162.837 39.7173C162.4 39.7173 162.01 39.8218 161.668 40.0309C161.326 40.2401 161.055 40.5157 160.855 40.8579C160.661 41.2 160.566 41.5731 160.57 41.9771H159.501C159.501 41.3545 159.648 40.7961 159.943 40.3018C160.238 39.8076 160.637 39.4203 161.141 39.1399C161.644 38.8547 162.215 38.7122 162.851 38.7122C163.474 38.7122 164.032 38.8595 164.527 39.1541C165.026 39.444 165.418 39.8385 165.703 40.3375C165.993 40.8317 166.138 41.383 166.138 41.9913C166.138 42.419 166.085 42.7968 165.981 43.1248C165.881 43.4479 165.722 43.7497 165.503 44.0301C165.289 44.3057 165.016 44.5909 164.684 44.8855L160.563 48.6067L160.399 48.1789H166.138V49.1841H159.437ZM170.612 49.3979C170.103 49.3979 169.635 49.3076 169.207 49.127C168.78 48.9465 168.411 48.6898 168.102 48.3572C167.793 48.0197 167.568 47.6182 167.425 47.1524L168.423 46.853C168.594 47.3615 168.875 47.7465 169.264 48.0079C169.659 48.2692 170.103 48.3952 170.597 48.3857C171.054 48.3762 171.446 48.274 171.774 48.0791C172.106 47.8843 172.36 47.6134 172.536 47.2665C172.712 46.9196 172.8 46.518 172.8 46.0617C172.8 45.3631 172.596 44.8024 172.187 44.3794C171.783 43.9517 171.248 43.7378 170.583 43.7378C170.398 43.7378 170.203 43.764 169.998 43.8162C169.794 43.8638 169.604 43.9327 169.428 44.023L168.901 43.1889L172.893 39.5034L173.064 39.9311H167.831V38.926H173.762V39.9454L170.284 43.2673L170.269 42.8539C170.982 42.7636 171.61 42.8444 172.151 43.0962C172.693 43.3481 173.116 43.7331 173.42 44.2511C173.729 44.7643 173.884 45.3679 173.884 46.0617C173.884 46.7176 173.741 47.2974 173.456 47.8011C173.175 48.3001 172.788 48.6922 172.294 48.9773C171.8 49.2577 171.239 49.3979 170.612 49.3979Z" fill="#8D8D8D"/>
<path d="M139.66 84.2404V68.3745H133.57V65.4209H148.9V68.3745H142.809V84.2404H139.66ZM155.224 84.2404L149.291 65.4209H152.532L157.498 81.1823L162.53 65.4209H165.771L159.837 84.2404H155.224ZM167.996 84.2404V65.4209H171.146V81.2868H179.458V84.2404H167.996ZM181.41 87.5731L181.593 86.2139C181.994 86.2483 182.312 86.1788 182.547 86.0048C182.782 85.839 182.939 85.5996 183.018 85.286C183.104 84.9806 183.126 84.6325 183.083 84.2404H181.41V80.8817H184.638V84.3711C184.638 85.5123 184.368 86.3748 183.828 86.9588C183.287 87.5422 182.482 87.7471 181.41 87.5731ZM199.769 86.8412V83.7438H202.919V86.8412H199.769ZM199.769 65.9306V62.8333H202.919V65.9306H199.769ZM201.416 84.6325C200.092 84.6325 198.907 84.3883 197.861 83.9006C196.816 83.4123 195.958 82.7244 195.287 81.8357C194.625 80.947 194.202 79.8926 194.019 78.673L197.129 78.1764C197.374 79.248 197.896 80.1017 198.698 80.7379C199.508 81.3652 200.475 81.6789 201.599 81.6789C202.68 81.6789 203.568 81.4258 204.265 80.9209C204.963 80.4064 205.311 79.7577 205.311 78.9736C205.311 78.4247 205.145 77.9803 204.814 77.6405C204.483 77.2918 203.951 77.0043 203.22 76.778L198.685 75.3665C196.045 74.5473 194.725 72.944 194.725 70.5571C194.725 69.4415 194.991 68.4702 195.522 67.6427C196.062 66.8063 196.82 66.1659 197.796 65.7215C198.772 65.2683 199.922 65.0461 201.246 65.055C202.475 65.0633 203.568 65.2855 204.526 65.7215C205.494 66.157 206.296 66.7843 206.931 67.6035C207.576 68.4221 208.034 69.407 208.303 70.5571L205.075 71.1452C204.954 70.5262 204.714 69.982 204.357 69.5116C204 69.0411 203.551 68.6751 203.01 68.4138C202.47 68.1524 201.869 68.0128 201.207 67.9955C200.571 67.9866 200 68.087 199.495 68.2961C198.99 68.4963 198.589 68.7838 198.293 69.1587C197.997 69.5246 197.848 69.9381 197.848 70.4003C197.848 70.9141 198.053 71.3543 198.462 71.7202C198.881 72.0862 199.539 72.3998 200.436 72.6612L203.821 73.6414C205.45 74.1119 206.622 74.7523 207.336 75.5625C208.06 76.3639 208.421 77.4314 208.421 78.7645C208.421 79.9318 208.129 80.9553 207.545 81.8357C206.962 82.7155 206.143 83.404 205.088 83.9006C204.035 84.3883 202.81 84.6325 201.416 84.6325Z" fill="white" fill-opacity="0.6"/>
<path d="M114.841 70.2625L119.425 78.2025H110.257L114.841 70.2625Z" fill="#2F00FF"/>
<path d="M29.8606 154.932V153.198H25.7855V152.526L28.6904 146.378H29.4567L26.5518 152.526H29.8606V149.942H30.5497V152.526H31.5299V153.198H30.5497V154.932H29.8606ZM35.6467 155.11C35.1438 155.11 34.6884 154.989 34.2804 154.748C33.8765 154.506 33.5537 154.184 33.3121 153.78C33.0706 153.372 32.9498 152.916 32.9498 152.413V148.897C32.9498 148.394 33.0706 147.94 33.3121 147.536C33.5537 147.128 33.8765 146.803 34.2804 146.562C34.6884 146.32 35.1438 146.2 35.6467 146.2C36.1497 146.2 36.6052 146.32 37.0131 146.562C37.421 146.803 37.7437 147.128 37.9814 147.536C38.223 147.94 38.3437 148.394 38.3437 148.897V152.413C38.3437 152.916 38.223 153.372 37.9814 153.78C37.7437 154.184 37.421 154.506 37.0131 154.748C36.6052 154.989 36.1497 155.11 35.6467 155.11ZM35.6467 154.439C36.0151 154.439 36.3497 154.35 36.6507 154.172C36.9557 153.989 37.1992 153.746 37.3814 153.441C37.5636 153.136 37.6546 152.8 37.6546 152.431V148.873C37.6546 148.508 37.5636 148.174 37.3814 147.869C37.1992 147.564 36.9557 147.322 36.6507 147.144C36.3497 146.962 36.0151 146.871 35.6467 146.871C35.2784 146.871 34.9418 146.962 34.6369 147.144C34.3359 147.322 34.0943 147.564 33.9121 147.869C33.73 148.174 33.6389 148.508 33.6389 148.873V152.431C33.6389 152.8 33.73 153.136 33.9121 153.441C34.0943 153.746 34.3359 153.989 34.6369 154.172C34.9418 154.35 35.2784 154.439 35.6467 154.439ZM42.7011 155.11C42.1982 155.11 41.7427 154.989 41.3348 154.748C40.9308 154.506 40.6081 154.184 40.3665 153.78C40.1249 153.372 40.0041 152.916 40.0041 152.413V148.897C40.0041 148.394 40.1249 147.94 40.3665 147.536C40.6081 147.128 40.9308 146.803 41.3348 146.562C41.7427 146.32 42.1982 146.2 42.7011 146.2C43.2041 146.2 43.6595 146.32 44.0674 146.562C44.4753 146.803 44.7981 147.128 45.0357 147.536C45.2773 147.94 45.3981 148.394 45.3981 148.897V152.413C45.3981 152.916 45.2773 153.372 45.0357 153.78C44.7981 154.184 44.4753 154.506 44.0674 154.748C43.6595 154.989 43.2041 155.11 42.7011 155.11ZM42.7011 154.439C43.0694 154.439 43.4041 154.35 43.705 154.172C44.01 153.989 44.2536 153.746 44.4357 153.441C44.6179 153.136 44.709 152.8 44.709 152.431V148.873C44.709 148.508 44.6179 148.174 44.4357 147.869C44.2536 147.564 44.01 147.322 43.705 147.144C43.4041 146.962 43.0694 146.871 42.7011 146.871C42.3328 146.871 41.9962 146.962 41.6912 147.144C41.3903 147.322 41.1487 147.564 40.9665 147.869C40.7843 148.174 40.6932 148.508 40.6932 148.873V152.431C40.6932 152.8 40.7843 153.136 40.9665 153.441C41.1487 153.746 41.3903 153.989 41.6912 154.172C41.9962 154.35 42.3328 154.439 42.7011 154.439ZM54.692 154.932L54.7039 150.619C54.7039 150.1 54.5554 149.695 54.2583 149.402C53.9653 149.105 53.5989 148.956 53.1593 148.956C52.9098 148.956 52.6624 149.013 52.4168 149.128C52.1752 149.243 51.9733 149.429 51.8108 149.687C51.6485 149.944 51.5673 150.293 51.5673 150.732L51.0861 150.655C51.0703 150.188 51.1554 149.782 51.3415 149.437C51.5316 149.089 51.793 148.819 52.1257 148.629C52.4623 148.439 52.8445 148.344 53.2722 148.344C53.9019 148.344 54.4108 148.538 54.7989 148.926C55.191 149.314 55.387 149.845 55.387 150.518L55.3751 154.932H54.692ZM47.0584 154.932V148.517H47.6822V149.96H47.7416V154.932H47.0584ZM50.8782 154.932L50.8901 150.685C50.8901 150.154 50.7455 149.734 50.4564 149.425C50.1673 149.112 49.7911 148.956 49.3277 148.956C48.8565 148.956 48.4743 149.118 48.1812 149.443C47.8882 149.764 47.7416 150.194 47.7416 150.732L47.2664 150.495C47.2664 150.079 47.3614 149.711 47.5515 149.39C47.7416 149.065 48.001 148.809 48.3297 148.623C48.6624 148.437 49.0426 148.344 49.4703 148.344C49.8545 148.344 50.205 148.425 50.5218 148.588C50.8386 148.75 51.092 148.995 51.2821 149.324C51.4722 149.649 51.5673 150.057 51.5673 150.548L51.5554 154.932H50.8782Z" fill="#494949"/>
<path d="M32.2246 274.234L35.2543 265.679H36.1038L39.1334 274.234H38.4087L35.4978 266.036H35.8424L32.9493 274.234H32.2246ZM33.4781 272.083V271.436H37.874V272.083H33.4781ZM43.0077 274.412C42.4296 274.412 41.9404 274.261 41.5404 273.96C41.1405 273.659 40.8355 273.253 40.6256 272.742C40.4157 272.232 40.3108 271.655 40.3108 271.014C40.3108 270.368 40.4157 269.792 40.6256 269.285C40.8355 268.774 41.1464 268.372 41.5583 268.079C41.9701 267.786 42.4751 267.64 43.0731 267.64C43.6553 267.64 44.1523 267.788 44.5642 268.085C44.976 268.382 45.2889 268.786 45.5028 269.297C45.7206 269.808 45.8295 270.38 45.8295 271.014C45.8295 271.655 45.7186 272.233 45.4968 272.748C45.279 273.259 44.9602 273.665 44.5404 273.966C44.1246 274.263 43.6137 274.412 43.0077 274.412ZM40.1979 277.085V267.818H40.8216V272.76H40.881V277.085H40.1979ZM42.9662 273.758C43.4374 273.758 43.8295 273.637 44.1424 273.396C44.4592 273.154 44.6968 272.827 44.8552 272.416C45.0176 272 45.0988 271.532 45.0988 271.014C45.0988 270.499 45.0196 270.037 44.8612 269.63C44.7067 269.217 44.4711 268.893 44.1543 268.655C43.8414 268.414 43.4414 268.293 42.9543 268.293C42.483 268.293 42.0889 268.409 41.7721 268.644C41.4553 268.873 41.2177 269.194 41.0593 269.606C40.9008 270.018 40.8216 270.487 40.8216 271.014C40.8216 271.537 40.8989 272.006 41.0533 272.422C41.2118 272.833 41.4494 273.16 41.7662 273.402C42.087 273.639 42.4869 273.758 42.9662 273.758ZM47.1362 274.234V267.818H47.76V269.356L47.6055 269.154C47.6768 268.972 47.7659 268.804 47.8728 268.649C47.9837 268.491 48.0966 268.362 48.2114 268.263C48.3818 268.105 48.5817 267.986 48.8114 267.907C49.0412 267.824 49.2728 267.776 49.5065 267.764C49.7401 267.748 49.952 267.766 50.1421 267.818V268.465C49.8886 268.406 49.6193 268.394 49.3342 268.43C49.0491 268.465 48.7817 268.588 48.5322 268.798C48.3144 268.988 48.156 269.21 48.057 269.463C47.958 269.713 47.8946 269.976 47.8669 270.253C47.8391 270.527 47.8253 270.794 47.8253 271.055V274.234H47.1362Z" fill="#9B9B9B"/>
<path d="M123.116 274.234V265.679H123.751L127.256 273.247L130.725 265.679H131.385V274.222H130.713V267.253L127.529 274.234H126.971L123.781 267.253V274.234H123.116ZM134.901 274.412C134.405 274.412 133.994 274.324 133.665 274.15C133.34 273.976 133.097 273.746 132.935 273.461C132.772 273.172 132.691 272.859 132.691 272.523C132.691 272.158 132.766 271.853 132.917 271.608C133.071 271.362 133.275 271.164 133.529 271.014C133.786 270.863 134.069 270.75 134.378 270.675C134.73 270.596 135.111 270.528 135.519 270.473C135.926 270.414 136.315 270.362 136.683 270.319C137.055 270.275 137.358 270.237 137.592 270.206L137.342 270.354C137.358 269.661 137.227 269.146 136.95 268.81C136.677 268.469 136.194 268.299 135.501 268.299C135.014 268.299 134.612 268.409 134.295 268.632C133.982 268.849 133.762 269.188 133.636 269.647L132.935 269.451C133.081 268.869 133.376 268.421 133.82 268.109C134.263 267.796 134.831 267.64 135.525 267.64C136.115 267.64 136.609 267.754 137.01 267.984C137.414 268.213 137.695 268.537 137.853 268.952C137.92 269.122 137.966 269.323 137.99 269.552C138.014 269.778 138.026 270.006 138.026 270.236V274.234H137.402V272.546L137.634 272.606C137.439 273.184 137.101 273.629 136.618 273.942C136.134 274.255 135.562 274.412 134.901 274.412ZM134.937 273.782C135.372 273.782 135.754 273.705 136.083 273.55C136.412 273.392 136.677 273.172 136.879 272.891C137.085 272.606 137.215 272.271 137.271 271.887C137.31 271.673 137.332 271.441 137.336 271.192C137.34 270.942 137.342 270.758 137.342 270.64L137.639 270.83C137.382 270.861 137.073 270.895 136.713 270.931C136.356 270.966 135.992 271.01 135.62 271.061C135.247 271.112 134.91 271.178 134.61 271.257C134.423 271.308 134.236 271.384 134.045 271.483C133.859 271.578 133.703 271.711 133.576 271.881C133.453 272.051 133.392 272.267 133.392 272.529C133.392 272.722 133.44 272.916 133.535 273.111C133.633 273.304 133.796 273.465 134.022 273.592C134.247 273.718 134.552 273.782 134.937 273.782ZM140.147 277.085L141.394 273.729L141.406 274.727L138.596 267.818H139.327L141.739 273.818H141.359L143.551 267.818H144.27L140.86 277.085H140.147Z" fill="#9B9B9B"/>
<path d="M218.352 274.4C217.81 274.4 217.338 274.245 216.939 273.936C216.539 273.628 216.273 273.215 216.143 272.701L216.832 272.54C216.915 272.877 217.095 273.16 217.372 273.39C217.65 273.619 217.978 273.735 218.358 273.735C218.6 273.735 218.841 273.679 219.083 273.568C219.328 273.453 219.521 273.265 219.659 273.004C219.759 272.817 219.816 272.621 219.832 272.416C219.848 272.205 219.855 271.954 219.855 271.661V265.679H220.544V271.661C220.544 271.887 220.543 272.095 220.538 272.285C220.534 272.475 220.513 272.657 220.473 272.832C220.438 273.006 220.37 273.182 220.271 273.36C220.073 273.708 219.804 273.97 219.463 274.144C219.126 274.314 218.756 274.4 218.352 274.4ZM224.8 274.382C224.447 274.382 224.131 274.33 223.849 274.228C223.572 274.124 223.331 273.98 223.124 273.794C222.919 273.604 222.748 273.382 222.614 273.129C222.479 272.871 222.378 272.59 222.311 272.285C222.248 271.98 222.215 271.661 222.215 271.329V267.818H222.905V271.156C222.905 271.56 222.944 271.92 223.023 272.237C223.107 272.554 223.23 272.823 223.392 273.045C223.558 273.267 223.764 273.435 224.01 273.55C224.259 273.665 224.552 273.723 224.889 273.723C225.237 273.723 225.539 273.663 225.792 273.544C226.049 273.421 226.259 273.251 226.421 273.034C226.588 272.816 226.711 272.558 226.79 272.261C226.873 271.96 226.914 271.633 226.914 271.281L227.455 271.346C227.455 272.039 227.336 272.612 227.099 273.063C226.865 273.511 226.548 273.843 226.148 274.061C225.748 274.275 225.299 274.382 224.8 274.382ZM226.98 274.234V272.79H226.914V267.818H227.604V274.234H226.98ZM233.96 274.234V270.895C233.96 270.491 233.919 270.13 233.836 269.814C233.756 269.497 233.634 269.227 233.467 269.006C233.305 268.784 233.099 268.616 232.85 268.501C232.604 268.386 232.313 268.329 231.976 268.329C231.628 268.329 231.325 268.39 231.067 268.513C230.814 268.632 230.604 268.8 230.438 269.018C230.275 269.235 230.153 269.495 230.069 269.796C229.99 270.093 229.951 270.417 229.951 270.77L229.41 270.705C229.41 270.012 229.526 269.441 229.761 268.994C229.998 268.543 230.317 268.21 230.717 267.996C231.117 267.778 231.566 267.669 232.065 267.669C232.418 267.669 232.733 267.72 233.01 267.824C233.291 267.926 233.535 268.073 233.741 268.263C233.946 268.449 234.117 268.671 234.252 268.929C234.386 269.182 234.485 269.461 234.549 269.766C234.616 270.071 234.65 270.39 234.65 270.723V274.234H233.96ZM229.262 274.234V267.818H229.885V269.261H229.951V274.234H229.262Z" fill="#9B9B9B"/>
<path d="M309.836 274.4C309.294 274.4 308.822 274.245 308.422 273.936C308.022 273.628 307.757 273.215 307.626 272.701L308.315 272.54C308.398 272.877 308.578 273.16 308.856 273.39C309.133 273.619 309.462 273.735 309.842 273.735C310.084 273.735 310.325 273.679 310.567 273.568C310.812 273.453 311.005 273.265 311.143 273.004C311.242 272.817 311.299 272.621 311.315 272.416C311.331 272.205 311.339 271.954 311.339 271.661V265.679H312.028V271.661C312.028 271.887 312.026 272.095 312.022 272.285C312.018 272.475 311.997 272.657 311.957 272.832C311.921 273.006 311.854 273.182 311.755 273.36C311.557 273.708 311.287 273.97 310.947 274.144C310.61 274.314 310.24 274.4 309.836 274.4ZM316.283 274.382C315.931 274.382 315.614 274.33 315.333 274.228C315.056 274.124 314.814 273.98 314.608 273.794C314.403 273.604 314.232 273.382 314.097 273.129C313.963 272.871 313.862 272.59 313.794 272.285C313.731 271.98 313.699 271.661 313.699 271.329V267.818H314.388V271.156C314.388 271.56 314.428 271.92 314.507 272.238C314.59 272.554 314.713 272.823 314.875 273.045C315.042 273.267 315.248 273.435 315.493 273.55C315.743 273.665 316.036 273.723 316.372 273.723C316.721 273.723 317.022 273.663 317.275 273.544C317.533 273.421 317.743 273.251 317.905 273.034C318.071 272.816 318.194 272.558 318.273 272.261C318.357 271.96 318.398 271.633 318.398 271.281L318.939 271.346C318.939 272.039 318.82 272.612 318.582 273.063C318.349 273.511 318.032 273.843 317.632 274.061C317.232 274.275 316.782 274.382 316.283 274.382ZM318.463 274.234V272.79H318.398V267.818H319.087V274.234H318.463ZM320.864 274.234V265.501H321.547V274.234H320.864Z" fill="#9B9B9B"/>
<path d="M28.5478 119.467C28.1003 119.467 27.6864 119.376 27.3062 119.194C26.93 119.012 26.6092 118.76 26.3439 118.44C26.0825 118.115 25.8964 117.746 25.7855 117.335L26.4389 117.157C26.5261 117.489 26.6765 117.778 26.8904 118.024C27.1043 118.265 27.3557 118.453 27.6448 118.588C27.934 118.719 28.2369 118.784 28.5537 118.784C28.9696 118.784 29.3419 118.685 29.6705 118.487C29.9992 118.285 30.2587 118.02 30.4488 117.691C30.6428 117.359 30.7398 116.996 30.7398 116.604C30.7398 116.192 30.6389 115.822 30.4369 115.493C30.2349 115.164 29.9676 114.903 29.6349 114.709C29.3062 114.515 28.9458 114.418 28.5537 114.418C28.13 114.418 27.7577 114.517 27.4369 114.715C27.1201 114.909 26.8647 115.162 26.6706 115.475L26.0171 115.155L26.2785 110.735H30.8171V111.4H26.534L26.9379 111.026L26.6884 115.042L26.4864 114.757C26.7359 114.451 27.0448 114.21 27.4132 114.032C27.7815 113.854 28.1755 113.765 28.5953 113.765C29.1181 113.765 29.5933 113.891 30.021 114.145C30.4488 114.398 30.7893 114.741 31.0428 115.172C31.3002 115.6 31.4289 116.077 31.4289 116.604C31.4289 117.123 31.2982 117.6 31.0369 118.036C30.7755 118.467 30.425 118.814 29.9854 119.075C29.5498 119.337 29.0706 119.467 28.5478 119.467ZM35.554 119.467C35.051 119.467 34.5956 119.346 34.1876 119.105C33.7837 118.863 33.4609 118.541 33.2193 118.137C32.9777 117.729 32.857 117.273 32.857 116.77V113.254C32.857 112.75 32.9777 112.297 33.2193 111.893C33.4609 111.485 33.7837 111.16 34.1876 110.919C34.5956 110.677 35.051 110.557 35.554 110.557C36.0569 110.557 36.5123 110.677 36.9203 110.919C37.3282 111.16 37.651 111.485 37.8886 111.893C38.1302 112.297 38.2509 112.75 38.2509 113.254V116.77C38.2509 117.273 38.1302 117.729 37.8886 118.137C37.651 118.541 37.3282 118.863 36.9203 119.105C36.5123 119.346 36.0569 119.467 35.554 119.467ZM35.554 118.796C35.9223 118.796 36.2569 118.707 36.5579 118.529C36.8628 118.346 37.1064 118.103 37.2886 117.798C37.4708 117.493 37.5618 117.157 37.5618 116.788V113.23C37.5618 112.865 37.4708 112.531 37.2886 112.226C37.1064 111.921 36.8628 111.679 36.5579 111.501C36.2569 111.319 35.9223 111.228 35.554 111.228C35.1856 111.228 34.849 111.319 34.5441 111.501C34.2431 111.679 34.0015 111.921 33.8193 112.226C33.6371 112.531 33.5461 112.865 33.5461 113.23V116.788C33.5461 117.157 33.6371 117.493 33.8193 117.798C34.0015 118.103 34.2431 118.346 34.5441 118.529C34.849 118.707 35.1856 118.796 35.554 118.796ZM42.6083 119.467C42.1053 119.467 41.6499 119.346 41.242 119.105C40.838 118.863 40.5153 118.541 40.2737 118.137C40.0321 117.729 39.9113 117.273 39.9113 116.77V113.254C39.9113 112.75 40.0321 112.297 40.2737 111.893C40.5153 111.485 40.838 111.16 41.242 110.919C41.6499 110.677 42.1053 110.557 42.6083 110.557C43.1113 110.557 43.5667 110.677 43.9746 110.919C44.3826 111.16 44.7053 111.485 44.9429 111.893C45.1845 112.297 45.3053 112.75 45.3053 113.254V116.77C45.3053 117.273 45.1845 117.729 44.9429 118.137C44.7053 118.541 44.3826 118.863 43.9746 119.105C43.5667 119.346 43.1113 119.467 42.6083 119.467ZM42.6083 118.796C42.9766 118.796 43.3112 118.707 43.6122 118.529C43.9172 118.346 44.1607 118.103 44.3429 117.798C44.5251 117.493 44.6162 117.157 44.6162 116.788V113.23C44.6162 112.865 44.5251 112.531 44.3429 112.226C44.1607 111.921 43.9172 111.679 43.6122 111.501C43.3112 111.319 42.9766 111.228 42.6083 111.228C42.24 111.228 41.9033 111.319 41.5984 111.501C41.2974 111.679 41.0559 111.921 40.8737 112.226C40.6915 112.531 40.6004 112.865 40.6004 113.23V116.788C40.6004 117.157 40.6915 117.493 40.8737 117.798C41.0559 118.103 41.2974 118.346 41.5984 118.529C41.9033 118.707 42.24 118.796 42.6083 118.796ZM54.5992 119.289L54.6111 114.976C54.6111 114.457 54.4626 114.051 54.1655 113.759C53.8725 113.462 53.5061 113.313 53.0665 113.313C52.817 113.313 52.5695 113.37 52.324 113.485C52.0824 113.6 51.8804 113.786 51.7181 114.044C51.5557 114.301 51.4745 114.65 51.4745 115.089L50.9933 115.012C50.9775 114.544 51.0626 114.139 51.2488 113.794C51.4389 113.446 51.7002 113.176 52.0329 112.986C52.3696 112.796 52.7517 112.701 53.1794 112.701C53.8091 112.701 54.318 112.895 54.7061 113.283C55.0982 113.671 55.2942 114.202 55.2942 114.875L55.2824 119.289H54.5992ZM46.9657 119.289V112.873H47.5894V114.317H47.6488V119.289H46.9657ZM50.7854 119.289L50.7973 115.042C50.7973 114.511 50.6527 114.091 50.3636 113.782C50.0745 113.469 49.6983 113.313 49.2349 113.313C48.7637 113.313 48.3815 113.475 48.0884 113.8C47.7954 114.121 47.6488 114.55 47.6488 115.089L47.1736 114.852C47.1736 114.436 47.2686 114.067 47.4587 113.747C47.6488 113.422 47.9082 113.166 48.2369 112.98C48.5696 112.794 48.9498 112.701 49.3775 112.701C49.7617 112.701 50.1122 112.782 50.429 112.945C50.7458 113.107 50.9993 113.352 51.1894 113.681C51.3794 114.006 51.4745 114.414 51.4745 114.905L51.4626 119.289H50.7854Z" fill="#494949"/>
<path d="M28.8983 83.8246C28.3677 83.8246 27.8845 83.6957 27.4489 83.4384C27.0132 83.1771 26.6667 82.8283 26.4093 82.3929C26.1519 81.9533 26.0231 81.4638 26.0231 80.9256V77.8365C26.0231 77.29 26.1519 76.797 26.4093 76.3574C26.6667 75.9136 27.0132 75.5631 27.4489 75.3059C27.8884 75.0445 28.3815 74.9138 28.928 74.9138C29.4349 74.9138 29.9003 75.0344 30.3241 75.2762C30.7518 75.5138 31.0923 75.8346 31.3458 76.2386L30.7993 76.6366C30.6052 76.3193 30.3438 76.0663 30.0151 75.8762C29.6865 75.6819 29.3241 75.5851 28.928 75.5851C28.5043 75.5851 28.1261 75.6879 27.7934 75.894C27.4607 76.0995 27.1974 76.371 27.0033 76.7078C26.8092 77.0405 26.7122 77.4029 26.7122 77.795V79.8088L26.5103 79.5712C26.7598 79.1435 27.0964 78.7965 27.5201 78.5316C27.9479 78.2619 28.4211 78.1276 28.9399 78.1276C29.4627 78.1276 29.9379 78.2559 30.3656 78.5138C30.7973 78.7668 31.1379 79.1096 31.3874 79.5415C31.6409 79.9692 31.7676 80.4444 31.7676 80.9672C31.7676 81.4935 31.6369 81.9729 31.3755 82.4048C31.1181 82.8361 30.7716 83.1806 30.3359 83.4384C29.9003 83.6957 29.4211 83.8246 28.8983 83.8246ZM28.8983 83.1533C29.3023 83.1533 29.6686 83.0559 29.9973 82.8622C30.33 82.6638 30.5933 82.4006 30.7874 82.0721C30.9815 81.7394 31.0785 81.3711 31.0785 80.9672C31.0785 80.5632 30.9815 80.1967 30.7874 79.8682C30.5933 79.5355 30.33 79.2718 29.9973 79.0781C29.6686 78.8839 29.3023 78.787 28.8983 78.787C28.4944 78.787 28.1261 78.8839 27.7934 79.0781C27.4647 79.2718 27.2013 79.5355 27.0033 79.8682C26.8092 80.1967 26.7122 80.5632 26.7122 80.9672C26.7122 81.3711 26.8092 81.7394 27.0033 82.0721C27.2013 82.4006 27.4647 82.6638 27.7934 82.8622C28.1261 83.0559 28.4944 83.1533 28.8983 83.1533ZM36.0877 83.8246C35.5848 83.8246 35.1293 83.7034 34.7214 83.4622C34.3174 83.2204 33.9947 82.8979 33.7531 82.4939C33.5115 82.0858 33.3907 81.6301 33.3907 81.1276V77.6108C33.3907 77.1076 33.5115 76.6544 33.7531 76.2504C33.9947 75.8423 34.3174 75.5174 34.7214 75.2762C35.1293 75.0344 35.5848 74.9138 36.0877 74.9138C36.5907 74.9138 37.0461 75.0344 37.454 75.2762C37.862 75.5174 38.1847 75.8423 38.4223 76.2504C38.6639 76.6544 38.7847 77.1076 38.7847 77.6108V81.1276C38.7847 81.6301 38.6639 82.0858 38.4223 82.4939C38.1847 82.8979 37.862 83.2204 37.454 83.4622C37.0461 83.7034 36.5907 83.8246 36.0877 83.8246ZM36.0877 83.1533C36.456 83.1533 36.7907 83.0642 37.0916 82.886C37.3966 82.7036 37.6402 82.46 37.8223 82.1553C38.0045 81.8499 38.0956 81.5137 38.0956 81.1454V77.587C38.0956 77.2223 38.0045 76.8878 37.8223 76.5831C37.6402 76.2778 37.3966 76.0366 37.0916 75.8584C36.7907 75.676 36.456 75.5851 36.0877 75.5851C35.7194 75.5851 35.3828 75.676 35.0778 75.8584C34.7769 76.0366 34.5353 76.2778 34.3531 76.5831C34.1709 76.8878 34.0798 77.2223 34.0798 77.587V81.1454C34.0798 81.5137 34.1709 81.8499 34.3531 82.1553C34.5353 82.46 34.7769 82.7036 35.0778 82.886C35.3828 83.0642 35.7194 83.1533 36.0877 83.1533ZM43.142 83.8246C42.6391 83.8246 42.1837 83.7034 41.7757 83.4622C41.3718 83.2204 41.049 82.8979 40.8074 82.4939C40.5659 82.0858 40.4451 81.6301 40.4451 81.1276V77.6108C40.4451 77.1076 40.5659 76.6544 40.8074 76.2504C41.049 75.8423 41.3718 75.5174 41.7757 75.2762C42.1837 75.0344 42.6391 74.9138 43.142 74.9138C43.645 74.9138 44.1005 75.0344 44.5084 75.2762C44.9163 75.5174 45.239 75.8423 45.4767 76.2504C45.7183 76.6544 45.839 77.1076 45.839 77.6108V81.1276C45.839 81.6301 45.7183 82.0858 45.4767 82.4939C45.239 82.8979 44.9163 83.2204 44.5084 83.4622C44.1005 83.7034 43.645 83.8246 43.142 83.8246ZM43.142 83.1533C43.5104 83.1533 43.845 83.0642 44.146 82.886C44.451 82.7036 44.6945 82.46 44.8767 82.1553C45.0589 81.8499 45.1499 81.5137 45.1499 81.1454V77.587C45.1499 77.2223 45.0589 76.8878 44.8767 76.5831C44.6945 76.2778 44.451 76.0366 44.146 75.8584C43.845 75.676 43.5104 75.5851 43.142 75.5851C42.7737 75.5851 42.4371 75.676 42.1322 75.8584C41.8312 76.0366 41.5896 76.2778 41.4074 76.5831C41.2253 76.8878 41.1342 77.2223 41.1342 77.587V81.1454C41.1342 81.5137 41.2253 81.8499 41.4074 82.1553C41.5896 82.46 41.8312 82.7036 42.1322 82.886C42.4371 83.0642 42.7737 83.1533 43.142 83.1533ZM55.1329 83.6464L55.1448 79.3335C55.1448 78.8143 54.9963 78.4086 54.6993 78.1157C54.4062 77.8187 54.0399 77.6702 53.6003 77.6702C53.3508 77.6702 53.1033 77.7272 52.8577 77.8425C52.6162 77.9571 52.4142 78.1431 52.2518 78.4009C52.0894 78.6581 52.0082 79.0068 52.0082 79.4464L51.5271 79.3692C51.5113 78.9017 51.5964 78.4959 51.7825 78.1514C51.9726 77.8027 52.234 77.5336 52.5666 77.3435C52.9033 77.1534 53.2854 77.0583 53.7132 77.0583C54.3429 77.0583 54.8518 77.252 55.2399 77.6405C55.6319 78.0284 55.828 78.5589 55.828 79.2326L55.8161 83.6464H55.1329ZM47.4994 83.6464V77.2306H48.1232V78.6742H48.1826V83.6464H47.4994ZM51.3191 83.6464L51.331 79.3989C51.331 78.8678 51.1865 78.4484 50.8974 78.1395C50.6083 77.8264 50.232 77.6702 49.7687 77.6702C49.2974 77.6702 48.9153 77.8324 48.6222 78.1573C48.3291 78.4781 48.1826 78.9076 48.1826 79.4464L47.7073 79.2088C47.7073 78.793 47.8024 78.4247 47.9925 78.1039C48.1826 77.7789 48.442 77.5235 48.7707 77.3375C49.1033 77.151 49.4835 77.0583 49.9112 77.0583C50.2954 77.0583 50.6459 77.1391 50.9627 77.3019C51.2796 77.4641 51.533 77.7094 51.7231 78.0385C51.9132 78.3629 52.0082 78.771 52.0082 79.2623L51.9964 83.6464H51.3191Z" fill="#494949"/>
<path d="M26.4924 48.003L29.7003 40.1259H25.6667V39.4487H30.4369V40.1259L27.229 48.003H26.4924ZM34.5562 48.1813C34.0532 48.1813 33.5978 48.0605 33.1899 47.8189C32.7859 47.5773 32.4632 47.2545 32.2216 46.8506C31.98 46.4427 31.8592 45.9873 31.8592 45.4843V41.9675C31.8592 41.4646 31.98 41.0111 32.2216 40.6071C32.4632 40.1992 32.7859 39.8745 33.1899 39.6329C33.5978 39.3913 34.0532 39.2705 34.5562 39.2705C35.0592 39.2705 35.5146 39.3913 35.9225 39.6329C36.3304 39.8745 36.6532 40.1992 36.8908 40.6071C37.1324 41.0111 37.2532 41.4646 37.2532 41.9675V45.4843C37.2532 45.9873 37.1324 46.4427 36.8908 46.8506C36.6532 47.2545 36.3304 47.5773 35.9225 47.8189C35.5146 48.0605 35.0592 48.1813 34.5562 48.1813ZM34.5562 47.51C34.9245 47.51 35.2591 47.4209 35.5601 47.2427C35.865 47.0605 36.1086 46.817 36.2908 46.512C36.473 46.2071 36.5641 45.8704 36.5641 45.5021V41.9437C36.5641 41.5794 36.473 41.2448 36.2908 40.9398C36.1086 40.6349 35.865 40.3933 35.5601 40.215C35.2591 40.0329 34.9245 39.9418 34.5562 39.9418C34.1879 39.9418 33.8512 40.0329 33.5463 40.215C33.2453 40.3933 33.0037 40.6349 32.8215 40.9398C32.6393 41.2448 32.5483 41.5794 32.5483 41.9437V45.5021C32.5483 45.8704 32.6393 46.2071 32.8215 46.512C33.0037 46.817 33.2453 47.0605 33.5463 47.2427C33.8512 47.4209 34.1879 47.51 34.5562 47.51ZM41.6105 48.1813C41.1075 48.1813 40.6521 48.0605 40.2442 47.8189C39.8402 47.5773 39.5175 47.2545 39.2759 46.8506C39.0343 46.4427 38.9135 45.9873 38.9135 45.4843V41.9675C38.9135 41.4646 39.0343 41.0111 39.2759 40.6071C39.5175 40.1992 39.8402 39.8745 40.2442 39.6329C40.6521 39.3913 41.1075 39.2705 41.6105 39.2705C42.1135 39.2705 42.5689 39.3913 42.9768 39.6329C43.3848 39.8745 43.7075 40.1992 43.9451 40.6071C44.1867 41.0111 44.3075 41.4646 44.3075 41.9675V45.4843C44.3075 45.9873 44.1867 46.4427 43.9451 46.8506C43.7075 47.2545 43.3848 47.5773 42.9768 47.8189C42.5689 48.0605 42.1135 48.1813 41.6105 48.1813ZM41.6105 47.51C41.9788 47.51 42.3134 47.4209 42.6145 47.2427C42.9194 47.0605 43.1629 46.817 43.3451 46.512C43.5273 46.2071 43.6184 45.8704 43.6184 45.5021V41.9437C43.6184 41.5794 43.5273 41.2448 43.3451 40.9398C43.1629 40.6349 42.9194 40.3933 42.6145 40.215C42.3134 40.0329 41.9788 39.9418 41.6105 39.9418C41.2422 39.9418 40.9056 40.0329 40.6006 40.215C40.2996 40.3933 40.0581 40.6349 39.8759 40.9398C39.6937 41.2448 39.6026 41.5794 39.6026 41.9437V45.5021C39.6026 45.8704 39.6937 46.2071 39.8759 46.512C40.0581 46.817 40.2996 47.0605 40.6006 47.2427C40.9056 47.4209 41.2422 47.51 41.6105 47.51ZM53.6014 48.003L53.6133 43.6902C53.6133 43.1715 53.4648 42.7655 53.1678 42.4724C52.8747 42.1754 52.5084 42.0269 52.0688 42.0269C51.8193 42.0269 51.5717 42.0843 51.3262 42.1992C51.0846 42.3141 50.8826 42.5002 50.7203 42.7576C50.5579 43.015 50.4767 43.3635 50.4767 43.8031L49.9955 43.7259C49.9797 43.2586 50.0649 42.8526 50.251 42.5081C50.4411 42.1596 50.7024 41.8903 51.0351 41.7002C51.3718 41.5101 51.7539 41.415 52.1816 41.415C52.8113 41.415 53.3202 41.6091 53.7083 41.9972C54.1004 42.3854 54.2964 42.916 54.2964 43.5893L54.2846 48.003H53.6014ZM45.9679 48.003V41.5873H46.5916V43.0308H46.651V48.003H45.9679ZM49.7876 48.003L49.7995 43.7556C49.7995 43.2249 49.655 42.8051 49.3658 42.4962C49.0767 42.1834 48.7005 42.0269 48.2371 42.0269C47.7659 42.0269 47.3837 42.1893 47.0906 42.514C46.7976 42.8348 46.651 43.2645 46.651 43.8031L46.1758 43.5655C46.1758 43.1497 46.2708 42.7813 46.4609 42.4606C46.651 42.1358 46.9104 41.8804 47.2391 41.6942C47.5718 41.5081 47.952 41.415 48.3797 41.415C48.7639 41.415 49.1144 41.4962 49.4312 41.6586C49.748 41.821 50.0015 42.0665 50.1916 42.3952C50.3817 42.72 50.4767 43.1279 50.4767 43.619L50.4648 48.003H49.7876Z" fill="#494949"/>
</g>
</g>
</g>
</g>
<defs>
<filter id="filter0_d_15_2249" x="-47.0309" y="83.0421" width="453.912" height="245.844" filterUnits="userSpaceOnUse" color-interpolation-filters="sRGB">
<feFlood flood-opacity="0" result="BackgroundImageFix"/>
<feColorMatrix in="SourceAlpha" type="matrix" values="0 0 0 0 0 0 0 0 0 0 0 0 0 0 0 0 0 0 127 0" result="hardAlpha"/>
<feOffset dy="11.881"/>
<feGaussianBlur stdDeviation="23.762"/>
<feComposite in2="hardAlpha" operator="out"/>
<feColorMatrix type="matrix" values="0 0 0 0 0.729412 0 0 0 0 1 0 0 0 0 0.164706 0 0 0 1 0"/>
<feBlend mode="normal" in2="BackgroundImageFix" result="effect1_dropShadow_15_2249"/>
<feBlend mode="normal" in="SourceGraphic" in2="effect1_dropShadow_15_2249" result="shape"/>
</filter>
<linearGradient id="paint0_linear_15_2249" x1="0.2425" y1="145.65" x2="359.479" y2="145.65" gradientUnits="userSpaceOnUse">
<stop stop-color="#191919"/>
<stop offset="1" stop-color="#121212"/>
</linearGradient>
<clipPath id="clip0_15_2249">
<rect width="360" height="309.5" fill="white" transform="translate(0.00292969)"/>
</clipPath>
<clipPath id="clip1_15_2249">
<rect width="360" height="309.5" fill="white" transform="translate(0.00292969)"/>
</clipPath>
<clipPath id="clip2_15_2249">
<rect width="359.994" height="309.5" fill="white" transform="translate(0.00579834)"/>
</clipPath>
</defs>
</svg>
