<svg width="360" height="529" viewBox="0 0 360 529" fill="none" xmlns="http://www.w3.org/2000/svg">
<g clip-path="url(#clip0_74_934)">
<g clip-path="url(#clip1_74_934)">
<g clip-path="url(#clip2_74_934)">
<mask id="mask0_74_934" style="mask-type:luminance" maskUnits="userSpaceOnUse" x="0" y="0" width="360" height="529">
<path d="M359.78 0.92334H0.379395V528.044H359.78V0.92334Z" fill="white"/>
</mask>
<g mask="url(#mask0_74_934)">
<path d="M335.82 1.52246H24.3396C11.4376 1.52246 0.978516 11.9816 0.978516 24.8835V504.084C0.978516 516.986 11.4376 527.445 24.3396 527.445H335.82C348.722 527.445 359.181 516.986 359.181 504.084V24.8835C359.181 11.9816 348.722 1.52246 335.82 1.52246Z" fill="#191919" stroke="#2F00FF" stroke-width="1.198"/>
<g filter="url(#filter0_d_74_934)">
<path d="M143.999 136.414H48.1592C41.5428 136.414 36.1792 141.777 36.1792 148.394V244.234C36.1792 250.85 41.5428 256.214 48.1592 256.214H143.999C150.616 256.214 155.979 250.85 155.979 244.234V148.394C155.979 141.777 150.616 136.414 143.999 136.414Z" fill="#232121"/>
</g>
<g filter="url(#filter1_d_74_934)">
<path d="M287.758 136.414H191.918C185.302 136.414 179.938 141.777 179.938 148.394V244.234C179.938 250.85 185.302 256.214 191.918 256.214H287.758C294.375 256.214 299.738 250.85 299.738 244.234V148.394C299.738 141.777 294.375 136.414 287.758 136.414Z" fill="#232121"/>
</g>
<g filter="url(#filter2_d_74_934)">
<path d="M431.518 136.414H335.678C329.062 136.414 323.698 141.777 323.698 148.394V244.234C323.698 250.85 329.062 256.214 335.678 256.214H431.518C438.135 256.214 443.498 250.85 443.498 244.234V148.394C443.498 141.777 438.135 136.414 431.518 136.414Z" fill="#232121"/>
</g>
<path d="M42.6869 120.932C41.9969 120.932 41.4051 120.741 40.9115 120.357C40.4179 119.974 40.0849 119.461 39.9124 118.819L40.969 118.568C41.0552 118.946 41.2541 119.267 41.5656 119.531C41.8819 119.79 42.2533 119.919 42.6797 119.919C42.9481 119.919 43.2188 119.854 43.492 119.725C43.7699 119.595 43.988 119.382 44.1461 119.085C44.2515 118.879 44.3114 118.656 44.3258 118.417C44.345 118.172 44.3545 117.88 44.3545 117.54V110.373H45.4184V117.54C45.4184 117.827 45.416 118.088 45.4112 118.323C45.4064 118.553 45.38 118.776 45.3321 118.992C45.289 119.203 45.2051 119.416 45.0805 119.631C44.8314 120.068 44.4959 120.393 44.0742 120.609C43.6573 120.825 43.1949 120.932 42.6869 120.932ZM50.5559 120.918C50.0911 120.918 49.6837 120.846 49.3339 120.702C48.9889 120.559 48.6942 120.365 48.4498 120.12C48.2102 119.876 48.0161 119.598 47.8676 119.286C47.719 118.97 47.6112 118.637 47.5441 118.287C47.477 117.933 47.4435 117.58 47.4435 117.231V112.961H48.5073V116.922C48.5073 117.348 48.548 117.743 48.6295 118.108C48.711 118.472 48.8403 118.79 49.0177 119.064C49.1997 119.332 49.4322 119.54 49.7149 119.689C50.0024 119.837 50.3498 119.912 50.7572 119.912C51.1309 119.912 51.4592 119.847 51.7419 119.718C52.0294 119.588 52.269 119.404 52.4607 119.164C52.6572 118.92 52.8057 118.625 52.9064 118.28C53.007 117.93 53.0573 117.537 53.0573 117.101L53.8049 117.267C53.8049 118.062 53.6659 118.731 53.388 119.272C53.11 119.814 52.7267 120.223 52.2379 120.501C51.7491 120.779 51.1884 120.918 50.5559 120.918ZM53.1651 120.724V118.812H53.0573V112.961H54.114V120.724H53.1651ZM65.3813 120.724L65.3885 115.628C65.3885 115.029 65.2208 114.559 64.8854 114.219C64.5547 113.874 64.133 113.701 63.6203 113.701C63.328 113.701 63.0428 113.768 62.7649 113.903C62.487 114.037 62.257 114.252 62.0749 114.55C61.8976 114.847 61.8089 115.235 61.8089 115.714L61.1835 115.534C61.1692 114.978 61.277 114.492 61.507 114.075C61.7418 113.658 62.0629 113.335 62.4702 113.105C62.8823 112.87 63.3471 112.753 63.8647 112.753C64.6458 112.753 65.2711 112.995 65.7407 113.478C66.2104 113.958 66.4452 114.607 66.4452 115.426L66.438 120.724H65.3813ZM56.1158 120.724V112.961H57.0646V114.873H57.1796V120.724H56.1158ZM60.7595 120.724L60.7666 115.7C60.7666 115.081 60.6013 114.595 60.2707 114.24C59.9448 113.881 59.5134 113.701 58.9766 113.701C58.4399 113.701 58.0063 113.886 57.6756 114.255C57.345 114.619 57.1796 115.105 57.1796 115.714L56.5471 115.369C56.5471 114.871 56.6645 114.425 56.8993 114.032C57.1341 113.634 57.4552 113.323 57.8625 113.098C58.2698 112.868 58.7323 112.753 59.2498 112.753C59.7434 112.753 60.182 112.858 60.5654 113.069C60.9535 113.28 61.2578 113.586 61.4783 113.989C61.6987 114.391 61.8089 114.88 61.8089 115.455L61.8017 120.724H60.7595ZM71.7949 120.94C71.0808 120.94 70.477 120.76 69.9835 120.401C69.4899 120.036 69.1161 119.545 68.8621 118.927C68.6082 118.304 68.4812 117.607 68.4812 116.835C68.4812 116.049 68.6082 115.35 68.8621 114.736C69.1209 114.118 69.4995 113.632 69.9978 113.277C70.4962 112.923 71.1096 112.745 71.838 112.745C72.5472 112.745 73.1558 112.925 73.6637 113.284C74.1717 113.644 74.5598 114.133 74.8282 114.751C75.1013 115.369 75.2379 116.064 75.2379 116.835C75.2379 117.612 75.1013 118.309 74.8282 118.927C74.555 119.545 74.1621 120.036 73.6494 120.401C73.1366 120.76 72.5184 120.94 71.7949 120.94ZM68.3015 124.174V112.961H69.2503V118.805H69.3653V124.174H68.3015ZM71.687 119.955C72.2285 119.955 72.679 119.818 73.0384 119.545C73.3978 119.272 73.6661 118.901 73.8434 118.431C74.0255 117.957 74.1166 117.425 74.1166 116.835C74.1166 116.251 74.0279 115.724 73.8506 115.254C73.6733 114.784 73.4026 114.413 73.0384 114.14C72.679 113.867 72.2213 113.73 71.6655 113.73C71.124 113.73 70.6735 113.862 70.3141 114.125C69.9595 114.389 69.6936 114.756 69.5163 115.225C69.3389 115.69 69.2503 116.227 69.2503 116.835C69.2503 117.434 69.3389 117.971 69.5163 118.445C69.6936 118.915 69.9619 119.284 70.3213 119.552C70.6807 119.821 71.136 119.955 71.687 119.955ZM83.1807 120.94C82.4667 120.94 81.8629 120.76 81.3693 120.401C80.8757 120.036 80.5019 119.545 80.248 118.927C79.994 118.304 79.867 117.607 79.867 116.835C79.867 116.049 79.994 115.35 80.248 114.736C80.5067 114.118 80.8853 113.632 81.3837 113.277C81.882 112.923 82.4954 112.745 83.2238 112.745C83.933 112.745 84.5416 112.925 85.0495 113.284C85.5575 113.644 85.9457 114.133 86.214 114.751C86.4872 115.369 86.6237 116.064 86.6237 116.835C86.6237 117.612 86.4872 118.309 86.214 118.927C85.9409 119.545 85.5479 120.036 85.0352 120.401C84.5224 120.76 83.9043 120.94 83.1807 120.94ZM79.6873 120.724V110.373H80.7511V114.88H80.6361V120.724H79.6873ZM83.0728 119.955C83.6143 119.955 84.0648 119.818 84.4242 119.545C84.7836 119.272 85.0519 118.901 85.2293 118.431C85.4113 117.957 85.5024 117.425 85.5024 116.835C85.5024 116.251 85.4137 115.724 85.2364 115.254C85.0591 114.784 84.7884 114.413 84.4242 114.14C84.0648 113.867 83.6072 113.73 83.0513 113.73C82.5098 113.73 82.0593 113.862 81.6999 114.125C81.3453 114.389 81.0794 114.756 80.9021 115.225C80.7248 115.69 80.6361 116.227 80.6361 116.835C80.6361 117.434 80.7248 117.971 80.9021 118.445C81.0794 118.915 81.3477 119.284 81.7071 119.552C82.0665 119.821 82.5218 119.955 83.0728 119.955ZM90.4232 120.94C89.8386 120.94 89.3474 120.834 88.9496 120.623C88.5567 120.413 88.262 120.132 88.0655 119.782C87.869 119.433 87.7708 119.052 87.7708 118.639C87.7708 118.218 87.8547 117.858 88.0224 117.561C88.1949 117.259 88.4273 117.013 88.7196 116.821C89.0167 116.629 89.3594 116.483 89.7475 116.382C90.1405 116.287 90.5741 116.203 91.0485 116.131C91.5277 116.054 91.995 115.99 92.4502 115.937C92.9102 115.879 93.3128 115.824 93.6578 115.771L93.284 116.001C93.2984 115.235 93.1498 114.667 92.8384 114.298C92.5269 113.929 91.9854 113.744 91.2139 113.744C90.682 113.744 90.2315 113.864 89.8625 114.104C89.4983 114.343 89.242 114.722 89.0934 115.24L88.0655 114.938C88.2428 114.243 88.5998 113.704 89.1365 113.32C89.6732 112.937 90.3705 112.745 91.2282 112.745C91.9375 112.745 92.5389 112.879 93.0324 113.148C93.5308 113.411 93.883 113.795 94.0891 114.298C94.1849 114.523 94.2472 114.775 94.276 115.053C94.3047 115.331 94.3191 115.613 94.3191 115.901V120.724H93.3775V118.776L93.6506 118.891C93.387 119.557 92.9773 120.065 92.4215 120.415C91.8656 120.765 91.1995 120.94 90.4232 120.94ZM90.5454 120.027C91.039 120.027 91.4702 119.938 91.8392 119.761C92.2082 119.584 92.5053 119.342 92.7305 119.035C92.9558 118.723 93.1019 118.374 93.169 117.985C93.2265 117.736 93.2577 117.463 93.2625 117.166C93.2672 116.864 93.2696 116.639 93.2696 116.49L93.6722 116.699C93.3128 116.747 92.9222 116.795 92.5005 116.842C92.0836 116.89 91.6715 116.946 91.2642 117.008C90.8617 117.07 90.4975 117.144 90.1716 117.231C89.9512 117.293 89.7379 117.382 89.5319 117.497C89.3258 117.607 89.1557 117.755 89.0215 117.942C88.8921 118.129 88.8275 118.362 88.8275 118.639C88.8275 118.865 88.8826 119.083 88.9928 119.294C89.1078 119.504 89.2899 119.679 89.5391 119.818C89.793 119.957 90.1285 120.027 90.5454 120.027ZM99.4106 120.94C98.6295 120.94 97.9682 120.765 97.4267 120.415C96.8852 120.065 96.4731 119.584 96.1904 118.97C95.9124 118.352 95.7687 117.643 95.7591 116.842C95.7687 116.028 95.9172 115.314 96.2048 114.7C96.4923 114.082 96.9068 113.603 97.4483 113.263C97.9898 112.918 98.6463 112.745 99.4178 112.745C100.204 112.745 100.887 112.937 101.466 113.32C102.051 113.704 102.451 114.228 102.667 114.895L101.632 115.225C101.45 114.76 101.16 114.401 100.762 114.147C100.369 113.888 99.9186 113.759 99.4106 113.759C98.8404 113.759 98.3683 113.891 97.9946 114.154C97.6208 114.413 97.3428 114.775 97.1608 115.24C96.9787 115.704 96.8852 116.239 96.8804 116.842C96.89 117.772 97.1056 118.52 97.5273 119.085C97.949 119.646 98.5768 119.926 99.4106 119.926C99.9377 119.926 100.386 119.806 100.755 119.567C101.129 119.322 101.411 118.968 101.603 118.503L102.667 118.819C102.379 119.509 101.958 120.036 101.402 120.401C100.846 120.76 100.182 120.94 99.4106 120.94ZM104.143 120.724L104.15 110.373H105.214V116.699L108.679 112.961H110.088L106.451 116.842L110.562 120.724H109.024L105.214 116.986V120.724H104.143ZM114.304 111.487V110.301H115.361V111.487H114.304ZM114.304 120.724V112.961H115.361V120.724H114.304ZM123.123 120.724V116.763C123.123 116.332 123.082 115.937 123 115.577C122.919 115.213 122.787 114.897 122.605 114.629C122.428 114.355 122.195 114.145 121.908 113.996C121.625 113.847 121.28 113.773 120.873 113.773C120.499 113.773 120.168 113.838 119.881 113.967C119.598 114.097 119.359 114.284 119.162 114.528C118.97 114.768 118.824 115.06 118.724 115.405C118.623 115.75 118.573 116.143 118.573 116.584L117.825 116.418C117.825 115.623 117.964 114.954 118.242 114.413C118.52 113.871 118.903 113.462 119.392 113.184C119.881 112.906 120.442 112.767 121.074 112.767C121.539 112.767 121.944 112.839 122.289 112.983C122.639 113.126 122.933 113.32 123.173 113.565C123.417 113.809 123.614 114.089 123.762 114.406C123.911 114.717 124.019 115.05 124.086 115.405C124.153 115.755 124.186 116.105 124.186 116.454V120.724H123.123ZM117.509 120.724V112.961H118.465V114.873H118.573V120.724H117.509Z" fill="#8D8D8D"/>
<path d="M43.1399 302.82L40.1497 292.469H41.2494L43.6718 301.016L46.0798 292.476L47.1867 292.469L49.6091 301.016L52.0171 292.469H53.124L50.141 302.82H49.0772L46.6332 294.331L44.2037 302.82H43.1399ZM56.7536 303.035C55.9821 303.035 55.3232 302.86 54.7769 302.511C54.2306 302.161 53.8113 301.677 53.519 301.059C53.2267 300.44 53.0805 299.731 53.0805 298.931C53.0805 298.116 53.2291 297.402 53.5262 296.789C53.8233 296.176 54.245 295.699 54.7913 295.359C55.3424 295.014 55.9965 294.841 56.7536 294.841C57.5299 294.841 58.1912 295.016 58.7375 295.366C59.2886 295.711 59.7079 296.192 59.9952 296.811C60.2875 297.424 60.4337 298.131 60.4337 298.931C60.4337 299.746 60.2875 300.462 59.9952 301.08C59.7031 301.694 59.2814 302.173 58.7303 302.518C58.1792 302.863 57.5203 303.035 56.7536 303.035ZM56.7536 302.022C57.6162 302.022 58.2583 301.737 58.68 301.166C59.1017 300.591 59.3125 299.846 59.3125 298.931C59.3125 297.992 59.0993 297.244 58.6728 296.688C58.2511 296.132 57.6114 295.855 56.7536 295.855C56.1738 295.855 55.6946 295.986 55.316 296.25C54.9422 296.509 54.6619 296.87 54.475 297.335C54.2929 297.795 54.2019 298.327 54.2019 298.931C54.2019 299.865 54.4175 300.615 54.8488 301.181C55.2801 301.742 55.915 302.022 56.7536 302.022ZM62.0193 302.82V295.057H62.9681V296.926L62.7812 296.681C62.8674 296.451 62.98 296.24 63.119 296.049C63.258 295.852 63.4089 295.692 63.5719 295.567C63.7731 295.39 64.0079 295.256 64.2763 295.164C64.5446 295.069 64.8154 295.014 65.0885 294.999C65.3617 294.98 65.6109 294.999 65.8361 295.057V296.049C65.5534 295.977 65.2443 295.96 64.9088 295.998C64.5734 296.037 64.2643 296.171 63.9816 296.401C63.7228 296.602 63.5287 296.844 63.3994 297.127C63.27 297.405 63.1837 297.702 63.1406 298.018C63.0975 298.33 63.0759 298.639 63.0759 298.945V302.82H62.0193ZM67.1928 302.82L67.2 292.469H68.2638V298.794L71.7285 295.057H73.1373L69.5002 298.938L73.6117 302.82H72.0735L68.2638 299.082V302.82H67.1928ZM77.0883 303.028C76.1778 303.028 75.4279 302.832 74.8385 302.439C74.2539 302.046 73.8944 301.5 73.7603 300.8L74.8385 300.62C74.9535 301.061 75.2146 301.413 75.622 301.677C76.0341 301.936 76.542 302.065 77.1458 302.065C77.7352 302.065 78.2001 301.943 78.5403 301.698C78.8805 301.449 79.0507 301.111 79.0507 300.685C79.0507 300.445 78.9955 300.251 78.8853 300.103C78.7799 299.949 78.5619 299.808 78.2312 299.679C77.9006 299.549 77.407 299.396 76.7505 299.219C76.0461 299.027 75.495 298.835 75.0972 298.644C74.6995 298.452 74.4168 298.231 74.2491 297.982C74.0813 297.728 73.9975 297.419 73.9975 297.055C73.9975 296.614 74.1221 296.228 74.3713 295.898C74.6204 295.562 74.9655 295.303 75.4063 295.121C75.8472 294.934 76.3599 294.841 76.9446 294.841C77.5292 294.841 78.0515 294.937 78.5116 295.129C78.9764 295.315 79.3502 295.579 79.6329 295.919C79.9156 296.259 80.0833 296.655 80.136 297.105L79.0578 297.299C78.986 296.844 78.7583 296.485 78.375 296.221C77.9964 295.953 77.5148 295.814 76.9302 295.804C76.3791 295.79 75.931 295.895 75.586 296.121C75.241 296.341 75.0685 296.636 75.0685 297.005C75.0685 297.211 75.1308 297.388 75.2554 297.537C75.38 297.68 75.6052 297.817 75.9311 297.946C76.2617 298.076 76.7313 298.217 77.3399 298.37C78.0539 298.552 78.6146 298.744 79.0219 298.945C79.4292 299.147 79.7191 299.384 79.8916 299.657C80.0642 299.93 80.1504 300.268 80.1504 300.671C80.1504 301.404 79.8773 301.981 79.331 302.403C78.7895 302.82 78.0419 303.028 77.0883 303.028ZM85.2305 303.035C84.5165 303.035 83.9127 302.856 83.4192 302.496C82.9256 302.132 82.5518 301.641 82.2978 301.023C82.0439 300.4 81.9169 299.703 81.9169 298.931C81.9169 298.145 82.0439 297.445 82.2978 296.832C82.5566 296.214 82.9352 295.728 83.4335 295.373C83.9319 295.018 84.5453 294.841 85.2737 294.841C85.9829 294.841 86.5915 295.021 87.0994 295.38C87.6074 295.74 87.9955 296.228 88.2639 296.847C88.537 297.465 88.6736 298.16 88.6736 298.931C88.6736 299.707 88.537 300.405 88.2639 301.023C87.9907 301.641 87.5978 302.132 87.085 302.496C86.5723 302.856 85.9541 303.035 85.2305 303.035ZM81.7372 306.27V295.057H82.686V300.901H82.801V306.27H81.7372ZM85.1227 302.051C85.6642 302.051 86.1147 301.914 86.4741 301.641C86.8335 301.368 87.1018 300.996 87.2791 300.527C87.4612 300.052 87.5523 299.52 87.5523 298.931C87.5523 298.346 87.4636 297.819 87.2863 297.35C87.109 296.88 86.8383 296.509 86.4741 296.236C86.1147 295.962 85.657 295.826 85.1012 295.826C84.5597 295.826 84.1092 295.958 83.7498 296.221C83.3952 296.485 83.1292 296.851 82.9519 297.321C82.7746 297.786 82.686 298.322 82.686 298.931C82.686 299.53 82.7746 300.067 82.9519 300.541C83.1292 301.011 83.3976 301.38 83.757 301.648C84.1164 301.916 84.5716 302.051 85.1227 302.051ZM92.4731 303.035C91.8884 303.035 91.3973 302.93 90.9995 302.719C90.6066 302.508 90.3119 302.228 90.1154 301.878C89.9189 301.528 89.8207 301.147 89.8207 300.735C89.8207 300.314 89.9045 299.954 90.0723 299.657C90.2448 299.355 90.4772 299.108 90.7695 298.917C91.0666 298.725 91.4092 298.579 91.7974 298.478C92.1903 298.382 92.624 298.298 93.0984 298.227C93.5776 298.15 94.0448 298.085 94.5001 298.033C94.9601 297.975 95.3627 297.92 95.7077 297.867L95.3339 298.097C95.3483 297.33 95.1997 296.763 94.8882 296.394C94.5768 296.025 94.0353 295.84 93.2637 295.84C92.7318 295.84 92.2814 295.96 91.9124 296.2C91.5482 296.439 91.2918 296.818 91.1433 297.335L90.1154 297.033C90.2927 296.339 90.6497 295.799 91.1864 295.416C91.7231 295.033 92.4204 294.841 93.2781 294.841C93.9873 294.841 94.5887 294.975 95.0823 295.244C95.5807 295.507 95.9329 295.89 96.139 296.394C96.2348 296.619 96.2971 296.87 96.3258 297.148C96.3546 297.426 96.369 297.709 96.369 297.997V302.82H95.4273V300.872L95.7005 300.987C95.4369 301.653 95.0272 302.161 94.4713 302.511C93.9155 302.86 93.2494 303.035 92.4731 303.035ZM92.5953 302.122C93.0888 302.122 93.5201 302.034 93.8891 301.857C94.2581 301.679 94.5552 301.437 94.7804 301.131C95.0056 300.819 95.1518 300.469 95.2189 300.081C95.2764 299.832 95.3075 299.559 95.3123 299.262C95.3171 298.96 95.3195 298.735 95.3195 298.586L95.7221 298.794C95.3627 298.842 94.9721 298.89 94.5504 298.938C94.1335 298.986 93.7214 299.041 93.3141 299.104C92.9115 299.166 92.5473 299.24 92.2215 299.326C92.0011 299.389 91.7878 299.477 91.5818 299.592C91.3757 299.703 91.2056 299.851 91.0714 300.038C90.942 300.225 90.8773 300.457 90.8773 300.735C90.8773 300.96 90.9324 301.178 91.0427 301.389C91.1577 301.6 91.3398 301.775 91.5889 301.914C91.8429 302.053 92.1784 302.122 92.5953 302.122ZM101.46 303.035C100.679 303.035 100.018 302.86 99.4766 302.511C98.9351 302.161 98.523 301.679 98.2402 301.066C97.9623 300.448 97.8186 299.738 97.809 298.938C97.8186 298.124 97.9671 297.41 98.2546 296.796C98.5421 296.178 98.9567 295.699 99.4982 295.359C100.04 295.014 100.696 294.841 101.468 294.841C102.254 294.841 102.936 295.033 103.516 295.416C104.101 295.799 104.501 296.324 104.717 296.99L103.682 297.321C103.499 296.856 103.21 296.497 102.812 296.243C102.419 295.984 101.968 295.855 101.46 295.855C100.89 295.855 100.418 295.986 100.044 296.25C99.6707 296.509 99.3927 296.87 99.2106 297.335C99.0285 297.8 98.9351 298.334 98.9303 298.938C98.9399 299.868 99.1555 300.615 99.5772 301.181C99.9989 301.742 100.627 302.022 101.46 302.022C101.988 302.022 102.436 301.902 102.805 301.662C103.178 301.418 103.461 301.063 103.653 300.599L104.717 300.915C104.429 301.605 104.007 302.132 103.452 302.496C102.896 302.856 102.232 303.035 101.46 303.035ZM109.275 303.035C108.518 303.035 107.861 302.868 107.306 302.532C106.754 302.197 106.326 301.725 106.019 301.116C105.712 300.508 105.559 299.794 105.559 298.974C105.559 298.126 105.71 297.393 106.012 296.775C106.314 296.156 106.738 295.68 107.284 295.344C107.835 295.009 108.484 294.841 109.232 294.841C109.999 294.841 110.653 295.018 111.194 295.373C111.736 295.723 112.145 296.226 112.423 296.882C112.701 297.539 112.828 298.322 112.804 299.233H111.726V298.859C111.707 297.853 111.489 297.093 111.072 296.581C110.66 296.068 110.056 295.811 109.261 295.811C108.427 295.811 107.787 296.082 107.341 296.624C106.901 297.165 106.68 297.937 106.68 298.938C106.68 299.916 106.901 300.675 107.341 301.217C107.787 301.754 108.417 302.022 109.232 302.022C109.788 302.022 110.272 301.895 110.684 301.641C111.101 301.382 111.429 301.011 111.669 300.527L112.653 300.908C112.347 301.583 111.894 302.108 111.295 302.482C110.701 302.851 110.027 303.035 109.275 303.035ZM106.306 299.233V298.349H112.237V299.233H106.306Z" fill="#8D8D8D"/>
<path d="M73.4338 369.908V357.832H78.2055C78.3229 357.832 78.4625 357.838 78.6248 357.849C78.7865 357.855 78.9434 357.872 79.0944 357.899C79.7485 358 80.296 358.224 80.7381 358.57C81.1849 358.917 81.5203 359.356 81.7444 359.887C81.9678 360.412 82.0798 360.997 82.0798 361.639C82.0798 362.277 81.9648 362.861 81.736 363.392C81.512 363.918 81.1765 364.356 80.7297 364.709C80.2876 365.055 79.7425 365.279 79.0944 365.379C78.9434 365.402 78.7865 365.419 78.6248 365.43C78.4625 365.441 78.3229 365.446 78.2055 365.446H74.9265V369.908H73.4338ZM74.9265 364.029H78.1552C78.2612 364.029 78.3816 364.024 78.5158 364.012C78.6553 364.002 78.7865 363.982 78.9099 363.954C79.2957 363.865 79.6083 363.702 79.8491 363.467C80.0947 363.227 80.2738 362.947 80.3858 362.629C80.4973 362.305 80.5536 361.975 80.5536 361.639C80.5536 361.304 80.4973 360.977 80.3858 360.658C80.2738 360.334 80.0947 360.052 79.8491 359.811C79.6083 359.571 79.2957 359.409 78.9099 359.325C78.7865 359.291 78.6553 359.272 78.5158 359.266C78.3816 359.255 78.2612 359.249 78.1552 359.249H74.9265V364.029ZM83.7522 369.908V360.851H85.0856V363.04L84.8676 362.755C84.9742 362.475 85.1108 362.218 85.2785 361.983C85.4522 361.748 85.6451 361.555 85.8571 361.404C86.0919 361.215 86.3579 361.069 86.6538 360.968C86.9503 360.868 87.2522 360.809 87.5595 360.792C87.8674 360.77 88.1549 360.79 88.4232 360.851V362.251C88.1106 362.168 87.7667 362.145 87.3918 362.184C87.0174 362.224 86.6706 362.36 86.3519 362.595C86.0614 362.803 85.835 363.054 85.6726 363.35C85.5163 363.646 85.4073 363.968 85.3456 364.314C85.2845 364.656 85.2533 365.005 85.2533 365.363V369.908H83.7522ZM93.7028 370.159C92.8031 370.159 92.0256 369.956 91.3715 369.547C90.7234 369.139 90.2226 368.574 89.8704 367.853C89.5182 367.132 89.3421 366.305 89.3421 365.371C89.3421 364.421 89.5212 363.588 89.8788 362.872C90.237 362.157 90.7426 361.6 91.3967 361.203C92.0508 360.801 92.8199 360.599 93.7028 360.599C94.6085 360.599 95.3884 360.804 96.0425 361.212C96.6966 361.614 97.1974 362.176 97.5436 362.897C97.8958 363.613 98.072 364.438 98.072 365.371C98.072 366.316 97.8958 367.149 97.5436 367.87C97.1914 368.586 96.6883 369.148 96.0341 369.556C95.38 369.958 94.6031 370.159 93.7028 370.159ZM93.7028 368.742C94.6421 368.742 95.3411 368.43 95.7993 367.803C96.2582 367.177 96.487 366.367 96.487 365.371C96.487 364.348 96.2552 363.534 95.791 362.931C95.3273 362.322 94.6313 362.017 93.7028 362.017C93.0715 362.017 92.5516 362.159 92.143 362.444C91.7351 362.729 91.4302 363.124 91.229 363.627C91.0277 364.13 90.9271 364.712 90.9271 365.371C90.9271 366.389 91.1619 367.205 91.6315 367.82C92.1011 368.435 92.7918 368.742 93.7028 368.742ZM98.5769 373.933V372.508H99.0633C99.4994 372.508 99.8318 372.398 100.061 372.18C100.29 371.962 100.405 371.616 100.405 371.141V360.851H101.898V371.652C101.898 372.396 101.705 372.96 101.319 373.346C100.939 373.738 100.374 373.933 99.6252 373.933H98.5769ZM100.405 359.249V357.706H101.898V359.249H100.405ZM108.249 370.159C107.36 370.159 106.583 369.964 105.918 369.572C105.258 369.176 104.744 368.625 104.375 367.92C104.006 367.211 103.821 366.383 103.821 365.438C103.821 364.449 104.003 363.593 104.366 362.872C104.73 362.145 105.235 361.587 105.884 361.195C106.538 360.798 107.304 360.599 108.182 360.599C109.093 360.599 109.867 360.809 110.505 361.228C111.148 361.648 111.629 362.246 111.947 363.023C112.271 363.8 112.411 364.725 112.367 365.799H110.857V365.262C110.84 364.15 110.614 363.319 110.178 362.771C109.742 362.218 109.093 361.941 108.232 361.941C107.31 361.941 106.608 362.238 106.127 362.83C105.646 363.423 105.406 364.272 105.406 365.379C105.406 366.447 105.646 367.275 106.127 367.862C106.608 368.449 107.293 368.742 108.182 368.742C108.78 368.742 109.3 368.606 109.742 368.331C110.183 368.058 110.53 367.663 110.782 367.149L112.216 367.644C111.863 368.443 111.332 369.064 110.622 369.505C109.918 369.941 109.127 370.159 108.249 370.159ZM104.903 365.799V364.599H111.595V365.799H104.903ZM118.049 370.159C117.132 370.159 116.352 369.956 115.71 369.547C115.072 369.134 114.586 368.566 114.25 367.845C113.915 367.124 113.742 366.302 113.73 365.379C113.742 364.435 113.918 363.605 114.259 362.889C114.606 362.168 115.1 361.606 115.743 361.203C116.386 360.801 117.16 360.599 118.066 360.599C119.022 360.599 119.844 360.834 120.532 361.304C121.225 361.773 121.689 362.417 121.924 363.233L120.448 363.677C120.258 363.152 119.947 362.744 119.517 362.453C119.092 362.162 118.603 362.017 118.049 362.017C117.429 362.017 116.917 362.162 116.515 362.453C116.112 362.738 115.813 363.135 115.617 363.644C115.421 364.147 115.321 364.725 115.315 365.379C115.327 366.386 115.559 367.199 116.011 367.82C116.47 368.435 117.149 368.742 118.049 368.742C118.642 368.742 119.134 368.608 119.525 368.34C119.916 368.066 120.213 367.672 120.414 367.157L121.924 367.551C121.61 368.396 121.122 369.042 120.456 369.489C119.791 369.936 118.988 370.159 118.049 370.159ZM128.692 369.908C128.155 370.014 127.624 370.056 127.098 370.034C126.578 370.017 126.115 369.914 125.706 369.723C125.298 369.528 124.988 369.226 124.775 368.818C124.597 368.46 124.499 368.099 124.482 367.736C124.471 367.367 124.465 366.951 124.465 366.486V358.335H125.958V366.419C125.958 366.788 125.961 367.105 125.966 367.367C125.978 367.63 126.036 367.856 126.142 368.046C126.344 368.404 126.662 368.614 127.098 368.675C127.54 368.737 128.071 368.72 128.692 368.625V369.908ZM122.629 362.084V360.851H128.692V362.084H122.629ZM133.952 370.151C132.873 370.151 131.987 369.916 131.294 369.447C130.606 368.972 130.184 368.309 130.027 367.459L131.554 367.216C131.677 367.708 131.959 368.099 132.401 368.39C132.842 368.675 133.39 368.818 134.044 368.818C134.665 368.818 135.151 368.689 135.504 368.432C135.856 368.175 136.032 367.826 136.032 367.384C136.032 367.127 135.973 366.92 135.856 366.763C135.738 366.601 135.495 366.45 135.126 366.31C134.763 366.171 134.212 366.003 133.474 365.807C132.674 365.595 132.046 365.374 131.587 365.145C131.129 364.916 130.802 364.65 130.606 364.348C130.41 364.046 130.313 363.68 130.313 363.249C130.313 362.719 130.458 362.254 130.749 361.857C131.039 361.455 131.445 361.144 131.965 360.926C132.49 360.708 133.1 360.599 133.793 360.599C134.48 360.599 135.096 360.708 135.638 360.926C136.18 361.144 136.616 361.455 136.946 361.857C137.281 362.254 137.48 362.719 137.541 363.249L136.015 363.526C135.943 363.04 135.708 362.657 135.311 362.377C134.92 362.098 134.413 361.95 133.793 361.933C133.206 361.911 132.728 362.014 132.359 362.243C131.995 362.472 131.814 362.783 131.814 363.174C131.814 363.392 131.881 363.579 132.015 363.736C132.155 363.893 132.409 364.041 132.778 364.18C133.152 364.32 133.695 364.48 134.405 364.658C135.205 364.859 135.834 365.081 136.292 365.321C136.756 365.556 137.085 365.835 137.281 366.159C137.477 366.478 137.575 366.872 137.575 367.342C137.575 368.214 137.253 368.902 136.61 369.405C135.968 369.902 135.081 370.151 133.952 370.151Z" fill="white" fill-opacity="0.8"/>
<path d="M62.0282 233.336V222.677H57.9109V221.26H67.6384V222.677H63.5209V233.336H62.0282ZM70.3693 233.587C69.6924 233.587 69.1252 233.464 68.6669 233.218C68.2141 232.967 67.8702 232.637 67.6354 232.229C67.406 231.821 67.2916 231.373 67.2916 230.887C67.2916 230.412 67.3809 230.001 67.56 229.654C67.7445 229.302 68.0014 229.011 68.3315 228.782C68.6609 228.547 69.0551 228.363 69.5139 228.229C69.944 228.111 70.425 228.011 70.9563 227.927C71.493 227.837 72.0351 227.757 72.5832 227.683C73.1307 227.611 73.6422 227.541 74.1178 227.474L73.5811 227.784C73.5979 226.979 73.4356 226.384 73.0947 225.998C72.7593 225.612 72.1777 225.419 71.3504 225.419C70.8024 225.419 70.3214 225.545 69.908 225.797C69.4995 226.043 69.212 226.445 69.0443 227.004L67.627 226.577C67.8451 225.783 68.2668 225.159 68.8933 224.706C69.5193 224.254 70.3441 224.027 71.3672 224.027C72.189 224.027 72.8935 224.176 73.4805 224.472C74.0729 224.763 74.4976 225.204 74.7552 225.797C74.8834 226.076 74.9648 226.381 74.9984 226.711C75.0319 227.035 75.0487 227.376 75.0487 227.734V233.336H73.7237V231.164L74.034 231.365C73.6925 232.097 73.2145 232.651 72.6 233.025C71.9902 233.4 71.2468 233.587 70.3693 233.587ZM70.5957 232.338C71.1324 232.338 71.596 232.243 71.9878 232.053C72.3843 231.857 72.703 231.603 72.9438 231.289C73.184 230.971 73.3403 230.625 73.4134 230.25C73.4973 229.97 73.5416 229.66 73.5476 229.319C73.5584 228.973 73.5643 228.707 73.5643 228.522L74.0843 228.748C73.5979 228.816 73.1199 228.88 72.6503 228.941C72.1807 229.003 71.7362 229.07 71.3169 229.143C70.8976 229.21 70.5202 229.291 70.1848 229.386C69.9386 229.464 69.7068 229.565 69.4887 229.688C69.2761 229.811 69.103 229.97 68.9688 230.166C68.84 230.356 68.7759 230.593 68.7759 230.879C68.7759 231.125 68.837 231.36 68.9604 231.583C69.0886 231.807 69.2845 231.988 69.5474 232.128C69.8158 232.268 70.165 232.338 70.5957 232.338ZM80.6505 233.579C79.5711 233.579 78.6852 233.344 77.9922 232.874C77.3045 232.399 76.8822 231.737 76.7259 230.887L78.2521 230.644C78.3749 231.136 78.6571 231.527 79.0991 231.818C79.5406 232.103 80.0887 232.245 80.7428 232.245C81.3633 232.245 81.8497 232.117 82.2019 231.86C82.5542 231.603 82.7303 231.254 82.7303 230.811C82.7303 230.554 82.6716 230.348 82.5542 230.191C82.4368 230.029 82.1936 229.878 81.8246 229.738C81.461 229.598 80.9105 229.431 80.1725 229.235C79.3729 229.023 78.7439 228.802 78.2857 228.572C77.8268 228.344 77.4998 228.078 77.3045 227.776C77.1086 227.474 77.011 227.108 77.011 226.677C77.011 226.146 77.156 225.682 77.4471 225.285C77.7376 224.883 78.1431 224.572 78.663 224.354C79.1884 224.136 79.7976 224.027 80.4912 224.027C81.1789 224.027 81.7934 224.136 82.3361 224.354C82.8782 224.572 83.3143 224.883 83.6443 225.285C83.9798 225.682 84.178 226.146 84.2397 226.677L82.7135 226.954C82.6404 226.467 82.4056 226.085 82.0091 225.805C81.6173 225.526 81.1118 225.377 80.4912 225.361C79.9042 225.338 79.4262 225.442 79.0572 225.671C78.6936 225.9 78.5121 226.211 78.5121 226.602C78.5121 226.82 78.5792 227.007 78.7134 227.164C78.8529 227.32 79.1075 227.468 79.4765 227.608C79.8509 227.748 80.393 227.907 81.1034 228.086C81.9024 228.287 82.5314 228.508 82.9902 228.748C83.4539 228.983 83.7839 229.263 83.9798 229.587C84.1751 229.906 84.2733 230.3 84.2733 230.77C84.2733 231.642 83.9516 232.329 83.3089 232.832C82.6656 233.33 81.7797 233.579 80.6505 233.579ZM86.114 233.336L86.1224 221.26H87.6319V228.639L91.4308 224.279H93.3679L89.3678 228.807L93.8375 233.336H91.7494L87.6319 228.975V233.336H86.114ZM97.9299 233.579C96.8511 233.579 95.9652 233.344 95.2716 232.874C94.5839 232.399 94.1622 231.737 94.0053 230.887L95.5315 230.644C95.6549 231.136 95.937 231.527 96.3785 231.818C96.8206 232.103 97.3681 232.245 98.0222 232.245C98.6427 232.245 99.1291 232.117 99.4813 231.86C99.8335 231.603 100.01 231.254 100.01 230.811C100.01 230.554 99.9509 230.348 99.8335 230.191C99.7161 230.029 99.4729 229.878 99.104 229.738C98.741 229.598 98.1899 229.431 97.4519 229.235C96.6529 229.023 96.0239 228.802 95.5651 228.572C95.1068 228.344 94.7798 228.078 94.5839 227.776C94.3886 227.474 94.2904 227.108 94.2904 226.677C94.2904 226.146 94.4359 225.682 94.7265 225.285C95.0176 224.883 95.4225 224.572 95.9424 224.354C96.4684 224.136 97.0775 224.027 97.7706 224.027C98.4582 224.027 99.0734 224.136 99.6155 224.354C100.158 224.572 100.594 224.883 100.924 225.285C101.259 225.682 101.458 226.146 101.519 226.677L99.9929 226.954C99.9204 226.467 99.6856 226.085 99.2885 225.805C98.8973 225.526 98.3911 225.377 97.7706 225.361C97.1836 225.338 96.7056 225.442 96.3366 225.671C95.9736 225.9 95.7915 226.211 95.7915 226.602C95.7915 226.82 95.8586 227.007 95.9927 227.164C96.1329 227.32 96.3869 227.468 96.7559 227.608C97.1309 227.748 97.6729 227.907 98.3828 228.086C99.1824 228.287 99.8114 228.508 100.27 228.748C100.734 228.983 101.064 229.263 101.259 229.587C101.455 229.906 101.553 230.3 101.553 230.77C101.553 231.642 101.232 232.329 100.588 232.832C99.9456 233.33 99.0596 233.579 97.9299 233.579Z" fill="#8D8D8D"/>
<path d="M201.479 233.336V221.26H206.251C206.368 221.26 206.508 221.266 206.67 221.277C206.833 221.283 206.989 221.299 207.14 221.327C207.794 221.427 208.342 221.651 208.783 221.998C209.231 222.345 209.566 222.784 209.79 223.314C210.014 223.84 210.125 224.424 210.125 225.067C210.125 226.001 209.882 226.811 209.396 227.499C208.909 228.181 208.196 228.609 207.257 228.782L206.687 228.874H202.972V233.336H201.479ZM208.666 233.336L206.284 228.421L207.76 227.969L210.377 233.336H208.666ZM202.972 227.457H206.201C206.307 227.457 206.427 227.452 206.561 227.44C206.701 227.429 206.833 227.41 206.955 227.382C207.341 227.292 207.654 227.13 207.895 226.895C208.141 226.655 208.32 226.375 208.431 226.057C208.543 225.732 208.599 225.402 208.599 225.067C208.599 224.732 208.543 224.405 208.431 224.086C208.32 223.762 208.141 223.48 207.895 223.239C207.654 222.999 207.341 222.836 206.955 222.752C206.833 222.719 206.701 222.7 206.561 222.694C206.427 222.683 206.307 222.677 206.201 222.677H202.972V227.457ZM216.149 233.587C215.26 233.587 214.483 233.392 213.817 233C213.158 232.604 212.643 232.053 212.274 231.348C211.905 230.638 211.721 229.811 211.721 228.866C211.721 227.876 211.902 227.021 212.266 226.3C212.63 225.573 213.135 225.014 213.784 224.623C214.438 224.226 215.204 224.027 216.082 224.027C216.993 224.027 217.767 224.237 218.405 224.656C219.047 225.075 219.528 225.674 219.847 226.451C220.171 227.228 220.311 228.153 220.266 229.226H218.757V228.69C218.74 227.577 218.514 226.747 218.078 226.199C217.641 225.646 216.993 225.369 216.132 225.369C215.21 225.369 214.508 225.665 214.027 226.258C213.546 226.851 213.306 227.7 213.306 228.807C213.306 229.875 213.546 230.702 214.027 231.289C214.508 231.876 215.193 232.17 216.082 232.17C216.68 232.17 217.2 232.033 217.641 231.759C218.083 231.485 218.43 231.091 218.681 230.577L220.115 231.071C219.763 231.871 219.232 232.492 218.522 232.933C217.818 233.369 217.026 233.587 216.149 233.587ZM212.803 229.226V228.027H219.495V229.226H212.803ZM225.555 233.579C224.476 233.579 223.59 233.344 222.897 232.874C222.209 232.399 221.787 231.737 221.63 230.887L223.156 230.644C223.279 231.136 223.562 231.527 224.003 231.818C224.445 232.103 224.993 232.245 225.647 232.245C226.268 232.245 226.754 232.117 227.106 231.86C227.459 231.603 227.635 231.253 227.635 230.811C227.635 230.554 227.576 230.348 227.459 230.191C227.341 230.029 227.098 229.878 226.729 229.738C226.365 229.598 225.815 229.431 225.077 229.235C224.277 229.023 223.648 228.802 223.19 228.572C222.732 228.344 222.405 228.078 222.209 227.776C222.013 227.474 221.915 227.108 221.915 226.677C221.915 226.146 222.061 225.682 222.351 225.285C222.642 224.883 223.047 224.572 223.567 224.354C224.093 224.136 224.703 224.027 225.396 224.027C226.083 224.027 226.698 224.136 227.24 224.354C227.783 224.572 228.219 224.883 228.549 225.285C228.884 225.682 229.082 226.146 229.144 226.677L227.618 226.954C227.545 226.467 227.311 226.085 226.913 225.805C226.522 225.526 226.016 225.377 225.396 225.361C224.809 225.338 224.331 225.442 223.962 225.671C223.598 225.9 223.416 226.21 223.416 226.602C223.416 226.82 223.484 227.007 223.618 227.164C223.757 227.32 224.012 227.468 224.381 227.608C224.755 227.748 225.298 227.907 226.008 228.086C226.807 228.287 227.436 228.508 227.895 228.748C228.359 228.983 228.688 229.263 228.884 229.587C229.08 229.906 229.178 230.3 229.178 230.769C229.178 231.642 228.856 232.329 228.213 232.832C227.571 233.33 226.684 233.579 225.555 233.579ZM234.466 233.57C233.884 233.57 233.384 233.478 232.965 233.294C232.551 233.109 232.207 232.864 231.933 232.556C231.659 232.248 231.444 231.908 231.287 231.533C231.13 231.158 231.019 230.775 230.952 230.384C230.89 229.993 230.86 229.627 230.86 229.285V224.279H232.369V228.816C232.369 229.241 232.408 229.652 232.487 230.048C232.564 230.445 232.696 230.803 232.881 231.122C233.071 231.44 233.322 231.692 233.635 231.876C233.954 232.061 234.351 232.153 234.826 232.153C235.201 232.153 235.541 232.089 235.849 231.96C236.157 231.832 236.42 231.642 236.638 231.39C236.856 231.133 237.023 230.809 237.141 230.417C237.258 230.026 237.317 229.57 237.317 229.05L238.298 229.352C238.298 230.224 238.139 230.977 237.82 231.608C237.507 232.24 237.062 232.726 236.487 233.067C235.916 233.403 235.243 233.57 234.466 233.57ZM237.485 233.336V230.912H237.317V224.279H238.818V233.336H237.485ZM241.333 233.336V221.008H242.826V233.336H241.333ZM250.399 233.336C249.862 233.442 249.331 233.484 248.806 233.461C248.286 233.445 247.822 233.342 247.414 233.151C247.006 232.956 246.695 232.654 246.483 232.245C246.304 231.888 246.206 231.527 246.189 231.164C246.178 230.795 246.173 230.378 246.173 229.914V221.763H247.665V229.847C247.665 230.216 247.668 230.532 247.674 230.795C247.685 231.058 247.744 231.284 247.85 231.474C248.051 231.832 248.37 232.042 248.806 232.103C249.247 232.165 249.779 232.148 250.399 232.053V233.336ZM244.336 225.511V224.279H250.399V225.511H244.336ZM255.659 233.579C254.58 233.579 253.694 233.344 253.001 232.874C252.313 232.399 251.891 231.737 251.735 230.887L253.261 230.644C253.384 231.136 253.666 231.527 254.108 231.818C254.55 232.103 255.098 232.245 255.752 232.245C256.372 232.245 256.859 232.117 257.211 231.86C257.563 231.603 257.739 231.253 257.739 230.811C257.739 230.554 257.681 230.348 257.563 230.191C257.446 230.029 257.203 229.878 256.834 229.738C256.47 229.598 255.919 229.431 255.181 229.235C254.382 229.023 253.753 228.802 253.295 228.572C252.836 228.344 252.509 228.078 252.313 227.776C252.118 227.474 252.02 227.108 252.02 226.677C252.02 226.146 252.165 225.682 252.456 225.285C252.747 224.883 253.152 224.572 253.672 224.354C254.197 224.136 254.807 224.027 255.5 224.027C256.188 224.027 256.802 224.136 257.345 224.354C257.887 224.572 258.323 224.883 258.653 225.285C258.989 225.682 259.187 226.146 259.249 226.677L257.722 226.954C257.649 226.467 257.415 226.085 257.018 225.805C256.626 225.526 256.121 225.377 255.5 225.361C254.913 225.338 254.435 225.442 254.066 225.671C253.703 225.9 253.521 226.21 253.521 226.602C253.521 226.82 253.588 227.007 253.722 227.164C253.862 227.32 254.116 227.468 254.485 227.608C254.86 227.748 255.402 227.907 256.112 228.086C256.911 228.287 257.54 228.508 257.999 228.748C258.463 228.983 258.793 229.263 258.989 229.587C259.184 229.906 259.282 230.3 259.282 230.769C259.282 231.642 258.961 232.329 258.318 232.832C257.675 233.33 256.789 233.579 255.659 233.579Z" fill="#8D8D8D"/>
<path d="M132.272 301.009C132.506 301.243 132.885 301.243 133.119 301.009L136.931 297.197C137.165 296.963 137.165 296.584 136.931 296.35C136.697 296.116 136.318 296.116 136.084 296.35L132.695 299.738L129.307 296.35C129.073 296.116 128.694 296.116 128.46 296.35C128.226 296.584 128.226 296.963 128.46 297.197L132.272 301.009ZM132.096 299.972V300.586H133.294V299.972H132.096Z" fill="#8D8D8D"/>
<path d="M49.759 364.765C50.2269 364.298 50.2269 363.539 49.759 363.071L42.135 355.447C41.6671 354.979 40.9086 354.979 40.4408 355.447C39.9729 355.915 39.9729 356.674 40.4408 357.141L47.2177 363.918L40.4408 370.695C39.9729 371.163 39.9729 371.922 40.4408 372.39C40.9086 372.857 41.6671 372.857 42.135 372.39L49.759 364.765ZM48.2984 365.116H48.9119V362.72H48.2984V365.116Z" fill="#8D8D8D"/>
<path d="M73.4338 441.788V429.712H78.2055C78.3229 429.712 78.4625 429.718 78.6248 429.729C78.7865 429.735 78.9434 429.752 79.0944 429.779C79.7485 429.88 80.296 430.104 80.7381 430.45C81.1849 430.797 81.5203 431.236 81.7444 431.767C81.9678 432.293 82.0798 432.877 82.0798 433.519C82.0798 434.453 81.8366 435.264 81.3502 435.951C80.8638 436.634 80.151 437.061 79.2118 437.234L78.6416 437.327H74.9265V441.788H73.4338ZM80.6207 441.788L78.239 436.874L79.715 436.421L82.3314 441.788H80.6207ZM74.9265 435.909H78.1552C78.2612 435.909 78.3816 435.904 78.5158 435.893C78.6553 435.882 78.7865 435.862 78.9099 435.834C79.2957 435.745 79.6083 435.582 79.8491 435.348C80.0947 435.107 80.2738 434.828 80.3858 434.509C80.4973 434.185 80.5536 433.855 80.5536 433.519C80.5536 433.184 80.4973 432.857 80.3858 432.538C80.2738 432.214 80.0947 431.932 79.8491 431.691C79.6083 431.451 79.2957 431.289 78.9099 431.205C78.7865 431.171 78.6553 431.152 78.5158 431.146C78.3816 431.135 78.2612 431.129 78.1552 431.129H74.9265V435.909ZM88.1028 442.04C87.2139 442.04 86.437 441.844 85.7715 441.453C85.112 441.056 84.5974 440.505 84.2284 439.801C83.8595 439.091 83.675 438.263 83.675 437.318C83.675 436.329 83.8571 435.473 84.2201 434.752C84.5836 434.026 85.0898 433.467 85.7379 433.075C86.392 432.678 87.1582 432.48 88.0357 432.48C88.9474 432.48 89.7213 432.689 90.3586 433.108C91.0019 433.528 91.4823 434.126 91.801 434.903C92.1257 435.681 92.2652 436.605 92.2203 437.679H90.7108V437.142C90.6941 436.03 90.4676 435.2 90.0316 434.652C89.5955 434.098 88.9474 433.821 88.086 433.821C87.1635 433.821 86.4621 434.118 85.9811 434.71C85.5007 435.303 85.2599 436.153 85.2599 437.26C85.2599 438.328 85.5007 439.155 85.9811 439.742C86.4621 440.329 87.1468 440.622 88.0357 440.622C88.6341 440.622 89.154 440.486 89.5955 440.211C90.0376 439.938 90.3838 439.544 90.6353 439.029L92.0694 439.524C91.7171 440.323 91.1864 440.944 90.476 441.385C89.7716 441.822 88.9809 442.04 88.1028 442.04ZM84.7568 437.679V436.48H91.4488V437.679H84.7568ZM98.0013 442.04C97.1513 442.04 96.4361 441.83 95.8544 441.411C95.2728 440.986 94.8314 440.413 94.5295 439.692C94.233 438.965 94.085 438.151 94.085 437.251C94.085 436.34 94.233 435.524 94.5295 434.802C94.8314 434.081 95.2728 433.514 95.8544 433.1C96.4415 432.687 97.1597 432.48 98.0097 432.48C98.8483 432.48 99.5695 432.689 100.173 433.108C100.782 433.522 101.25 434.09 101.574 434.811C101.898 435.532 102.06 436.345 102.06 437.251C102.06 438.157 101.898 438.97 101.574 439.692C101.25 440.413 100.782 440.986 100.173 441.411C99.5695 441.83 98.8453 442.04 98.0013 442.04ZM93.8334 445.813V432.731H95.1668V439.398H95.3345V445.813H93.8334ZM97.8168 440.673C98.4152 440.673 98.9099 440.522 99.3011 440.22C99.6922 439.918 99.9858 439.51 100.182 438.995C100.378 438.476 100.475 437.895 100.475 437.251C100.475 436.614 100.378 436.038 100.182 435.524C99.9917 435.01 99.6952 434.601 99.2927 434.299C98.8956 433.997 98.39 433.846 97.7748 433.846C97.1878 433.846 96.7014 433.992 96.3157 434.283C95.9299 434.568 95.6418 434.968 95.4519 435.482C95.262 435.991 95.1668 436.58 95.1668 437.251C95.1668 437.911 95.259 438.501 95.4435 439.021C95.6334 439.535 95.9245 439.941 96.3157 440.237C96.7068 440.528 97.2076 440.673 97.8168 440.673ZM107.756 442.04C106.856 442.04 106.079 441.836 105.425 441.427C104.777 441.019 104.276 440.455 103.924 439.733C103.571 439.012 103.395 438.185 103.395 437.251C103.395 436.301 103.574 435.468 103.932 434.752C104.29 434.037 104.796 433.48 105.45 433.083C106.104 432.681 106.873 432.48 107.756 432.48C108.662 432.48 109.442 432.684 110.096 433.092C110.75 433.494 111.251 434.056 111.597 434.777C111.949 435.493 112.125 436.318 112.125 437.251C112.125 438.196 111.949 439.029 111.597 439.75C111.245 440.466 110.741 441.028 110.087 441.436C109.433 441.838 108.656 442.04 107.756 442.04ZM107.756 440.622C108.695 440.622 109.394 440.31 109.853 439.683C110.311 439.057 110.54 438.247 110.54 437.251C110.54 436.228 110.308 435.415 109.844 434.811C109.38 434.202 108.684 433.897 107.756 433.897C107.125 433.897 106.605 434.039 106.196 434.324C105.788 434.61 105.483 435.004 105.282 435.507C105.081 436.01 104.98 436.592 104.98 437.251C104.98 438.269 105.215 439.085 105.685 439.7C106.154 440.315 106.845 440.622 107.756 440.622ZM113.972 441.788V432.731H115.305V434.92L115.087 434.635C115.193 434.356 115.33 434.098 115.498 433.863C115.671 433.628 115.864 433.436 116.077 433.285C116.312 433.095 116.577 432.949 116.873 432.849C117.169 432.748 117.471 432.689 117.779 432.672C118.086 432.65 118.374 432.67 118.643 432.731V434.132C118.33 434.048 117.986 434.026 117.611 434.064C117.236 434.104 116.89 434.241 116.571 434.475C116.28 434.683 116.054 434.934 115.892 435.23C115.735 435.527 115.626 435.848 115.565 436.195C115.503 436.536 115.473 436.885 115.473 437.243V441.788H113.972ZM125.285 441.788C124.748 441.895 124.217 441.937 123.692 441.914C123.172 441.897 122.708 441.794 122.3 441.604C121.892 441.408 121.582 441.106 121.369 440.698C121.19 440.34 121.092 439.98 121.075 439.616C121.064 439.247 121.059 438.831 121.059 438.367V430.215H122.551V438.299C122.551 438.668 122.554 438.985 122.56 439.247C122.571 439.51 122.63 439.736 122.736 439.926C122.937 440.285 123.256 440.494 123.692 440.555C124.133 440.617 124.665 440.6 125.285 440.505V441.788ZM119.222 433.964V432.731H125.285V433.964H119.222ZM130.546 442.031C129.466 442.031 128.58 441.796 127.887 441.327C127.2 440.852 126.777 440.189 126.621 439.339L128.147 439.096C128.27 439.588 128.552 439.98 128.994 440.27C129.436 440.555 129.984 440.698 130.638 440.698C131.258 440.698 131.745 440.57 132.097 440.312C132.449 440.055 132.625 439.706 132.625 439.264C132.625 439.007 132.567 438.8 132.449 438.643C132.332 438.482 132.089 438.331 131.72 438.19C131.356 438.051 130.806 437.883 130.068 437.687C129.268 437.475 128.639 437.254 128.181 437.025C127.722 436.796 127.395 436.53 127.2 436.228C127.004 435.926 126.906 435.56 126.906 435.13C126.906 434.599 127.051 434.135 127.342 433.737C127.633 433.335 128.038 433.025 128.558 432.807C129.083 432.589 129.693 432.48 130.386 432.48C131.074 432.48 131.688 432.589 132.231 432.807C132.773 433.025 133.209 433.335 133.539 433.737C133.875 434.135 134.073 434.599 134.135 435.13L132.609 435.406C132.535 434.92 132.301 434.537 131.904 434.257C131.512 433.978 131.007 433.83 130.386 433.813C129.799 433.791 129.321 433.894 128.952 434.123C128.589 434.353 128.407 434.663 128.407 435.054C128.407 435.272 128.474 435.46 128.608 435.616C128.748 435.773 129.003 435.921 129.372 436.06C129.746 436.201 130.288 436.36 130.998 436.538C131.798 436.74 132.426 436.961 132.885 437.201C133.349 437.436 133.679 437.715 133.875 438.039C134.07 438.358 134.168 438.752 134.168 439.222C134.168 440.094 133.847 440.782 133.204 441.285C132.561 441.783 131.675 442.031 130.546 442.031Z" fill="white" fill-opacity="0.8"/>
<path d="M49.759 436.646C50.2269 436.178 50.2269 435.419 49.759 434.951L42.135 427.327C41.6671 426.859 40.9086 426.859 40.4408 427.327C39.9729 427.795 39.9729 428.554 40.4408 429.022L47.2177 435.798L40.4408 442.575C39.9729 443.043 39.9729 443.801 40.4408 444.27C40.9086 444.737 41.6671 444.737 42.135 444.27L49.759 436.646ZM48.2984 436.996H48.9119V434.6H48.2984V436.996Z" fill="#8D8D8D"/>
<path d="M37.376 400.458H323.698" stroke="#232121" stroke-width="1.198"/>
<path d="M37.376 472.338H323.698" stroke="#232121" stroke-width="1.198"/>
<path d="M314.135 369.165V365.504H310.474V364.095H314.135V360.444H315.544V364.095H319.195V365.504H315.544V369.165H314.135Z" fill="#2F00FF"/>
<path d="M314.135 441.046V437.385H310.474V435.976H314.135V432.324H315.544V435.976H319.195V437.385H315.544V441.046H314.135Z" fill="#2F00FF"/>
<path d="M301.727 51.2396V48.4219H304.545V51.2396H301.727ZM309.476 51.2396V48.4219H312.294V51.2396H309.476ZM317.226 51.2396V48.4219H320.044V51.2396H317.226Z" fill="white"/>
</g>
</g>
</g>
</g>
<defs>
<filter id="filter0_d_74_934" x="0.239132" y="114.85" width="191.68" height="191.68" filterUnits="userSpaceOnUse" color-interpolation-filters="sRGB">
<feFlood flood-opacity="0" result="BackgroundImageFix"/>
<feColorMatrix in="SourceAlpha" type="matrix" values="0 0 0 0 0 0 0 0 0 0 0 0 0 0 0 0 0 0 127 0" result="hardAlpha"/>
<feOffset dy="14.376"/>
<feGaussianBlur stdDeviation="17.97"/>
<feComposite in2="hardAlpha" operator="out"/>
<feColorMatrix type="matrix" values="0 0 0 0 0.0875 0 0 0 0 0.0875 0 0 0 0 0.0875 0 0 0 1 0"/>
<feBlend mode="normal" in2="BackgroundImageFix" result="effect1_dropShadow_74_934"/>
<feBlend mode="normal" in="SourceGraphic" in2="effect1_dropShadow_74_934" result="shape"/>
</filter>
<filter id="filter1_d_74_934" x="143.998" y="114.85" width="191.68" height="191.68" filterUnits="userSpaceOnUse" color-interpolation-filters="sRGB">
<feFlood flood-opacity="0" result="BackgroundImageFix"/>
<feColorMatrix in="SourceAlpha" type="matrix" values="0 0 0 0 0 0 0 0 0 0 0 0 0 0 0 0 0 0 127 0" result="hardAlpha"/>
<feOffset dy="14.376"/>
<feGaussianBlur stdDeviation="17.97"/>
<feComposite in2="hardAlpha" operator="out"/>
<feColorMatrix type="matrix" values="0 0 0 0 0.0875 0 0 0 0 0.0875 0 0 0 0 0.0875 0 0 0 1 0"/>
<feBlend mode="normal" in2="BackgroundImageFix" result="effect1_dropShadow_74_934"/>
<feBlend mode="normal" in="SourceGraphic" in2="effect1_dropShadow_74_934" result="shape"/>
</filter>
<filter id="filter2_d_74_934" x="287.758" y="114.85" width="191.68" height="191.68" filterUnits="userSpaceOnUse" color-interpolation-filters="sRGB">
<feFlood flood-opacity="0" result="BackgroundImageFix"/>
<feColorMatrix in="SourceAlpha" type="matrix" values="0 0 0 0 0 0 0 0 0 0 0 0 0 0 0 0 0 0 127 0" result="hardAlpha"/>
<feOffset dy="14.376"/>
<feGaussianBlur stdDeviation="17.97"/>
<feComposite in2="hardAlpha" operator="out"/>
<feColorMatrix type="matrix" values="0 0 0 0 0.0875 0 0 0 0 0.0875 0 0 0 0 0.0875 0 0 0 1 0"/>
<feBlend mode="normal" in2="BackgroundImageFix" result="effect1_dropShadow_74_934"/>
<feBlend mode="normal" in="SourceGraphic" in2="effect1_dropShadow_74_934" result="shape"/>
</filter>
<clipPath id="clip0_74_934">
<rect width="360" height="527.72" fill="white" transform="translate(0 0.440186)"/>
</clipPath>
<clipPath id="clip1_74_934">
<rect width="360" height="527.72" fill="white" transform="translate(0 0.440186)"/>
</clipPath>
<clipPath id="clip2_74_934">
<rect width="360" height="527.72" fill="white" transform="translate(0.000244141 0.440186)"/>
</clipPath>
</defs>
</svg>
