<svg width="360" height="563" viewBox="0 0 360 563" fill="none" xmlns="http://www.w3.org/2000/svg">
<g clip-path="url(#clip0_15_2270)">
<g clip-path="url(#clip1_15_2270)">
<g clip-path="url(#clip2_15_2270)">
<mask id="mask0_15_2270" style="mask-type:luminance" maskUnits="userSpaceOnUse" x="0" y="0" width="360" height="563">
<path d="M359.783 0.515381H0.381958V562.876H359.783V0.515381Z" fill="white"/>
</mask>
<g mask="url(#mask0_15_2270)">
<path d="M335.823 1.15454H24.342C11.4401 1.15454 0.980957 12.3129 0.980957 26.0774V537.315C0.980957 551.079 11.4401 562.237 24.342 562.237H335.823C348.725 562.237 359.184 551.079 359.184 537.315V26.0774C359.184 12.3129 348.725 1.15454 335.823 1.15454Z" fill="url(#paint0_linear_15_2270)" stroke="#2F00FF" stroke-width="1.198"/>
<g filter="url(#filter0_d_15_2270)">
<path d="M144.002 145.064H48.1617C41.5453 145.064 36.1816 150.786 36.1816 157.845V260.092C36.1816 267.151 41.5453 272.873 48.1617 272.873H144.002C150.618 272.873 155.982 267.151 155.982 260.092V157.845C155.982 150.786 150.618 145.064 144.002 145.064Z" fill="#232121"/>
</g>
<g filter="url(#filter1_d_15_2270)">
<path d="M287.761 145.064H191.921C185.304 145.064 179.941 150.786 179.941 157.845V260.092C179.941 267.151 185.304 272.873 191.921 272.873H287.761C294.377 272.873 299.741 267.151 299.741 260.092V157.845C299.741 150.786 294.377 145.064 287.761 145.064Z" fill="#232121"/>
</g>
<g filter="url(#filter2_d_15_2270)">
<path d="M431.521 145.064H335.681C329.065 145.064 323.701 150.786 323.701 157.845V260.092C323.701 267.151 329.065 272.873 335.681 272.873H431.521C438.138 272.873 443.501 267.151 443.501 260.092V157.845C443.501 150.786 438.138 145.064 431.521 145.064Z" fill="#232121"/>
</g>
<path d="M40.0024 56.9175V45.8748H43.1436C43.2538 45.8748 43.4407 45.8773 43.7043 45.8824C43.9726 45.8875 44.229 45.908 44.4734 45.9438C45.2593 46.0614 45.9158 46.3732 46.4429 46.8793C46.97 47.3855 47.3654 48.0296 47.6289 48.8118C47.8925 49.594 48.0243 50.4554 48.0243 51.3961C48.0243 52.3368 47.8925 53.1982 47.6289 53.9804C47.3654 54.7626 46.97 55.4068 46.4429 55.9129C45.9158 56.419 45.2593 56.7309 44.4734 56.8485C44.2338 56.8791 43.9774 56.8996 43.7043 56.9098C43.4311 56.9149 43.2442 56.9175 43.1436 56.9175H40.0024ZM41.095 55.8362H43.1436C43.3401 55.8362 43.5509 55.8311 43.7762 55.8209C44.0062 55.8055 44.2026 55.78 44.3656 55.7442C44.9694 55.6317 45.4558 55.371 45.8247 54.962C46.1985 54.553 46.4717 54.0418 46.6442 53.4283C46.8167 52.8097 46.9029 52.1323 46.9029 51.3961C46.9029 50.6548 46.8167 49.9749 46.6442 49.3563C46.4717 48.7377 46.1985 48.2264 45.8247 47.8226C45.451 47.4187 44.9646 47.1605 44.3656 47.048C44.2026 47.0123 44.0038 46.9893 43.769 46.979C43.5389 46.9637 43.3305 46.956 43.1436 46.956H41.095V55.8362ZM51.8824 57.1475C51.2978 57.1475 50.8066 57.0351 50.4089 56.8101C50.016 56.5852 49.7212 56.2861 49.5248 55.9129C49.3283 55.5397 49.2301 55.1333 49.2301 54.6936C49.2301 54.2437 49.3139 53.8603 49.4816 53.5433C49.6542 53.2212 49.8866 52.9579 50.1789 52.7535C50.476 52.549 50.8186 52.393 51.2068 52.2857C51.5997 52.1834 52.0334 52.094 52.5078 52.0173C52.987 51.9355 53.4542 51.8665 53.9095 51.8102C54.3695 51.7489 54.772 51.6901 55.1171 51.6338L54.7433 51.8792C54.7576 51.0613 54.6091 50.4554 54.2976 50.0618C53.9861 49.6681 53.4446 49.4713 52.6731 49.4713C52.1412 49.4713 51.6908 49.5991 51.3218 49.8547C50.9576 50.1104 50.7012 50.5142 50.5527 51.0664L49.5248 50.7443C49.7021 50.003 50.0591 49.4279 50.5958 49.0189C51.1325 48.6099 51.8297 48.4054 52.6875 48.4054C53.3967 48.4054 53.9981 48.5485 54.4917 48.8348C54.9901 49.116 55.3423 49.525 55.5483 50.0618C55.6442 50.3021 55.7065 50.5705 55.7352 50.867C55.764 51.1635 55.7783 51.4651 55.7783 51.7719V56.9175H54.8367V54.8393L55.1099 54.962C54.8463 55.6726 54.4366 56.2145 53.8807 56.5877C53.3248 56.9609 52.6587 57.1475 51.8824 57.1475ZM52.0046 56.1736C52.4982 56.1736 52.9295 56.0791 53.2985 55.8899C53.6675 55.7007 53.9646 55.4426 54.1898 55.1154C54.415 54.7831 54.5612 54.4099 54.6283 53.9958C54.6858 53.7299 54.7169 53.4385 54.7217 53.1215C54.7265 52.7995 54.7289 52.5592 54.7289 52.4007L55.1314 52.6231C54.772 52.6742 54.3815 52.7253 53.9598 52.7765C53.5429 52.8276 53.1308 52.8864 52.7234 52.9528C52.3209 53.0193 51.9567 53.0985 51.6309 53.1906C51.4104 53.257 51.1972 53.3516 50.9911 53.4743C50.7851 53.5919 50.615 53.7504 50.4808 53.9497C50.3514 54.1491 50.2867 54.3971 50.2867 54.6936C50.2867 54.9339 50.3418 55.1665 50.452 55.3914C50.567 55.6164 50.7491 55.803 50.9983 55.9512C51.2523 56.0995 51.5877 56.1736 52.0046 56.1736ZM60.5464 57.1399C59.6359 57.1399 58.886 56.9303 58.2966 56.5111C57.7119 56.0918 57.3525 55.509 57.2183 54.7626L58.2966 54.5709C58.4116 55.0412 58.6727 55.417 59.08 55.6982C59.4922 55.9742 60.0001 56.1123 60.6039 56.1123C61.1933 56.1123 61.6581 55.9819 61.9984 55.7212C62.3386 55.4553 62.5087 55.0949 62.5087 54.6399C62.5087 54.3843 62.4536 54.1773 62.3434 54.0188C62.238 53.8552 62.0199 53.7044 61.6893 53.5663C61.3586 53.4283 60.8651 53.2647 60.2086 53.0755C59.5041 52.871 58.9531 52.6665 58.5553 52.4621C58.1576 52.2576 57.8748 52.0224 57.7071 51.7565C57.5394 51.4856 57.4555 51.1558 57.4555 50.7673C57.4555 50.297 57.5801 49.8854 57.8293 49.5327C58.0785 49.1748 58.4235 48.8987 58.8644 48.7045C59.3053 48.5051 59.818 48.4054 60.4026 48.4054C60.9873 48.4054 61.5096 48.5076 61.9696 48.7121C62.4345 48.9115 62.8082 49.1927 63.091 49.5557C63.3737 49.9186 63.5414 50.3404 63.5941 50.821L62.5159 51.028C62.444 50.5424 62.2164 50.1589 61.8331 49.8777C61.4545 49.5915 60.9729 49.4432 60.3883 49.433C59.8372 49.4176 59.3891 49.5301 59.0441 49.7704C58.6991 50.0056 58.5266 50.32 58.5266 50.7136C58.5266 50.9335 58.5889 51.1226 58.7135 51.2811C58.838 51.4345 59.0633 51.5802 59.3891 51.7182C59.7198 51.8562 60.1894 52.0071 60.798 52.1706C61.512 52.3649 62.0727 52.5694 62.48 52.7841C62.8873 52.9988 63.1772 53.2519 63.3497 53.5433C63.5222 53.8347 63.6085 54.1951 63.6085 54.6246C63.6085 55.4068 63.3354 56.0228 62.7891 56.4727C62.2476 56.9175 61.5 57.1399 60.5464 57.1399ZM70.8097 56.9175V52.6921C70.8097 52.232 70.769 51.8102 70.6875 51.4268C70.606 51.0383 70.4743 50.7008 70.2922 50.4145C70.1149 50.1231 69.8824 49.8982 69.5949 49.7397C69.3122 49.5812 68.9672 49.502 68.5598 49.502C68.1861 49.502 67.8554 49.571 67.5679 49.709C67.2852 49.8471 67.0456 50.0465 66.8491 50.3072C66.6574 50.5628 66.5113 50.8747 66.4106 51.2427C66.31 51.6108 66.2597 52.0301 66.2597 52.5004L65.5121 52.324C65.5121 51.4754 65.6511 50.7622 65.929 50.1845C66.207 49.6068 66.5903 49.1697 67.0791 48.8732C67.5679 48.5766 68.1286 48.4284 68.7611 48.4284C69.2259 48.4284 69.6309 48.5051 69.9759 48.6584C70.3257 48.8118 70.6204 49.0189 70.86 49.2796C71.1044 49.5403 71.3009 49.8394 71.4494 50.1768C71.598 50.5091 71.7058 50.8644 71.7729 51.2427C71.84 51.616 71.8735 51.9892 71.8735 52.3624V56.9175H70.8097ZM65.1958 56.9175V45.8748H66.1519V52.1093H66.2597V56.9175H65.1958ZM77.225 57.1475C76.511 57.1475 75.9072 56.9558 75.4136 56.5724C74.92 56.1839 74.5463 55.6598 74.2923 55.0003C74.0383 54.3357 73.9113 53.5919 73.9113 52.7688C73.9113 51.9304 74.0383 51.184 74.2923 50.5296C74.5511 49.8701 74.9296 49.3512 75.428 48.9729C75.9264 48.5945 76.5397 48.4054 77.2681 48.4054C77.9773 48.4054 78.5859 48.5971 79.0939 48.9805C79.6018 49.364 79.99 49.8854 80.2583 50.5449C80.5315 51.2044 80.6681 51.9457 80.6681 52.7688C80.6681 53.597 80.5315 54.3408 80.2583 55.0003C79.9852 55.6598 79.5923 56.1839 79.0795 56.5724C78.5668 56.9558 77.9486 57.1475 77.225 57.1475ZM73.7316 56.9175V45.8748H74.7954V50.6829H74.6804V56.9175H73.7316ZM77.1172 56.0969C77.6587 56.0969 78.1091 55.9512 78.4685 55.6598C78.8279 55.3684 79.0963 54.9722 79.2736 54.4712C79.4557 53.9651 79.5467 53.3976 79.5467 52.7688C79.5467 52.1451 79.4581 51.5827 79.2808 51.0817C79.1035 50.5807 78.8327 50.1845 78.4685 49.8931C78.1091 49.6017 77.6515 49.456 77.0956 49.456C76.5541 49.456 76.1037 49.5966 75.7443 49.8777C75.3897 50.1589 75.1237 50.55 74.9464 51.051C74.7691 51.5469 74.6804 52.1195 74.6804 52.7688C74.6804 53.4078 74.7691 53.9804 74.9464 54.4866C75.1237 54.9876 75.3921 55.3812 75.7515 55.6675C76.1109 55.9538 76.5661 56.0969 77.1172 56.0969ZM85.4882 57.1475C84.7167 57.1475 84.0578 56.9609 83.5115 56.5877C82.9652 56.2145 82.5459 55.6982 82.2536 55.0387C81.9613 54.3792 81.8152 53.6226 81.8152 52.7688C81.8152 51.8997 81.9637 51.1379 82.2608 50.4836C82.5579 49.8292 82.9796 49.3205 83.5259 48.9575C84.077 48.5894 84.7311 48.4054 85.4882 48.4054C86.2645 48.4054 86.9258 48.592 87.4721 48.9652C88.0232 49.3333 88.4425 49.8471 88.73 50.5066C89.0223 51.161 89.1685 51.915 89.1685 52.7688C89.1685 53.6379 89.0223 54.4022 88.73 55.0617C88.4377 55.7161 88.016 56.2273 87.4649 56.5954C86.9138 56.9635 86.255 57.1475 85.4882 57.1475ZM85.4882 56.0663C86.3508 56.0663 86.9929 55.7621 87.4146 55.1537C87.8363 54.5402 88.0472 53.7453 88.0472 52.7688C88.0472 51.7668 87.8339 50.9692 87.4074 50.3762C86.9857 49.7832 86.346 49.4866 85.4882 49.4866C84.9084 49.4866 84.4292 49.6272 84.0506 49.9084C83.6768 50.1845 83.3965 50.5705 83.2096 51.0664C83.0275 51.5572 82.9365 52.1246 82.9365 52.7688C82.9365 53.7657 83.1521 54.5658 83.5834 55.1691C84.0147 55.7672 84.6496 56.0663 85.4882 56.0663ZM92.9752 57.1475C92.3905 57.1475 91.8993 57.0351 91.5016 56.8101C91.1087 56.5852 90.8139 56.2861 90.6175 55.9129C90.421 55.5397 90.3228 55.1333 90.3228 54.6936C90.3228 54.2437 90.4066 53.8603 90.5744 53.5433C90.7469 53.2212 90.9793 52.9579 91.2716 52.7535C91.5687 52.549 91.9113 52.393 92.2995 52.2857C92.6924 52.1834 93.1261 52.094 93.6005 52.0173C94.0797 51.9355 94.5469 51.8665 95.0022 51.8102C95.4622 51.7489 95.8647 51.6901 96.2098 51.6338L95.836 51.8792C95.8504 51.0613 95.7018 50.4554 95.3903 50.0618C95.0788 49.6681 94.5373 49.4713 93.7658 49.4713C93.2339 49.4713 92.7835 49.5991 92.4145 49.8547C92.0503 50.1104 91.7939 50.5142 91.6454 51.0664L90.6175 50.7443C90.7948 50.003 91.1518 49.4279 91.6885 49.0189C92.2252 48.6099 92.9224 48.4054 93.7802 48.4054C94.4894 48.4054 95.0908 48.5485 95.5844 48.8348C96.0828 49.116 96.435 49.525 96.641 50.0618C96.7369 50.3021 96.7992 50.5705 96.8279 50.867C96.8567 51.1635 96.8711 51.4651 96.8711 51.7719V56.9175H95.9294V54.8393L96.2026 54.962C95.939 55.6726 95.5293 56.2145 94.9734 56.5877C94.4175 56.9609 93.7515 57.1475 92.9752 57.1475ZM93.0973 56.1736C93.5909 56.1736 94.0222 56.0791 94.3912 55.8899C94.7602 55.7007 95.0573 55.4426 95.2825 55.1154C95.5077 54.7831 95.6539 54.4099 95.721 53.9958C95.7785 53.7299 95.8096 53.4385 95.8144 53.1215C95.8192 52.7995 95.8216 52.5592 95.8216 52.4007L96.2241 52.6231C95.8647 52.6742 95.4742 52.7253 95.0525 52.7765C94.6356 52.8276 94.2235 52.8864 93.8162 52.9528C93.4136 53.0193 93.0494 53.0985 92.7236 53.1906C92.5031 53.257 92.2899 53.3516 92.0838 53.4743C91.8778 53.5919 91.7077 53.7504 91.5735 53.9497C91.4441 54.1491 91.3794 54.3971 91.3794 54.6936C91.3794 54.9339 91.4345 55.1665 91.5447 55.3914C91.6597 55.6164 91.8418 55.803 92.091 55.9512C92.345 56.0995 92.6804 56.1736 93.0973 56.1736ZM98.7423 56.9175V48.6354H99.6912V50.6293L99.5043 50.3685C99.5905 50.1231 99.7031 49.8982 99.8421 49.6937C99.9811 49.4841 100.132 49.3128 100.295 49.1799C100.496 48.9908 100.731 48.8476 100.999 48.7505C101.268 48.6482 101.538 48.5894 101.812 48.5741C102.085 48.5536 102.334 48.5741 102.559 48.6354V49.6937C102.276 49.617 101.967 49.5991 101.632 49.64C101.296 49.6809 100.987 49.8241 100.705 50.0695C100.446 50.2842 100.252 50.5424 100.122 50.844C99.9931 51.1405 99.9068 51.4575 99.8637 51.7949C99.8205 52.1272 99.799 52.4569 99.799 52.7841V56.9175H98.7423ZM106.794 57.1475C106.071 57.1475 105.452 56.9558 104.94 56.5724C104.427 56.1839 104.034 55.6598 103.761 55.0003C103.488 54.3408 103.351 53.597 103.351 52.7688C103.351 51.9457 103.485 51.2044 103.754 50.5449C104.027 49.8854 104.417 49.364 104.925 48.9805C105.433 48.5971 106.042 48.4054 106.751 48.4054C107.479 48.4054 108.093 48.5945 108.591 48.9729C109.089 49.3512 109.466 49.8701 109.72 50.5296C109.978 51.184 110.108 51.9304 110.108 52.7688C110.108 53.5919 109.981 54.3357 109.727 55.0003C109.473 55.6598 109.099 56.1839 108.605 56.5724C108.112 56.9558 107.508 57.1475 106.794 57.1475ZM106.902 56.0969C107.453 56.0969 107.908 55.9538 108.268 55.6675C108.627 55.3812 108.895 54.9876 109.073 54.4866C109.25 53.9804 109.339 53.4078 109.339 52.7688C109.339 52.1195 109.25 51.5469 109.073 51.051C108.895 50.55 108.627 50.1589 108.268 49.8777C107.913 49.5966 107.465 49.456 106.924 49.456C106.368 49.456 105.908 49.6017 105.543 49.8931C105.179 50.1845 104.908 50.5807 104.731 51.0817C104.559 51.5827 104.472 52.1451 104.472 52.7688C104.472 53.3976 104.561 53.9651 104.738 54.4712C104.92 54.9722 105.191 55.3684 105.551 55.6598C105.91 55.9512 106.36 56.0969 106.902 56.0969ZM109.339 56.9175V50.6829H109.224V45.8748H110.287V56.9175H109.339Z" fill="#2F00FF"/>
<path d="M42.6895 128.548C41.9994 128.548 41.4076 128.343 40.9141 127.934C40.4205 127.525 40.0874 126.978 39.9149 126.293L40.9716 126.025C41.0578 126.429 41.2567 126.771 41.5682 127.052C41.8844 127.328 42.2558 127.466 42.6823 127.466C42.9507 127.466 43.2214 127.397 43.4946 127.259C43.7725 127.121 43.9905 126.894 44.1487 126.577C44.2541 126.357 44.314 126.119 44.3284 125.864C44.3475 125.603 44.3571 125.291 44.3571 124.928V117.282H45.4209V124.928C45.4209 125.235 45.4185 125.513 45.4138 125.764C45.409 126.009 45.3826 126.247 45.3347 126.477C45.2916 126.702 45.2077 126.93 45.0831 127.16C44.8339 127.625 44.4985 127.972 44.0768 128.203C43.6599 128.433 43.1974 128.548 42.6895 128.548ZM50.5585 128.532C50.0936 128.532 49.6863 128.456 49.3365 128.302C48.9915 128.149 48.6968 127.942 48.4524 127.681C48.2128 127.42 48.0187 127.124 47.8701 126.792C47.7216 126.454 47.6138 126.099 47.5467 125.726C47.4796 125.347 47.446 124.972 47.446 124.598V120.043H48.5099V124.269C48.5099 124.724 48.5506 125.145 48.6321 125.534C48.7135 125.922 48.8429 126.262 49.0202 126.554C49.2023 126.84 49.4347 127.062 49.7175 127.221C50.005 127.379 50.3524 127.459 50.7597 127.459C51.1335 127.459 51.4618 127.39 51.7445 127.252C52.032 127.114 52.2716 126.917 52.4633 126.661C52.6598 126.4 52.8083 126.086 52.9089 125.718C53.0096 125.345 53.0599 124.925 53.0599 124.46L53.8074 124.637C53.8074 125.485 53.6685 126.198 53.3905 126.776C53.1126 127.354 52.7292 127.791 52.2405 128.087C51.7517 128.384 51.191 128.532 50.5585 128.532ZM53.1677 128.325V126.285H53.0599V120.043H54.1165V128.325H53.1677ZM65.3839 128.325L65.3911 122.888C65.3911 122.249 65.2234 121.748 64.888 121.385C64.5573 121.017 64.1356 120.833 63.6229 120.833C63.3306 120.833 63.0454 120.905 62.7675 121.048C62.4896 121.191 62.2595 121.421 62.0774 121.738C61.9001 122.055 61.8115 122.469 61.8115 122.98L61.1861 122.789C61.1717 122.195 61.2796 121.677 61.5096 121.232C61.7444 120.787 62.0655 120.442 62.4728 120.197C62.8849 119.946 63.3497 119.821 63.8673 119.821C64.6484 119.821 65.2737 120.079 65.7433 120.595C66.2129 121.107 66.4478 121.799 66.4478 122.673L66.4406 128.325H65.3839ZM56.1184 128.325V120.043H57.0672V122.083H57.1822V128.325H56.1184ZM60.762 128.325L60.7692 122.965C60.7692 122.305 60.6039 121.786 60.2732 121.408C59.9474 121.025 59.5159 120.833 58.9792 120.833C58.4425 120.833 58.0088 121.03 57.6782 121.424C57.3475 121.812 57.1822 122.331 57.1822 122.98L56.5497 122.612C56.5497 122.08 56.6671 121.605 56.9019 121.186C57.1367 120.761 57.4578 120.429 57.8651 120.189C58.2724 119.943 58.7348 119.821 59.2524 119.821C59.7459 119.821 60.1846 119.933 60.568 120.158C60.9561 120.383 61.2604 120.71 61.4808 121.14C61.7013 121.569 61.8115 122.091 61.8115 122.704L61.8043 128.325H60.762ZM71.7974 128.555C71.0834 128.555 70.4796 128.364 69.9861 127.98C69.4925 127.592 69.1187 127.068 68.8647 126.408C68.6108 125.743 68.4838 125 68.4838 124.177C68.4838 123.338 68.6108 122.592 68.8647 121.937C69.1235 121.278 69.5021 120.759 70.0004 120.381C70.4988 120.002 71.1122 119.813 71.8406 119.813C72.5498 119.813 73.1584 120.005 73.6663 120.388C74.1743 120.772 74.5624 121.293 74.8308 121.953C75.1039 122.612 75.2405 123.353 75.2405 124.177C75.2405 125.005 75.1039 125.749 74.8308 126.408C74.5576 127.068 74.1647 127.592 73.652 127.98C73.1392 128.364 72.521 128.555 71.7974 128.555ZM68.3041 132.006V120.043H69.2529V126.278H69.3679V132.006H68.3041ZM71.6896 127.505C72.2311 127.505 72.6816 127.359 73.041 127.068C73.4004 126.776 73.6687 126.38 73.846 125.879C74.0281 125.373 74.1192 124.805 74.1192 124.177C74.1192 123.553 74.0305 122.99 73.8532 122.489C73.6759 121.988 73.4052 121.592 73.041 121.301C72.6816 121.009 72.2239 120.864 71.6681 120.864C71.1266 120.864 70.6761 121.004 70.3167 121.285C69.9621 121.567 69.6961 121.958 69.5188 122.459C69.3415 122.955 69.2529 123.527 69.2529 124.177C69.2529 124.816 69.3415 125.388 69.5188 125.894C69.6961 126.395 69.9645 126.789 70.3239 127.075C70.6833 127.362 71.1385 127.505 71.6896 127.505ZM83.1833 128.555C82.4693 128.555 81.8655 128.364 81.3719 127.98C80.8783 127.592 80.5045 127.068 80.2505 126.408C79.9966 125.743 79.8696 125 79.8696 124.177C79.8696 123.338 79.9966 122.592 80.2505 121.937C80.5093 121.278 80.8879 120.759 81.3863 120.381C81.8846 120.002 82.498 119.813 83.2264 119.813C83.9356 119.813 84.5442 120.005 85.0521 120.388C85.5601 120.772 85.9483 121.293 86.2166 121.953C86.4898 122.612 86.6263 123.353 86.6263 124.177C86.6263 125.005 86.4898 125.749 86.2166 126.408C85.9435 127.068 85.5505 127.592 85.0378 127.98C84.525 128.364 83.9069 128.555 83.1833 128.555ZM79.6899 128.325V117.282H80.7537V122.091H80.6387V128.325H79.6899ZM83.0754 127.505C83.6169 127.505 84.0674 127.359 84.4268 127.068C84.7862 126.776 85.0545 126.38 85.2318 125.879C85.4139 125.373 85.505 124.805 85.505 124.177C85.505 123.553 85.4163 122.99 85.239 122.489C85.0617 121.988 84.791 121.592 84.4268 121.301C84.0674 121.009 83.6098 120.864 83.0539 120.864C82.5124 120.864 82.0619 121.004 81.7025 121.285C81.3479 121.567 81.082 121.958 80.9047 122.459C80.7274 122.955 80.6387 123.527 80.6387 124.177C80.6387 124.816 80.7274 125.388 80.9047 125.894C81.082 126.395 81.3503 126.789 81.7097 127.075C82.0691 127.362 82.5244 127.505 83.0754 127.505ZM90.4258 128.555C89.8412 128.555 89.35 128.443 88.9522 128.218C88.5593 127.993 88.2646 127.694 88.0681 127.321C87.8717 126.947 87.7734 126.541 87.7734 126.101C87.7734 125.651 87.8573 125.268 88.025 124.951C88.1975 124.629 88.4299 124.366 88.7222 124.161C89.0193 123.957 89.362 123.801 89.7501 123.693C90.1431 123.591 90.5767 123.502 91.0512 123.425C91.5303 123.343 91.9976 123.274 92.4528 123.218C92.9128 123.157 93.3154 123.098 93.6604 123.042L93.2866 123.287C93.301 122.469 93.1525 121.863 92.841 121.47C92.5295 121.076 91.988 120.879 91.2165 120.879C90.6846 120.879 90.2341 121.007 89.8651 121.262C89.5009 121.518 89.2446 121.922 89.096 122.474L88.0681 122.152C88.2454 121.411 88.6024 120.836 89.1391 120.427C89.6758 120.018 90.3731 119.813 91.2309 119.813C91.9401 119.813 92.5415 119.956 93.035 120.243C93.5334 120.524 93.8856 120.933 94.0917 121.47C94.1875 121.71 94.2498 121.978 94.2786 122.275C94.3073 122.571 94.3217 122.873 94.3217 123.18V128.325H93.3801V126.247L93.6532 126.37C93.3896 127.08 92.9799 127.622 92.4241 127.995C91.8682 128.369 91.2021 128.555 90.4258 128.555ZM90.548 127.581C91.0416 127.581 91.4729 127.487 91.8418 127.298C92.2108 127.108 92.5079 126.85 92.7331 126.523C92.9584 126.191 93.1045 125.818 93.1716 125.404C93.2291 125.138 93.2603 124.846 93.2651 124.529C93.2699 124.207 93.2722 123.967 93.2722 123.808L93.6748 124.031C93.3154 124.082 92.9248 124.133 92.5031 124.184C92.0862 124.235 91.6741 124.294 91.2668 124.361C90.8643 124.427 90.5001 124.506 90.1742 124.598C89.9538 124.665 89.7405 124.759 89.5345 124.882C89.3284 125 89.1583 125.158 89.0241 125.357C88.8947 125.557 88.8301 125.805 88.8301 126.101C88.8301 126.342 88.8852 126.574 88.9954 126.799C89.1104 127.024 89.2925 127.211 89.5417 127.359C89.7956 127.507 90.1311 127.581 90.548 127.581ZM99.4132 128.555C98.6321 128.555 97.9708 128.369 97.4293 127.995C96.8878 127.622 96.4757 127.108 96.193 126.454C95.915 125.795 95.7713 125.038 95.7617 124.184C95.7713 123.315 95.9198 122.553 96.2074 121.899C96.4949 121.239 96.9094 120.728 97.4509 120.365C97.9924 119.997 98.6489 119.813 99.4204 119.813C100.206 119.813 100.889 120.018 101.469 120.427C102.054 120.836 102.454 121.395 102.669 122.106L101.634 122.459C101.452 121.963 101.162 121.579 100.765 121.308C100.372 121.032 99.9212 120.894 99.4132 120.894C98.843 120.894 98.3709 121.035 97.9972 121.316C97.6234 121.592 97.3455 121.978 97.1634 122.474C96.9813 122.97 96.8878 123.54 96.883 124.184C96.8926 125.176 97.1082 125.974 97.5299 126.577C97.9516 127.175 98.5794 127.474 99.4132 127.474C99.9403 127.474 100.388 127.346 100.757 127.091C101.131 126.83 101.414 126.452 101.606 125.956L102.669 126.293C102.382 127.029 101.96 127.592 101.404 127.98C100.848 128.364 100.185 128.555 99.4132 128.555ZM104.146 128.325L104.153 117.282H105.217V124.031L108.682 120.043H110.09L106.453 124.184L110.565 128.325H109.027L105.217 124.338V128.325H104.146ZM114.307 118.471V117.206H115.363V118.471H114.307ZM114.307 128.325V120.043H115.363V128.325H114.307ZM123.125 128.325V124.1C123.125 123.64 123.085 123.218 123.003 122.835C122.922 122.446 122.79 122.109 122.608 121.822C122.43 121.531 122.198 121.306 121.911 121.147C121.628 120.989 121.283 120.91 120.875 120.91C120.502 120.91 120.171 120.979 119.883 121.117C119.601 121.255 119.361 121.454 119.165 121.715C118.973 121.971 118.827 122.282 118.726 122.65C118.626 123.019 118.575 123.438 118.575 123.908L117.828 123.732C117.828 122.883 117.967 122.17 118.245 121.592C118.523 121.015 118.906 120.577 119.395 120.281C119.883 119.984 120.444 119.836 121.077 119.836C121.542 119.836 121.946 119.913 122.291 120.066C122.641 120.22 122.936 120.427 123.176 120.687C123.42 120.948 123.616 121.247 123.765 121.585C123.914 121.917 124.021 122.272 124.088 122.65C124.156 123.024 124.189 123.397 124.189 123.77V128.325H123.125ZM117.511 128.325V120.043H118.467V122.083H118.575V128.325H117.511Z" fill="#8D8D8D"/>
<path d="M43.1423 322.595L40.1521 311.552H41.2519L43.6742 320.67L46.0822 311.56L47.1892 311.552L49.6115 320.67L52.0195 311.552H53.1265L50.1434 322.595H49.0796L46.6357 313.538L44.2061 322.595H43.1423ZM56.7561 322.825C55.9846 322.825 55.3256 322.638 54.7794 322.265C54.2331 321.892 53.8138 321.375 53.5215 320.716C53.2291 320.056 53.083 319.3 53.083 318.446C53.083 317.577 53.2315 316.815 53.5286 316.161C53.8257 315.506 54.2474 314.998 54.7937 314.635C55.3448 314.267 55.9989 314.083 56.7561 314.083C57.5324 314.083 58.1937 314.269 58.74 314.642C59.291 315.011 59.7103 315.524 59.9977 316.184C60.29 316.838 60.4362 317.592 60.4362 318.446C60.4362 319.315 60.29 320.079 59.9977 320.739C59.7055 321.393 59.2839 321.905 58.7328 322.273C58.1817 322.641 57.5228 322.825 56.7561 322.825ZM56.7561 321.744C57.6186 321.744 58.2608 321.439 58.6825 320.831C59.1042 320.217 59.315 319.422 59.315 318.446C59.315 317.444 59.1018 316.646 58.6753 316.053C58.2536 315.46 57.6138 315.164 56.7561 315.164C56.1762 315.164 55.697 315.304 55.3185 315.586C54.9447 315.862 54.6644 316.248 54.4775 316.744C54.2954 317.234 54.2043 317.802 54.2043 318.446C54.2043 319.443 54.42 320.243 54.8512 320.846C55.2825 321.444 55.9175 321.744 56.7561 321.744ZM62.0217 322.595V314.313H62.9705V316.307L62.7836 316.046C62.8699 315.8 62.9825 315.575 63.1215 315.371C63.2604 315.161 63.4114 314.99 63.5743 314.857C63.7756 314.668 64.0104 314.525 64.2787 314.428C64.5471 314.325 64.8179 314.267 65.091 314.251C65.3641 314.231 65.6133 314.251 65.8385 314.313V315.371C65.5558 315.294 65.2467 315.276 64.9113 315.317C64.5759 315.358 64.2668 315.501 63.984 315.747C63.7253 315.961 63.5312 316.22 63.4018 316.521C63.2724 316.818 63.1862 317.135 63.143 317.472C63.0999 317.804 63.0784 318.134 63.0784 318.461V322.595H62.0217ZM67.1953 322.595L67.2025 311.552H68.2663V318.3L71.7309 314.313H73.1398L69.5026 318.454L73.6142 322.595H72.076L68.2663 318.607V322.595H67.1953ZM77.0908 322.817C76.1803 322.817 75.4304 322.608 74.8409 322.188C74.2563 321.769 73.8969 321.186 73.7627 320.44L74.8409 320.248C74.956 320.718 75.2171 321.094 75.6244 321.375C76.0366 321.651 76.5445 321.79 77.1483 321.79C77.7377 321.79 78.2025 321.659 78.5428 321.398C78.883 321.133 79.0531 320.772 79.0531 320.317C79.0531 320.062 78.998 319.854 78.8878 319.696C78.7824 319.532 78.5643 319.382 78.2337 319.244C77.903 319.106 77.4095 318.942 76.753 318.753C76.0485 318.548 75.4975 318.344 75.0997 318.139C74.702 317.935 74.4192 317.7 74.2515 317.434C74.0838 317.163 73.9999 316.833 73.9999 316.445C73.9999 315.974 74.1245 315.563 74.3737 315.21C74.6229 314.852 74.9679 314.576 75.4088 314.382C75.8497 314.182 76.3624 314.083 76.947 314.083C77.5317 314.083 78.054 314.185 78.514 314.389C78.9789 314.589 79.3526 314.87 79.6354 315.233C79.9181 315.596 80.0858 316.018 80.1385 316.498L79.0603 316.705C78.9884 316.22 78.7608 315.836 78.3774 315.555C77.9989 315.269 77.5173 315.12 76.9327 315.11C76.3816 315.095 75.9335 315.207 75.5885 315.448C75.2435 315.683 75.071 315.997 75.071 316.391C75.071 316.611 75.1333 316.8 75.2579 316.958C75.3824 317.112 75.6077 317.257 75.9335 317.395C76.2642 317.533 76.7338 317.684 77.3424 317.848C78.0564 318.042 78.617 318.247 79.0244 318.461C79.4317 318.676 79.7216 318.929 79.8941 319.221C80.0666 319.512 80.1529 319.872 80.1529 320.302C80.1529 321.084 79.8797 321.7 79.3335 322.15C78.792 322.595 78.0444 322.817 77.0908 322.817ZM85.233 322.825C84.519 322.825 83.9152 322.633 83.4216 322.25C82.9281 321.861 82.5543 321.337 82.3003 320.678C82.0463 320.013 81.9193 319.269 81.9193 318.446C81.9193 317.608 82.0463 316.861 82.3003 316.207C82.5591 315.547 82.9376 315.028 83.436 314.65C83.9344 314.272 84.5478 314.083 85.2761 314.083C85.9854 314.083 86.594 314.274 87.1019 314.658C87.6099 315.041 87.998 315.563 88.2664 316.222C88.5395 316.882 88.6761 317.623 88.6761 318.446C88.6761 319.274 88.5395 320.018 88.2664 320.678C87.9932 321.337 87.6003 321.861 87.0875 322.25C86.5748 322.633 85.9566 322.825 85.233 322.825ZM81.7396 326.276V314.313H82.6885V320.547H82.8035V326.276H81.7396ZM85.1252 321.774C85.6667 321.774 86.1172 321.628 86.4766 321.337C86.836 321.046 87.1043 320.649 87.2816 320.148C87.4637 319.642 87.5547 319.075 87.5547 318.446C87.5547 317.822 87.4661 317.26 87.2888 316.759C87.1115 316.258 86.8407 315.862 86.4766 315.57C86.1172 315.279 85.6595 315.133 85.1036 315.133C84.5621 315.133 84.1117 315.274 83.7523 315.555C83.3977 315.836 83.1317 316.227 82.9544 316.728C82.7771 317.224 82.6885 317.797 82.6885 318.446C82.6885 319.085 82.7771 319.658 82.9544 320.164C83.1317 320.665 83.4001 321.058 83.7595 321.345C84.1189 321.631 84.5741 321.774 85.1252 321.774ZM92.4756 322.825C91.8909 322.825 91.3997 322.712 91.002 322.487C90.6091 322.262 90.3144 321.963 90.1179 321.59C89.9214 321.217 89.8232 320.811 89.8232 320.371C89.8232 319.921 89.907 319.538 90.0747 319.221C90.2473 318.898 90.4797 318.635 90.772 318.431C91.0691 318.226 91.4117 318.07 91.7999 317.963C92.1928 317.861 92.6265 317.771 93.1009 317.695C93.5801 317.613 94.0473 317.544 94.5026 317.487C94.9626 317.426 95.3651 317.367 95.7102 317.311L95.3364 317.556C95.3508 316.739 95.2022 316.133 94.8907 315.739C94.5792 315.345 94.0377 315.149 93.2662 315.149C92.7343 315.149 92.2839 315.276 91.9149 315.532C91.5507 315.788 91.2943 316.191 91.1458 316.744L90.1179 316.422C90.2952 315.68 90.6522 315.105 91.1889 314.696C91.7256 314.287 92.4228 314.083 93.2806 314.083C93.9898 314.083 94.5912 314.226 95.0848 314.512C95.5832 314.793 95.9354 315.202 96.1414 315.739C96.2373 315.979 96.2996 316.248 96.3283 316.544C96.3571 316.841 96.3715 317.142 96.3715 317.449V322.595H95.4298V320.517L95.703 320.639C95.4394 321.35 95.0297 321.892 94.4738 322.265C93.9179 322.638 93.2519 322.825 92.4756 322.825ZM92.5977 321.851C93.0913 321.851 93.5226 321.756 93.8916 321.567C94.2606 321.378 94.5577 321.12 94.7829 320.793C95.0081 320.46 95.1543 320.087 95.2214 319.673C95.2789 319.407 95.31 319.116 95.3148 318.799C95.3196 318.477 95.322 318.236 95.322 318.078L95.7245 318.3C95.3651 318.351 94.9746 318.403 94.5529 318.454C94.136 318.505 93.7239 318.564 93.3165 318.63C92.914 318.697 92.5498 318.776 92.224 318.868C92.0035 318.934 91.7903 319.029 91.5842 319.152C91.3782 319.269 91.2081 319.428 91.0739 319.627C90.9445 319.826 90.8798 320.074 90.8798 320.371C90.8798 320.611 90.9349 320.844 91.0451 321.069C91.1601 321.294 91.3422 321.48 91.5914 321.628C91.8454 321.777 92.1808 321.851 92.5977 321.851ZM101.463 322.825C100.682 322.825 100.021 322.638 99.4791 322.265C98.9376 321.892 98.5255 321.378 98.2427 320.724C97.9648 320.064 97.821 319.307 97.8115 318.454C97.821 317.585 97.9696 316.823 98.2571 316.168C98.5446 315.509 98.9591 314.998 99.5006 314.635C100.042 314.267 100.699 314.083 101.47 314.083C102.256 314.083 102.939 314.287 103.519 314.696C104.103 315.105 104.504 315.665 104.719 316.376L103.684 316.728C103.502 316.232 103.212 315.849 102.814 315.578C102.421 315.302 101.971 315.164 101.463 315.164C100.893 315.164 100.421 315.304 100.047 315.586C99.6732 315.862 99.3952 316.248 99.2131 316.744C99.031 317.24 98.9376 317.81 98.9328 318.454C98.9424 319.445 99.158 320.243 99.5797 320.846C100.001 321.444 100.629 321.744 101.463 321.744C101.99 321.744 102.438 321.616 102.807 321.36C103.181 321.099 103.464 320.721 103.655 320.225L104.719 320.563C104.432 321.299 104.01 321.861 103.454 322.25C102.898 322.633 102.234 322.825 101.463 322.825ZM109.278 322.825C108.52 322.825 107.864 322.646 107.308 322.288C106.757 321.93 106.328 321.427 106.021 320.777C105.715 320.128 105.561 319.366 105.561 318.492C105.561 317.587 105.712 316.805 106.014 316.145C106.316 315.486 106.74 314.977 107.286 314.619C107.838 314.262 108.487 314.083 109.234 314.083C110.001 314.083 110.655 314.272 111.197 314.65C111.738 315.023 112.148 315.56 112.426 316.261C112.704 316.961 112.831 317.797 112.807 318.768H111.729V318.369C111.709 317.296 111.491 316.485 111.075 315.938C110.662 315.391 110.059 315.118 109.263 315.118C108.429 315.118 107.79 315.407 107.344 315.984C106.903 316.562 106.683 317.385 106.683 318.454C106.683 319.497 106.903 320.307 107.344 320.885C107.79 321.457 108.42 321.744 109.234 321.744C109.79 321.744 110.274 321.608 110.686 321.337C111.103 321.061 111.432 320.665 111.671 320.148L112.656 320.555C112.349 321.276 111.896 321.836 111.297 322.234C110.703 322.628 110.03 322.825 109.278 322.825ZM106.309 318.768V317.825H112.239V318.768H106.309Z" fill="#8D8D8D"/>
<path d="M73.4363 394.168V381.285H78.2079C78.3253 381.285 78.4649 381.291 78.6272 381.303C78.789 381.309 78.9459 381.327 79.0968 381.356C79.751 381.464 80.2984 381.703 80.7405 382.072C81.1874 382.442 81.5228 382.91 81.7468 383.477C81.9703 384.038 82.0823 384.661 82.0823 385.346C82.0823 386.026 81.9673 386.65 81.7384 387.216C81.5144 387.777 81.179 388.245 80.7321 388.621C80.2901 388.991 79.745 389.229 79.0968 389.337C78.9459 389.361 78.789 389.379 78.6272 389.39C78.4649 389.402 78.3253 389.408 78.2079 389.408H74.929V394.168H73.4363ZM74.929 387.896H78.1576C78.2636 387.896 78.384 387.89 78.5182 387.878C78.6578 387.867 78.789 387.846 78.9124 387.816C79.2981 387.72 79.6108 387.547 79.8516 387.297C80.0972 387.041 80.2763 386.742 80.3883 386.402C80.4997 386.056 80.556 385.704 80.556 385.346C80.556 384.989 80.4997 384.64 80.3883 384.3C80.2763 383.954 80.0972 383.653 79.8516 383.396C79.6108 383.14 79.2981 382.967 78.9124 382.877C78.789 382.841 78.6578 382.821 78.5182 382.814C78.384 382.803 78.2636 382.797 78.1576 382.797H74.929V387.896ZM83.7547 394.168V384.505H85.0881V386.84L84.87 386.536C84.9766 386.239 85.1132 385.964 85.2809 385.713C85.4546 385.463 85.6475 385.257 85.8596 385.096C86.0944 384.893 86.3603 384.738 86.6562 384.631C86.9527 384.523 87.2546 384.461 87.5619 384.443C87.8698 384.419 88.1573 384.44 88.4257 384.505V385.999C88.113 385.91 87.7692 385.886 87.3942 385.928C87.0198 385.97 86.673 386.116 86.3543 386.366C86.0638 386.587 85.8374 386.856 85.6751 387.171C85.5187 387.488 85.4097 387.831 85.348 388.2C85.2869 388.565 85.2558 388.937 85.2558 389.319V394.168H83.7547ZM93.7053 394.436C92.8056 394.436 92.0281 394.219 91.374 393.783C90.7259 393.348 90.2251 392.745 89.8729 391.976C89.5207 391.206 89.3446 390.324 89.3446 389.328C89.3446 388.314 89.5237 387.425 89.8813 386.662C90.2395 385.899 90.745 385.305 91.3991 384.881C92.0532 384.452 92.8224 384.237 93.7053 384.237C94.611 384.237 95.3909 384.455 96.045 384.89C96.6991 385.32 97.1999 385.919 97.5461 386.688C97.8983 387.452 98.0744 388.332 98.0744 389.328C98.0744 390.336 97.8983 391.224 97.5461 391.994C97.1939 392.757 96.6907 393.357 96.0366 393.792C95.3825 394.221 94.6056 394.436 93.7053 394.436ZM93.7053 392.924C94.6445 392.924 95.3436 392.591 95.8018 391.922C96.2606 391.254 96.4895 390.39 96.4895 389.328C96.4895 388.236 96.2576 387.368 95.7934 386.724C95.3298 386.074 94.6337 385.749 93.7053 385.749C93.0739 385.749 92.554 385.901 92.1455 386.205C91.7376 386.509 91.4327 386.93 91.2314 387.467C91.0302 388.004 90.9295 388.624 90.9295 389.328C90.9295 390.413 91.1643 391.284 91.634 391.94C92.1036 392.596 92.7942 392.924 93.7053 392.924ZM98.5794 398.462V396.941H99.0658C99.5018 396.941 99.8343 396.825 100.064 396.592C100.293 396.36 100.408 395.99 100.408 395.483V384.505H101.9V396.029C101.9 396.822 101.707 397.424 101.322 397.836C100.941 398.254 100.376 398.462 99.6276 398.462H98.5794ZM100.408 382.797V381.15H101.9V382.797H100.408ZM108.251 394.436C107.363 394.436 106.586 394.228 105.92 393.81C105.261 393.387 104.746 392.799 104.377 392.047C104.008 391.29 103.824 390.408 103.824 389.399C103.824 388.344 104.005 387.431 104.369 386.662C104.732 385.886 105.238 385.29 105.887 384.872C106.541 384.449 107.307 384.237 108.184 384.237C109.095 384.237 109.87 384.461 110.507 384.908C111.15 385.355 111.631 385.994 111.95 386.823C112.274 387.652 112.414 388.639 112.369 389.784H110.86V389.211C110.843 388.025 110.616 387.139 110.18 386.554C109.744 385.964 109.095 385.668 108.235 385.668C107.312 385.668 106.611 385.985 106.13 386.617C105.649 387.249 105.409 388.156 105.409 389.337C105.409 390.476 105.649 391.359 106.13 391.985C106.611 392.611 107.295 392.924 108.184 392.924C108.783 392.924 109.303 392.779 109.744 392.486C110.186 392.194 110.532 391.773 110.784 391.224L112.218 391.752C111.866 392.605 111.335 393.267 110.625 393.738C109.92 394.204 109.129 394.436 108.251 394.436ZM104.905 389.784V388.505H111.597V389.784H104.905ZM118.052 394.436C117.135 394.436 116.355 394.219 115.712 393.783C115.075 393.342 114.588 392.736 114.253 391.967C113.917 391.197 113.744 390.321 113.733 389.337C113.744 388.329 113.92 387.443 114.261 386.679C114.608 385.91 115.103 385.311 115.746 384.881C116.388 384.452 117.163 384.237 118.068 384.237C119.024 384.237 119.846 384.488 120.534 384.989C121.227 385.49 121.691 386.176 121.926 387.046L120.45 387.52C120.26 386.96 119.95 386.525 119.519 386.214C119.095 385.904 118.605 385.749 118.052 385.749C117.431 385.749 116.92 385.904 116.517 386.214C116.115 386.518 115.816 386.942 115.62 387.485C115.424 388.021 115.323 388.639 115.318 389.337C115.329 390.41 115.561 391.278 116.014 391.94C116.472 392.596 117.151 392.924 118.052 392.924C118.644 392.924 119.137 392.781 119.528 392.495C119.919 392.203 120.215 391.782 120.417 391.233L121.926 391.654C121.613 392.555 121.124 393.244 120.459 393.72C119.793 394.198 118.991 394.436 118.052 394.436ZM128.694 394.168C128.157 394.282 127.627 394.326 127.101 394.302C126.581 394.284 126.117 394.174 125.709 393.971C125.301 393.763 124.991 393.441 124.778 393.005C124.599 392.623 124.501 392.239 124.484 391.851C124.474 391.457 124.468 391.013 124.468 390.518V381.821H125.96V390.446C125.96 390.84 125.963 391.177 125.969 391.457C125.98 391.738 126.039 391.979 126.145 392.182C126.346 392.564 126.665 392.787 127.101 392.853C127.543 392.918 128.074 392.901 128.694 392.799V394.168ZM122.631 385.821V384.505H128.694V385.821H122.631ZM133.955 394.427C132.876 394.427 131.989 394.177 131.296 393.676C130.609 393.169 130.186 392.462 130.03 391.555L131.556 391.296C131.679 391.821 131.962 392.238 132.403 392.548C132.845 392.853 133.393 393.005 134.047 393.005C134.667 393.005 135.154 392.868 135.506 392.593C135.858 392.319 136.034 391.946 136.034 391.475C136.034 391.201 135.976 390.98 135.858 390.813C135.741 390.64 135.498 390.479 135.129 390.33C134.765 390.181 134.215 390.002 133.477 389.793C132.677 389.567 132.048 389.331 131.59 389.086C131.132 388.842 130.804 388.558 130.609 388.236C130.413 387.914 130.315 387.524 130.315 387.064C130.315 386.498 130.461 386.003 130.751 385.579C131.042 385.15 131.447 384.819 131.967 384.586C132.492 384.353 133.102 384.237 133.795 384.237C134.483 384.237 135.098 384.353 135.64 384.586C136.182 384.819 136.618 385.15 136.948 385.579C137.284 386.003 137.482 386.498 137.544 387.064L136.018 387.359C135.945 386.84 135.71 386.432 135.313 386.134C134.922 385.836 134.416 385.677 133.795 385.66C133.208 385.636 132.73 385.746 132.361 385.991C131.998 386.235 131.816 386.566 131.816 386.984C131.816 387.216 131.883 387.416 132.017 387.583C132.157 387.75 132.412 387.908 132.781 388.057C133.155 388.207 133.698 388.377 134.407 388.567C135.207 388.782 135.836 389.018 136.294 389.274C136.759 389.524 137.088 389.823 137.284 390.169C137.48 390.509 137.577 390.929 137.577 391.43C137.577 392.361 137.256 393.094 136.613 393.631C135.97 394.162 135.084 394.427 133.955 394.427Z" fill="white" fill-opacity="0.8"/>
<path d="M62.0308 248.465V237.094H57.9135V235.582H67.641V237.094H63.5235V248.465H62.0308ZM70.3718 248.734C69.695 248.734 69.1277 248.603 68.6695 248.34C68.2166 248.072 67.8728 247.72 67.638 247.284C67.4086 246.849 67.2942 246.372 67.2942 245.853C67.2942 245.346 67.3834 244.908 67.5625 244.538C67.747 244.162 68.004 243.852 68.334 243.607C68.6635 243.357 69.0576 243.16 69.5165 243.017C69.9466 242.891 70.4276 242.784 70.9589 242.695C71.4956 242.599 72.0377 242.513 72.5858 242.435C73.1332 242.358 73.6448 242.283 74.1204 242.211L73.5837 242.543C73.6005 241.684 73.4381 241.048 73.0973 240.637C72.7619 240.225 72.1802 240.02 71.353 240.02C70.8049 240.02 70.3239 240.154 69.9106 240.422C69.5021 240.685 69.2146 241.114 69.0469 241.71L67.6296 241.254C67.8477 240.407 68.2694 239.742 68.8959 239.259C69.5219 238.776 70.3467 238.534 71.3698 238.534C72.1916 238.534 72.896 238.693 73.4831 239.009C74.0755 239.319 74.5002 239.79 74.7577 240.422C74.8859 240.721 74.9674 241.046 75.0009 241.397C75.0345 241.744 75.0513 242.107 75.0513 242.489V248.465H73.7263V246.148L74.0365 246.363C73.6951 247.144 73.2171 247.735 72.6025 248.134C71.9927 248.534 71.2494 248.734 70.3718 248.734ZM70.5983 247.401C71.135 247.401 71.5986 247.3 71.9904 247.096C72.3869 246.888 72.7056 246.616 72.9464 246.282C73.1866 245.942 73.3429 245.573 73.416 245.173C73.4998 244.875 73.5442 244.544 73.5501 244.18C73.5609 243.81 73.5669 243.527 73.5669 243.33L74.0869 243.571C73.6005 243.643 73.1225 243.712 72.6528 243.777C72.1832 243.843 71.7388 243.915 71.3195 243.992C70.9002 244.063 70.5228 244.15 70.1874 244.251C69.9412 244.335 69.7094 244.442 69.4913 244.573C69.2787 244.705 69.1056 244.875 68.9714 245.083C68.8426 245.287 68.7785 245.54 68.7785 245.844C68.7785 246.106 68.8396 246.357 68.963 246.595C69.0912 246.834 69.2871 247.028 69.55 247.177C69.8184 247.326 70.1676 247.401 70.5983 247.401ZM80.6531 248.725C79.5737 248.725 78.6878 248.474 77.9947 247.973C77.3071 247.466 76.8848 246.76 76.7285 245.853L78.2547 245.593C78.3775 246.119 78.6596 246.536 79.1017 246.846C79.5432 247.15 80.0912 247.302 80.7454 247.302C81.3659 247.302 81.8523 247.165 82.2045 246.891C82.5567 246.616 82.7329 246.244 82.7329 245.772C82.7329 245.498 82.6741 245.278 82.5567 245.11C82.4393 244.938 82.1961 244.777 81.8272 244.627C81.4636 244.478 80.9131 244.299 80.1751 244.09C79.3754 243.864 78.7465 243.628 78.2882 243.384C77.8294 243.139 77.5024 242.856 77.3071 242.534C77.1112 242.211 77.0136 241.821 77.0136 241.362C77.0136 240.795 77.1585 240.3 77.4497 239.876C77.7402 239.447 78.1457 239.116 78.6656 238.883C79.1909 238.651 79.8001 238.534 80.4938 238.534C81.1814 238.534 81.796 238.651 82.3387 238.883C82.8808 239.116 83.3169 239.447 83.6469 239.876C83.9824 240.3 84.1806 240.795 84.2423 241.362L82.7161 241.657C82.643 241.138 82.4082 240.73 82.0116 240.431C81.6199 240.133 81.1143 239.975 80.4938 239.957C79.9068 239.933 79.4288 240.044 79.0598 240.288C78.6962 240.533 78.5147 240.864 78.5147 241.281C78.5147 241.514 78.5818 241.714 78.7159 241.88C78.8555 242.048 79.1101 242.206 79.4791 242.355C79.8534 242.504 80.3955 242.674 81.106 242.865C81.905 243.079 82.534 243.315 82.9928 243.571C83.4564 243.822 83.7865 244.12 83.9824 244.466C84.1776 244.806 84.2759 245.227 84.2759 245.728C84.2759 246.658 83.9542 247.392 83.3115 247.928C82.6682 248.459 81.7822 248.725 80.6531 248.725ZM86.1166 248.465L86.125 235.582H87.6345V243.455L91.4333 238.803H93.3705L89.3704 243.634L93.8401 248.465H91.752L87.6345 243.813V248.465H86.1166ZM97.9325 248.725C96.8537 248.725 95.9678 248.474 95.2741 247.973C94.5865 247.466 94.1648 246.76 94.0079 245.853L95.5341 245.593C95.6575 246.119 95.9396 246.536 96.3811 246.846C96.8232 247.15 97.3706 247.302 98.0248 247.302C98.6453 247.302 99.1317 247.165 99.4839 246.891C99.8361 246.616 100.012 246.244 100.012 245.772C100.012 245.498 99.9535 245.278 99.8361 245.11C99.7187 244.938 99.4755 244.777 99.1066 244.627C98.7436 244.478 98.1925 244.299 97.4545 244.09C96.6554 243.864 96.0265 243.628 95.5676 243.384C95.1094 243.139 94.7824 242.856 94.5865 242.534C94.3912 242.211 94.293 241.821 94.293 241.362C94.293 240.795 94.4385 240.3 94.7291 239.876C95.0202 239.447 95.4251 239.116 95.945 238.883C96.4709 238.651 97.0801 238.534 97.7732 238.534C98.4608 238.534 99.076 238.651 99.6181 238.883C100.161 239.116 100.597 239.447 100.926 239.876C101.262 240.3 101.461 240.795 101.522 241.362L99.9955 241.657C99.923 241.138 99.6882 240.73 99.291 240.431C98.8999 240.133 98.3937 239.975 97.7732 239.957C97.1862 239.933 96.7082 240.044 96.3392 240.288C95.9762 240.533 95.7941 240.864 95.7941 241.281C95.7941 241.514 95.8612 241.714 95.9953 241.88C96.1355 242.048 96.3895 242.206 96.7585 242.355C97.1334 242.504 97.6755 242.674 98.3854 242.865C99.185 243.079 99.814 243.315 100.272 243.571C100.736 243.822 101.066 244.12 101.262 244.466C101.458 244.806 101.555 245.227 101.555 245.728C101.555 246.658 101.234 247.392 100.591 247.928C99.9482 248.459 99.0622 248.725 97.9325 248.725Z" fill="#8D8D8D"/>
<path d="M201.482 248.465V235.582H206.254C206.371 235.582 206.511 235.589 206.673 235.6C206.835 235.606 206.992 235.624 207.143 235.654C207.797 235.761 208.345 236 208.786 236.369C209.234 236.739 209.569 237.208 209.792 237.774C210.017 238.335 210.128 238.958 210.128 239.644C210.128 240.64 209.885 241.505 209.398 242.238C208.912 242.966 208.199 243.423 207.26 243.607L206.69 243.706H202.975V248.465H201.482ZM208.669 248.465L206.287 243.223L207.763 242.739L210.38 248.465H208.669ZM202.975 242.194H206.203C206.31 242.194 206.43 242.188 206.564 242.176C206.704 242.164 206.835 242.143 206.958 242.113C207.344 242.018 207.657 241.845 207.897 241.594C208.143 241.338 208.323 241.04 208.434 240.7C208.546 240.354 208.602 240.002 208.602 239.644C208.602 239.286 208.546 238.937 208.434 238.597C208.323 238.251 208.143 237.95 207.897 237.694C207.657 237.437 207.344 237.264 206.958 237.175C206.835 237.139 206.704 237.118 206.564 237.112C206.43 237.1 206.31 237.094 206.203 237.094H202.975V242.194ZM216.151 248.734C215.263 248.734 214.486 248.525 213.82 248.107C213.161 247.684 212.646 247.096 212.277 246.345C211.908 245.588 211.724 244.705 211.724 243.697C211.724 242.641 211.905 241.728 212.269 240.959C212.632 240.184 213.138 239.588 213.787 239.17C214.441 238.747 215.207 238.535 216.084 238.535C216.995 238.535 217.77 238.758 218.407 239.206C219.05 239.653 219.531 240.291 219.85 241.12C220.174 241.95 220.314 242.936 220.269 244.081H218.76V243.509C218.743 242.322 218.516 241.436 218.08 240.852C217.644 240.261 216.995 239.966 216.135 239.966C215.212 239.966 214.511 240.282 214.03 240.914C213.549 241.547 213.309 242.453 213.309 243.634C213.309 244.774 213.549 245.656 214.03 246.282C214.511 246.909 215.195 247.222 216.084 247.222C216.683 247.222 217.203 247.076 217.644 246.783C218.086 246.491 218.432 246.071 218.684 245.522L220.118 246.05C219.766 246.903 219.235 247.565 218.525 248.036C217.82 248.501 217.029 248.734 216.151 248.734ZM212.805 244.081V242.802H219.497V244.081H212.805ZM225.558 248.725C224.479 248.725 223.592 248.474 222.899 247.973C222.212 247.466 221.789 246.76 221.633 245.853L223.159 245.593C223.282 246.119 223.565 246.536 224.006 246.846C224.448 247.15 224.996 247.302 225.65 247.302C226.27 247.302 226.757 247.165 227.109 246.891C227.461 246.617 227.637 246.244 227.637 245.772C227.637 245.498 227.579 245.278 227.461 245.11C227.344 244.938 227.101 244.777 226.732 244.627C226.368 244.478 225.818 244.299 225.08 244.09C224.28 243.864 223.651 243.628 223.193 243.384C222.735 243.139 222.407 242.856 222.212 242.534C222.016 242.212 221.918 241.821 221.918 241.362C221.918 240.795 222.064 240.3 222.354 239.877C222.645 239.447 223.05 239.116 223.57 238.883C224.095 238.651 224.705 238.535 225.398 238.535C226.086 238.535 226.701 238.651 227.243 238.883C227.785 239.116 228.221 239.447 228.551 239.877C228.887 240.3 229.085 240.795 229.147 241.362L227.621 241.657C227.548 241.138 227.313 240.73 226.916 240.431C226.525 240.133 226.019 239.975 225.398 239.957C224.811 239.933 224.333 240.044 223.964 240.288C223.601 240.533 223.419 240.864 223.419 241.281C223.419 241.514 223.486 241.714 223.62 241.881C223.76 242.048 224.015 242.206 224.384 242.355C224.758 242.504 225.301 242.674 226.01 242.865C226.81 243.079 227.439 243.315 227.897 243.571C228.362 243.822 228.691 244.12 228.887 244.466C229.083 244.806 229.18 245.227 229.18 245.728C229.18 246.658 228.859 247.392 228.216 247.928C227.573 248.46 226.687 248.725 225.558 248.725ZM234.468 248.716C233.887 248.716 233.387 248.617 232.967 248.421C232.553 248.224 232.21 247.962 231.936 247.633C231.661 247.305 231.446 246.942 231.29 246.542C231.133 246.142 231.022 245.734 230.955 245.316C230.893 244.899 230.862 244.508 230.862 244.144V238.803H232.372V243.643C232.372 244.097 232.411 244.535 232.489 244.958C232.567 245.382 232.699 245.763 232.883 246.103C233.073 246.443 233.325 246.712 233.638 246.909C233.957 247.105 234.353 247.204 234.829 247.204C235.203 247.204 235.544 247.135 235.852 246.998C236.159 246.861 236.422 246.658 236.64 246.39C236.858 246.116 237.026 245.77 237.143 245.352C237.261 244.935 237.32 244.448 237.32 243.894L238.301 244.216C238.301 245.146 238.141 245.949 237.823 246.622C237.509 247.296 237.065 247.815 236.489 248.179C235.919 248.537 235.245 248.716 234.468 248.716ZM237.487 248.465V245.88H237.32V238.803H238.821V248.465H237.487ZM241.336 248.465V235.314H242.829V248.465H241.336ZM250.402 248.465C249.865 248.579 249.334 248.624 248.808 248.599C248.289 248.582 247.824 248.472 247.416 248.268C247.008 248.06 246.698 247.738 246.486 247.302C246.306 246.921 246.209 246.536 246.192 246.148C246.181 245.754 246.175 245.31 246.175 244.815V236.119H247.668V244.743C247.668 245.137 247.671 245.475 247.676 245.754C247.688 246.035 247.746 246.277 247.852 246.479C248.054 246.861 248.372 247.085 248.808 247.15C249.25 247.216 249.781 247.198 250.402 247.096V248.465ZM244.339 240.118V238.803H250.402V240.118H244.339ZM255.662 248.725C254.583 248.725 253.697 248.474 253.004 247.973C252.316 247.466 251.894 246.76 251.738 245.853L253.264 245.593C253.387 246.119 253.669 246.536 254.111 246.846C254.552 247.15 255.1 247.302 255.754 247.302C256.375 247.302 256.861 247.165 257.214 246.891C257.566 246.617 257.742 246.244 257.742 245.772C257.742 245.498 257.683 245.278 257.566 245.11C257.448 244.938 257.205 244.777 256.836 244.627C256.473 244.478 255.922 244.299 255.184 244.09C254.385 243.864 253.756 243.628 253.297 243.384C252.839 243.139 252.511 242.856 252.316 242.534C252.12 242.212 252.023 241.821 252.023 241.362C252.023 240.795 252.168 240.3 252.459 239.877C252.749 239.447 253.155 239.116 253.675 238.883C254.2 238.651 254.809 238.535 255.503 238.535C256.191 238.535 256.805 238.651 257.348 238.883C257.89 239.116 258.326 239.447 258.656 239.877C258.991 240.3 259.19 240.795 259.251 241.362L257.725 241.657C257.652 241.138 257.417 240.73 257.021 240.431C256.629 240.133 256.123 239.975 255.503 239.957C254.916 239.933 254.438 240.044 254.069 240.288C253.705 240.533 253.524 240.864 253.524 241.281C253.524 241.514 253.591 241.714 253.725 241.881C253.865 242.048 254.119 242.206 254.488 242.355C254.863 242.504 255.405 242.674 256.115 242.865C256.914 243.079 257.543 243.315 258.002 243.571C258.466 243.822 258.796 244.12 258.991 244.466C259.187 244.806 259.285 245.227 259.285 245.728C259.285 246.658 258.963 247.392 258.321 247.928C257.677 248.46 256.791 248.725 255.662 248.725Z" fill="#8D8D8D"/>
<path d="M132.274 320.663C132.509 320.912 132.888 320.912 133.121 320.663L136.934 316.596C137.168 316.346 137.168 315.942 136.934 315.692C136.7 315.442 136.321 315.442 136.087 315.692L132.698 319.307L129.309 315.692C129.076 315.442 128.697 315.442 128.462 315.692C128.229 315.942 128.229 316.346 128.462 316.596L132.274 320.663ZM132.099 319.557V320.211H133.297V319.557H132.099Z" fill="#8D8D8D"/>
<path d="M49.7614 388.682C50.2293 388.183 50.2293 387.373 49.7614 386.874L42.1374 378.74C41.6696 378.241 40.911 378.241 40.4432 378.74C39.9753 379.239 39.9753 380.049 40.4432 380.548L47.2201 387.778L40.4432 395.008C39.9753 395.507 39.9753 396.316 40.4432 396.815C40.911 397.315 41.6696 397.315 42.1374 396.815L49.7614 388.682ZM48.3009 389.056H48.9143V386.5H48.3009V389.056Z" fill="#8D8D8D"/>
<path d="M73.4363 470.853V457.97H78.2079C78.3253 457.97 78.4649 457.977 78.6272 457.988C78.789 457.995 78.9459 458.012 79.0968 458.042C79.751 458.149 80.2984 458.388 80.7405 458.758C81.1874 459.128 81.5228 459.596 81.7468 460.162C81.9703 460.723 82.0823 461.346 82.0823 462.032C82.0823 463.028 81.8391 463.893 81.3527 464.627C80.8663 465.354 80.1535 465.811 79.2142 465.995L78.644 466.094H74.929V470.853H73.4363ZM80.6231 470.853L78.2415 465.611L79.7174 465.128L82.3339 470.853H80.6231ZM74.929 464.582H78.1576C78.2636 464.582 78.384 464.576 78.5182 464.564C78.6578 464.552 78.789 464.531 78.9124 464.501C79.2981 464.406 79.6108 464.233 79.8516 463.982C80.0972 463.726 80.2763 463.428 80.3883 463.088C80.4997 462.742 80.556 462.39 80.556 462.032C80.556 461.674 80.4997 461.325 80.3883 460.985C80.2763 460.64 80.0972 460.339 79.8516 460.082C79.6108 459.825 79.2981 459.652 78.9124 459.563C78.789 459.527 78.6578 459.506 78.5182 459.5C78.384 459.489 78.2636 459.482 78.1576 459.482H74.929V464.582ZM88.1052 471.122C87.2163 471.122 86.4394 470.913 85.7739 470.496C85.1144 470.072 84.5999 469.485 84.2309 468.733C83.8619 467.976 83.6774 467.093 83.6774 466.085C83.6774 465.029 83.8595 464.117 84.2225 463.347C84.5861 462.572 85.0923 461.976 85.7404 461.558C86.3945 461.135 87.1606 460.923 88.0381 460.923C88.9498 460.923 89.7237 461.146 90.3611 461.594C91.0044 462.041 91.4848 462.679 91.8035 463.508C92.1281 464.338 92.2677 465.324 92.2228 466.47H90.7133V465.897C90.6965 464.71 90.4701 463.825 90.034 463.24C89.5979 462.649 88.9498 462.354 88.0885 462.354C87.166 462.354 86.4646 462.67 85.9836 463.302C85.5032 463.935 85.2624 464.841 85.2624 466.022C85.2624 467.162 85.5032 468.044 85.9836 468.67C86.4646 469.297 87.1492 469.61 88.0381 469.61C88.6365 469.61 89.1565 469.464 89.5979 469.171C90.04 468.879 90.3862 468.459 90.6378 467.91L92.0718 468.438C91.7196 469.291 91.1889 469.953 90.4785 470.424C89.7741 470.889 88.9834 471.122 88.1052 471.122ZM84.7592 466.47V465.19H91.4513V466.47H84.7592ZM98.0037 471.122C97.1537 471.122 96.4385 470.898 95.8569 470.451C95.2753 469.998 94.8338 469.386 94.5319 468.617C94.2354 467.842 94.0875 466.974 94.0875 466.013C94.0875 465.041 94.2354 464.17 94.5319 463.401C94.8338 462.631 95.2753 462.026 95.8569 461.585C96.4439 461.144 97.1621 460.923 98.0121 460.923C98.8507 460.923 99.5719 461.146 100.176 461.594C100.785 462.035 101.252 462.64 101.576 463.41C101.9 464.179 102.063 465.047 102.063 466.013C102.063 466.979 101.9 467.847 101.576 468.617C101.252 469.386 100.785 469.998 100.176 470.451C99.5719 470.898 98.8477 471.122 98.0037 471.122ZM93.8359 475.148V461.191H95.1693V468.304H95.337V475.148H93.8359ZM97.8192 469.663C98.4176 469.663 98.9124 469.502 99.3036 469.18C99.6947 468.858 99.9882 468.423 100.184 467.874C100.38 467.319 100.478 466.7 100.478 466.013C100.478 465.333 100.38 464.719 100.184 464.17C99.9942 463.622 99.6977 463.186 99.2952 462.864C98.898 462.542 98.3925 462.381 97.7773 462.381C97.1903 462.381 96.7039 462.536 96.3181 462.846C95.9324 463.15 95.6443 463.577 95.4544 464.126C95.2645 464.669 95.1693 465.298 95.1693 466.013C95.1693 466.717 95.2615 467.346 95.446 467.901C95.6359 468.45 95.927 468.883 96.3181 469.198C96.7093 469.509 97.2101 469.663 97.8192 469.663ZM107.758 471.122C106.859 471.122 106.081 470.905 105.427 470.469C104.779 470.033 104.278 469.431 103.926 468.661C103.574 467.892 103.398 467.01 103.398 466.013C103.398 465 103.577 464.111 103.934 463.347C104.293 462.584 104.798 461.99 105.452 461.567C106.106 461.137 106.876 460.923 107.758 460.923C108.664 460.923 109.444 461.141 110.098 461.576C110.752 462.005 111.253 462.605 111.599 463.374C111.951 464.138 112.128 465.018 112.128 466.013C112.128 467.022 111.951 467.91 111.599 468.679C111.247 469.443 110.744 470.042 110.09 470.478C109.436 470.907 108.659 471.122 107.758 471.122ZM107.758 469.61C108.698 469.61 109.397 469.276 109.855 468.608C110.314 467.94 110.543 467.075 110.543 466.013C110.543 464.922 110.311 464.054 109.847 463.41C109.383 462.76 108.687 462.435 107.758 462.435C107.127 462.435 106.607 462.587 106.199 462.891C105.791 463.195 105.486 463.616 105.285 464.152C105.083 464.689 104.983 465.31 104.983 466.013C104.983 467.099 105.218 467.97 105.687 468.626C106.157 469.282 106.847 469.61 107.758 469.61ZM113.974 470.853V461.191H115.308V463.526L115.09 463.222C115.196 462.924 115.333 462.649 115.501 462.399C115.674 462.148 115.867 461.943 116.079 461.781C116.314 461.579 116.579 461.424 116.876 461.316C117.172 461.209 117.474 461.146 117.782 461.128C118.089 461.105 118.377 461.126 118.645 461.191V462.685C118.332 462.596 117.988 462.572 117.614 462.614C117.239 462.656 116.893 462.801 116.574 463.052C116.283 463.273 116.056 463.541 115.895 463.857C115.738 464.173 115.629 464.517 115.568 464.886C115.506 465.25 115.475 465.623 115.475 466.004V470.853H113.974ZM125.288 470.853C124.751 470.967 124.22 471.012 123.694 470.988C123.174 470.97 122.71 470.86 122.302 470.657C121.894 470.448 121.584 470.126 121.371 469.69C121.192 469.309 121.095 468.924 121.078 468.536C121.066 468.143 121.061 467.698 121.061 467.203V458.507H122.554V467.132C122.554 467.525 122.557 467.863 122.562 468.143C122.574 468.423 122.632 468.665 122.738 468.867C122.94 469.249 123.258 469.473 123.694 469.538C124.136 469.604 124.667 469.586 125.288 469.485V470.853ZM119.225 462.506V461.191H125.288V462.506H119.225ZM130.548 471.113C129.469 471.113 128.583 470.862 127.89 470.361C127.202 469.855 126.78 469.148 126.623 468.241L128.15 467.982C128.272 468.507 128.555 468.924 128.997 469.234C129.438 469.538 129.986 469.69 130.64 469.69C131.261 469.69 131.747 469.554 132.1 469.279C132.452 469.005 132.628 468.632 132.628 468.16C132.628 467.886 132.569 467.666 132.452 467.498C132.334 467.326 132.091 467.165 131.722 467.015C131.359 466.866 130.808 466.687 130.07 466.478C129.27 466.252 128.641 466.016 128.183 465.772C127.724 465.528 127.397 465.244 127.202 464.922C127.006 464.6 126.909 464.209 126.909 463.75C126.909 463.184 127.054 462.688 127.345 462.265C127.635 461.835 128.041 461.504 128.561 461.272C129.086 461.039 129.695 460.923 130.389 460.923C131.076 460.923 131.691 461.039 132.234 461.272C132.776 461.504 133.212 461.835 133.542 462.265C133.877 462.688 134.076 463.184 134.137 463.75L132.611 464.045C132.538 463.526 132.303 463.118 131.907 462.819C131.515 462.522 131.009 462.363 130.389 462.345C129.802 462.321 129.324 462.432 128.955 462.676C128.591 462.921 128.41 463.252 128.41 463.669C128.41 463.902 128.477 464.102 128.611 464.269C128.75 464.436 129.005 464.594 129.374 464.743C129.748 464.892 130.291 465.062 131.001 465.253C131.8 465.468 132.429 465.703 132.888 465.96C133.351 466.21 133.681 466.509 133.877 466.854C134.073 467.194 134.171 467.615 134.171 468.116C134.171 469.046 133.849 469.78 133.206 470.317C132.563 470.848 131.677 471.113 130.548 471.113Z" fill="white" fill-opacity="0.8"/>
<path d="M49.7614 465.367C50.2293 464.868 50.2293 464.058 49.7614 463.559L42.1374 455.426C41.6696 454.926 40.911 454.926 40.4432 455.426C39.9753 455.925 39.9753 456.734 40.4432 457.233L47.2201 464.463L40.4432 471.693C39.9753 472.192 39.9753 473.001 40.4432 473.501C40.911 474 41.6696 474 42.1374 473.501L49.7614 465.367ZM48.3009 465.741H48.9143V463.185H48.3009V465.741Z" fill="#8D8D8D"/>
<path d="M37.3785 426.76H323.701" stroke="#232121" stroke-width="1.198"/>
<path d="M37.3785 503.445H323.701" stroke="#232121" stroke-width="1.198"/>
<path d="M314.137 393.375V389.469H310.476V387.966H314.137V384.071H315.546V387.966H319.198V389.469H315.546V393.375H314.137Z" fill="#2F00FF"/>
<path d="M314.137 470.062V466.156H310.476V464.653H314.137V460.757H315.546V464.653H319.198V466.156H315.546V470.062H314.137Z" fill="#2F00FF"/>
<path d="M301.73 54.1953V51.1892H304.547V54.1953H301.73ZM309.479 54.1953V51.1892H312.297V54.1953H309.479ZM317.229 54.1953V51.1892H320.046V54.1953H317.229Z" fill="white"/>
</g>
</g>
</g>
</g>
<defs>
<filter id="filter0_d_15_2270" x="0.241573" y="123.5" width="191.68" height="199.689" filterUnits="userSpaceOnUse" color-interpolation-filters="sRGB">
<feFlood flood-opacity="0" result="BackgroundImageFix"/>
<feColorMatrix in="SourceAlpha" type="matrix" values="0 0 0 0 0 0 0 0 0 0 0 0 0 0 0 0 0 0 127 0" result="hardAlpha"/>
<feOffset dy="14.376"/>
<feGaussianBlur stdDeviation="17.97"/>
<feComposite in2="hardAlpha" operator="out"/>
<feColorMatrix type="matrix" values="0 0 0 0 0.0875 0 0 0 0 0.0875 0 0 0 0 0.0875 0 0 0 1 0"/>
<feBlend mode="normal" in2="BackgroundImageFix" result="effect1_dropShadow_15_2270"/>
<feBlend mode="normal" in="SourceGraphic" in2="effect1_dropShadow_15_2270" result="shape"/>
</filter>
<filter id="filter1_d_15_2270" x="144" y="123.5" width="191.68" height="199.689" filterUnits="userSpaceOnUse" color-interpolation-filters="sRGB">
<feFlood flood-opacity="0" result="BackgroundImageFix"/>
<feColorMatrix in="SourceAlpha" type="matrix" values="0 0 0 0 0 0 0 0 0 0 0 0 0 0 0 0 0 0 127 0" result="hardAlpha"/>
<feOffset dy="14.376"/>
<feGaussianBlur stdDeviation="17.97"/>
<feComposite in2="hardAlpha" operator="out"/>
<feColorMatrix type="matrix" values="0 0 0 0 0.0875 0 0 0 0 0.0875 0 0 0 0 0.0875 0 0 0 1 0"/>
<feBlend mode="normal" in2="BackgroundImageFix" result="effect1_dropShadow_15_2270"/>
<feBlend mode="normal" in="SourceGraphic" in2="effect1_dropShadow_15_2270" result="shape"/>
</filter>
<filter id="filter2_d_15_2270" x="287.761" y="123.5" width="191.68" height="199.689" filterUnits="userSpaceOnUse" color-interpolation-filters="sRGB">
<feFlood flood-opacity="0" result="BackgroundImageFix"/>
<feColorMatrix in="SourceAlpha" type="matrix" values="0 0 0 0 0 0 0 0 0 0 0 0 0 0 0 0 0 0 127 0" result="hardAlpha"/>
<feOffset dy="14.376"/>
<feGaussianBlur stdDeviation="17.97"/>
<feComposite in2="hardAlpha" operator="out"/>
<feColorMatrix type="matrix" values="0 0 0 0 0.0875 0 0 0 0 0.0875 0 0 0 0 0.0875 0 0 0 1 0"/>
<feBlend mode="normal" in2="BackgroundImageFix" result="effect1_dropShadow_15_2270"/>
<feBlend mode="normal" in="SourceGraphic" in2="effect1_dropShadow_15_2270" result="shape"/>
</filter>
<linearGradient id="paint0_linear_15_2270" x1="180.083" y1="0.515494" x2="180.083" y2="562.877" gradientUnits="userSpaceOnUse">
<stop stop-color="#191919"/>
<stop offset="1" stop-color="#111111"/>
</linearGradient>
<clipPath id="clip0_15_2270">
<rect width="360" height="563" fill="white" transform="translate(0.00292969)"/>
</clipPath>
<clipPath id="clip1_15_2270">
<rect width="360" height="563" fill="white" transform="translate(0.00292969)"/>
</clipPath>
<clipPath id="clip2_15_2270">
<rect width="360" height="563" fill="white" transform="translate(0.00292969)"/>
</clipPath>
</defs>
</svg>
