<svg width="552" height="551" viewBox="0 0 552 551" fill="none" xmlns="http://www.w3.org/2000/svg">
<path d="M328.887 67.6527V53.8587H333.073C333.22 53.8587 333.469 53.862 333.82 53.8683C334.178 53.8747 334.519 53.9003 334.845 53.9449C335.893 54.0919 336.767 54.4814 337.47 55.1136C338.173 55.7458 338.699 56.5505 339.05 57.5275C339.401 58.5046 339.577 59.5807 339.577 60.7557C339.577 61.9307 339.401 63.0068 339.05 63.9839C338.699 64.9609 338.173 65.7656 337.47 66.3978C336.767 67.03 335.893 67.4195 334.845 67.5665C334.525 67.6048 334.184 67.6303 333.82 67.6431C333.456 67.6494 333.207 67.6527 333.073 67.6527H328.887ZM330.343 66.302H333.073C333.335 66.302 333.615 66.2957 333.916 66.2829C334.222 66.2637 334.485 66.2317 334.701 66.1871C335.506 66.0466 336.154 65.7209 336.646 65.21C337.144 64.6991 337.508 64.0605 337.738 63.2942C337.968 62.5215 338.083 61.6753 338.083 60.7557C338.083 59.8298 337.968 58.9803 337.738 58.2077C337.508 57.435 337.144 56.7963 336.646 56.2918C336.148 55.7874 335.5 55.4648 334.701 55.3243C334.485 55.2797 334.219 55.2509 333.906 55.2381C333.6 55.219 333.322 55.2094 333.073 55.2094H330.343V66.302ZM346.136 67.9401C345.127 67.9401 344.253 67.7165 343.512 67.2695C342.778 66.8225 342.205 66.1934 341.797 65.3824C341.389 64.5714 341.184 63.6199 341.184 62.5278C341.184 61.3975 341.385 60.4204 341.788 59.5966C342.19 58.7728 342.755 58.1374 343.483 57.6904C344.217 57.2434 345.083 57.0198 346.079 57.0198C347.1 57.0198 347.972 57.2561 348.694 57.7287C349.416 58.1948 349.962 58.8654 350.332 59.7403C350.702 60.6152 350.872 61.6594 350.84 62.8727H349.403V62.3746C349.378 61.0335 349.087 60.0213 348.531 59.338C347.982 58.6546 347.177 58.313 346.117 58.313C345.006 58.313 344.154 58.6738 343.56 59.3955C342.972 60.1171 342.678 61.1452 342.678 62.4799C342.678 63.7827 342.972 64.7949 343.56 65.5165C344.154 66.2317 344.993 66.5894 346.079 66.5894C346.82 66.5894 347.464 66.4202 348.014 66.0817C348.57 65.7368 349.007 65.242 349.326 64.5969L350.639 65.1046C350.23 66.0051 349.627 66.7043 348.828 67.2025C348.037 67.6942 347.139 67.9401 346.136 67.9401ZM342.18 62.8727V61.6945H350.083V62.8727H342.18ZM352.965 67.6527V53.8587H360.887V55.2669H354.373V60.0564H359.738V61.455H354.373V67.6527H352.965ZM362.811 55.3435V53.7629H364.219V55.3435H362.811ZM362.811 67.6527V57.3072H364.219V67.6527H362.811Z" fill="#434343"/>
<rect x="59.5029" y="3.5" width="99" height="99" rx="11.5" fill="black" stroke="#2F00FF"/>
<rect x="59.5029" y="168.5" width="99" height="99" rx="11.5" fill="black" stroke="url(#paint0_linear_0_2163)"/>
<rect x="181.503" y="167.5" width="99" height="99" rx="11.5" fill="black" stroke="#2F00FF"/>
<rect x="289.251" y="3.34009" width="99" height="99" rx="11.5" fill="black" stroke="#2F00FF"/>
<rect x="181.503" y="290.5" width="99" height="99" rx="11.5" fill="black" stroke="#2F00FF"/>
<rect x="307.503" y="290.5" width="99" height="99" rx="11.5" fill="black" stroke="#2F00FF"/>
<rect x="433.503" y="290.5" width="99" height="99" rx="11.5" fill="black" stroke="url(#paint1_linear_0_2163)"/>
<rect x="433.503" y="413.5" width="99" height="99" rx="11.5" fill="black" stroke="url(#paint2_linear_0_2163)"/>
<path d="M212.854 220.133L215.395 211.203H216.625L215.913 214.675L213.18 224H211.958L212.854 220.133ZM210.227 211.203L212.248 219.957L212.854 224H211.642L208.539 211.203H210.227ZM219.912 219.948L221.89 211.203H223.586L220.492 224H219.279L219.912 219.948ZM216.81 211.203L219.279 220.133L220.176 224H218.954L216.317 214.675L215.597 211.203H216.81ZM228.886 224.176C228.224 224.176 227.623 224.064 227.084 223.842C226.551 223.613 226.091 223.294 225.704 222.884C225.323 222.474 225.03 221.987 224.825 221.425C224.62 220.862 224.518 220.247 224.518 219.579V219.21C224.518 218.437 224.632 217.748 224.86 217.145C225.089 216.535 225.399 216.02 225.792 215.598C226.185 215.176 226.63 214.856 227.128 214.64C227.626 214.423 228.142 214.314 228.675 214.314C229.354 214.314 229.94 214.432 230.433 214.666C230.931 214.9 231.338 215.229 231.654 215.65C231.971 216.066 232.205 216.559 232.357 217.127C232.51 217.689 232.586 218.305 232.586 218.973V219.702H225.484V218.375H230.96V218.252C230.937 217.83 230.849 217.42 230.696 217.021C230.55 216.623 230.315 216.295 229.993 216.037C229.671 215.779 229.231 215.65 228.675 215.65C228.306 215.65 227.966 215.729 227.655 215.888C227.345 216.04 227.078 216.269 226.855 216.573C226.633 216.878 226.46 217.25 226.337 217.689C226.214 218.129 226.152 218.636 226.152 219.21V219.579C226.152 220.03 226.214 220.455 226.337 220.854C226.466 221.246 226.65 221.592 226.891 221.891C227.137 222.189 227.433 222.424 227.778 222.594C228.13 222.764 228.528 222.849 228.974 222.849C229.548 222.849 230.034 222.731 230.433 222.497C230.831 222.263 231.18 221.949 231.479 221.557L232.463 222.339C232.258 222.649 231.997 222.945 231.681 223.227C231.364 223.508 230.975 223.736 230.512 223.912C230.055 224.088 229.513 224.176 228.886 224.176ZM234.476 210.5H236.11V222.154L235.97 224H234.476V210.5ZM242.535 219.166V219.351C242.535 220.042 242.453 220.684 242.289 221.275C242.125 221.861 241.885 222.371 241.568 222.805C241.252 223.238 240.865 223.575 240.408 223.815C239.951 224.056 239.427 224.176 238.835 224.176C238.231 224.176 237.701 224.073 237.244 223.868C236.793 223.657 236.412 223.355 236.102 222.963C235.791 222.57 235.542 222.096 235.354 221.539C235.173 220.982 235.047 220.355 234.977 219.658V218.85C235.047 218.146 235.173 217.517 235.354 216.96C235.542 216.403 235.791 215.929 236.102 215.536C236.412 215.138 236.793 214.836 237.244 214.631C237.695 214.42 238.22 214.314 238.817 214.314C239.415 214.314 239.945 214.432 240.408 214.666C240.871 214.895 241.258 215.223 241.568 215.65C241.885 216.078 242.125 216.591 242.289 217.188C242.453 217.78 242.535 218.439 242.535 219.166ZM240.9 219.351V219.166C240.9 218.691 240.856 218.246 240.769 217.83C240.681 217.408 240.54 217.039 240.347 216.723C240.153 216.4 239.898 216.148 239.582 215.967C239.266 215.779 238.876 215.686 238.413 215.686C238.003 215.686 237.646 215.756 237.341 215.896C237.042 216.037 236.787 216.228 236.576 216.468C236.365 216.702 236.192 216.972 236.058 217.276C235.929 217.575 235.832 217.886 235.768 218.208V220.326C235.861 220.736 236.014 221.132 236.225 221.513C236.441 221.888 236.729 222.195 237.086 222.436C237.449 222.676 237.897 222.796 238.431 222.796C238.87 222.796 239.245 222.708 239.556 222.532C239.872 222.351 240.127 222.102 240.32 221.785C240.52 221.469 240.666 221.103 240.76 220.687C240.854 220.271 240.9 219.825 240.9 219.351ZM246.789 216.802H247.949C248.518 216.802 248.986 216.708 249.355 216.521C249.73 216.327 250.009 216.066 250.19 215.738C250.378 215.404 250.472 215.029 250.472 214.613C250.472 214.121 250.39 213.708 250.226 213.374C250.062 213.04 249.815 212.788 249.487 212.618C249.159 212.448 248.743 212.363 248.239 212.363C247.782 212.363 247.378 212.454 247.026 212.636C246.681 212.812 246.408 213.063 246.209 213.392C246.016 213.72 245.919 214.106 245.919 214.552H244.293C244.293 213.901 244.457 213.31 244.785 212.776C245.113 212.243 245.573 211.818 246.165 211.502C246.763 211.186 247.454 211.027 248.239 211.027C249.013 211.027 249.689 211.165 250.27 211.44C250.85 211.71 251.301 212.114 251.623 212.653C251.945 213.187 252.106 213.852 252.106 214.648C252.106 214.971 252.03 215.316 251.878 215.686C251.731 216.049 251.5 216.389 251.184 216.705C250.873 217.021 250.469 217.282 249.971 217.487C249.473 217.687 248.875 217.786 248.178 217.786H246.789V216.802ZM246.789 218.138V217.162H248.178C248.992 217.162 249.666 217.259 250.199 217.452C250.732 217.646 251.151 217.903 251.456 218.226C251.767 218.548 251.983 218.902 252.106 219.289C252.235 219.67 252.3 220.051 252.3 220.432C252.3 221.029 252.197 221.56 251.992 222.022C251.793 222.485 251.509 222.878 251.14 223.2C250.776 223.522 250.349 223.766 249.856 223.93C249.364 224.094 248.828 224.176 248.248 224.176C247.691 224.176 247.167 224.097 246.675 223.938C246.188 223.78 245.758 223.552 245.383 223.253C245.008 222.948 244.715 222.576 244.504 222.137C244.293 221.691 244.188 221.185 244.188 220.616H245.813C245.813 221.062 245.91 221.451 246.104 221.785C246.303 222.119 246.584 222.38 246.947 222.567C247.316 222.749 247.75 222.84 248.248 222.84C248.746 222.84 249.174 222.755 249.531 222.585C249.895 222.409 250.173 222.146 250.366 221.794C250.565 221.442 250.665 221 250.665 220.467C250.665 219.934 250.554 219.497 250.331 219.157C250.108 218.812 249.792 218.557 249.382 218.393C248.978 218.223 248.5 218.138 247.949 218.138H246.789Z" fill="white"/>
<path d="M91.1222 52H89.537C89.4433 51.544 89.2792 51.1435 89.0448 50.7983C88.8147 50.4531 88.5335 50.1634 88.2011 49.929C87.873 49.6903 87.5086 49.5114 87.108 49.392C86.7075 49.2727 86.2899 49.2131 85.8552 49.2131C85.0626 49.2131 84.3445 49.4134 83.7011 49.8139C83.0619 50.2145 82.5526 50.8047 82.1734 51.5845C81.7984 52.3643 81.6109 53.321 81.6109 54.4545C81.6109 55.5881 81.7984 56.5447 82.1734 57.3246C82.5526 58.1044 83.0619 58.6946 83.7011 59.0952C84.3445 59.4957 85.0626 59.696 85.8552 59.696C86.2899 59.696 86.7075 59.6364 87.108 59.517C87.5086 59.3977 87.873 59.2209 88.2011 58.9865C88.5335 58.7479 88.8147 58.456 89.0448 58.1108C89.2792 57.7614 89.4433 57.3608 89.537 56.9091H91.1222C91.0029 57.5781 90.7856 58.1768 90.4703 58.7053C90.1549 59.2337 89.7629 59.6832 89.2941 60.054C88.8254 60.4205 88.2991 60.6996 87.7153 60.8913C87.1357 61.0831 86.5157 61.179 85.8552 61.179C84.7387 61.179 83.7458 60.9062 82.8765 60.3608C82.0072 59.8153 81.3232 59.0398 80.8247 58.0341C80.3261 57.0284 80.0768 55.8352 80.0768 54.4545C80.0768 53.0739 80.3261 51.8807 80.8247 50.875C81.3232 49.8693 82.0072 49.0938 82.8765 48.5483C83.7458 48.0028 84.7387 47.7301 85.8552 47.7301C86.5157 47.7301 87.1357 47.826 87.7153 48.0178C88.2991 48.2095 88.8254 48.4908 89.2941 48.8615C89.7629 49.228 90.1549 49.6754 90.4703 50.2038C90.7856 50.728 91.0029 51.3267 91.1222 52ZM93.4793 61V51.1818H94.9367V52.6648H95.039C95.218 52.179 95.5418 51.7848 96.0106 51.4822C96.4793 51.1797 97.0077 51.0284 97.5958 51.0284C97.7066 51.0284 97.8451 51.0305 98.0113 51.0348C98.1775 51.0391 98.3032 51.0455 98.3884 51.054V52.5881C98.3373 52.5753 98.2201 52.5561 98.0368 52.5305C97.8579 52.5007 97.6682 52.4858 97.468 52.4858C96.9907 52.4858 96.5645 52.5859 96.1895 52.7862C95.8188 52.9822 95.5248 53.255 95.3074 53.6044C95.0944 53.9496 94.9878 54.3437 94.9878 54.7869V61H93.4793ZM101.447 64.6818C101.191 64.6818 100.963 64.6605 100.763 64.6179C100.563 64.5795 100.424 64.5412 100.348 64.5028L100.731 63.1733C101.098 63.267 101.421 63.3011 101.703 63.2756C101.984 63.25 102.233 63.1243 102.451 62.8984C102.672 62.6768 102.875 62.3168 103.058 61.8182L103.339 61.0511L99.7084 51.1818H101.345L104.055 59.0057H104.157L106.867 51.1818H108.504L104.336 62.4318C104.149 62.9389 103.916 63.3587 103.639 63.6911C103.362 64.0277 103.041 64.277 102.674 64.4389C102.312 64.6009 101.903 64.6818 101.447 64.6818ZM110.495 64.6818V51.1818H111.952V52.7415H112.131C112.242 52.571 112.396 52.3537 112.592 52.0895C112.792 51.821 113.077 51.5824 113.448 51.3736C113.823 51.1605 114.33 51.054 114.969 51.054C115.796 51.054 116.525 51.2607 117.155 51.674C117.786 52.0874 118.278 52.6733 118.632 53.4318C118.986 54.1903 119.163 55.0852 119.163 56.1165C119.163 57.1562 118.986 58.0575 118.632 58.8203C118.278 59.5788 117.788 60.1669 117.162 60.5845C116.535 60.9979 115.813 61.2045 114.995 61.2045C114.364 61.2045 113.859 61.1001 113.48 60.8913C113.101 60.6783 112.809 60.4375 112.604 60.169C112.4 59.8963 112.242 59.6705 112.131 59.4915H112.003V64.6818H110.495ZM111.978 56.0909C111.978 56.8324 112.087 57.4865 112.304 58.0533C112.521 58.6158 112.839 59.0568 113.256 59.3764C113.674 59.6918 114.185 59.8494 114.79 59.8494C115.421 59.8494 115.947 59.6832 116.369 59.3509C116.795 59.0142 117.115 58.5625 117.328 57.9957C117.545 57.4247 117.654 56.7898 117.654 56.0909C117.654 55.4006 117.547 54.7784 117.334 54.2244C117.126 53.6662 116.808 53.2251 116.382 52.9013C115.96 52.5732 115.43 52.4091 114.79 52.4091C114.177 52.4091 113.661 52.5646 113.244 52.8757C112.826 53.1825 112.511 53.6129 112.297 54.1669C112.084 54.7166 111.978 55.358 111.978 56.0909ZM125.734 51.1818V52.4602H120.646V51.1818H125.734ZM122.128 48.8295H123.637V58.1875C123.637 58.6136 123.699 58.9332 123.822 59.1463C123.95 59.3551 124.112 59.4957 124.308 59.5682C124.508 59.6364 124.719 59.6705 124.941 59.6705C125.107 59.6705 125.244 59.6619 125.35 59.6449C125.457 59.6236 125.542 59.6065 125.606 59.5938L125.913 60.9489C125.81 60.9872 125.668 61.0256 125.484 61.0639C125.301 61.1065 125.069 61.1278 124.788 61.1278C124.361 61.1278 123.944 61.0362 123.535 60.853C123.13 60.6697 122.793 60.3906 122.525 60.0156C122.261 59.6406 122.128 59.1676 122.128 58.5966V48.8295ZM131.886 61.2045C131 61.2045 130.222 60.9936 129.553 60.5717C128.888 60.1499 128.368 59.5597 127.993 58.8011C127.622 58.0426 127.437 57.1562 127.437 56.142C127.437 55.1193 127.622 54.2266 127.993 53.4638C128.368 52.701 128.888 52.1087 129.553 51.6868C130.222 51.2649 131 51.054 131.886 51.054C132.772 51.054 133.548 51.2649 134.213 51.6868C134.882 52.1087 135.402 52.701 135.772 53.4638C136.147 54.2266 136.335 55.1193 136.335 56.142C136.335 57.1562 136.147 58.0426 135.772 58.8011C135.402 59.5597 134.882 60.1499 134.213 60.5717C133.548 60.9936 132.772 61.2045 131.886 61.2045ZM131.886 59.8494C132.559 59.8494 133.113 59.6768 133.548 59.3317C133.983 58.9865 134.304 58.5327 134.513 57.9702C134.722 57.4077 134.826 56.7983 134.826 56.142C134.826 55.4858 134.722 54.8743 134.513 54.3075C134.304 53.7408 133.983 53.2827 133.548 52.9332C133.113 52.5838 132.559 52.4091 131.886 52.4091C131.213 52.4091 130.659 52.5838 130.224 52.9332C129.789 53.2827 129.468 53.7408 129.259 54.3075C129.05 54.8743 128.946 55.4858 128.946 56.142C128.946 56.7983 129.05 57.4077 129.259 57.9702C129.468 58.5327 129.789 58.9865 130.224 59.3317C130.659 59.6768 131.213 59.8494 131.886 59.8494Z" fill="white"/>
<rect x="433.503" y="167.5" width="99" height="99" rx="11.5" fill="black" stroke="url(#paint3_linear_0_2163)"/>
<path d="M212.945 341.628V346.312C212.787 346.547 212.535 346.811 212.189 347.104C211.844 347.391 211.366 347.643 210.757 347.859C210.153 348.07 209.374 348.176 208.419 348.176C207.64 348.176 206.922 348.041 206.266 347.771C205.615 347.496 205.05 347.098 204.569 346.576C204.095 346.049 203.726 345.41 203.462 344.66C203.204 343.904 203.075 343.049 203.075 342.094V341.101C203.075 340.146 203.187 339.293 203.409 338.543C203.638 337.793 203.972 337.157 204.411 336.636C204.851 336.108 205.39 335.71 206.028 335.44C206.667 335.165 207.399 335.027 208.226 335.027C209.204 335.027 210.021 335.197 210.678 335.537C211.34 335.871 211.855 336.334 212.225 336.926C212.6 337.518 212.84 338.191 212.945 338.947H211.249C211.173 338.484 211.021 338.062 210.792 337.682C210.569 337.301 210.25 336.996 209.834 336.768C209.418 336.533 208.882 336.416 208.226 336.416C207.634 336.416 207.121 336.524 206.688 336.741C206.254 336.958 205.896 337.269 205.615 337.673C205.334 338.077 205.123 338.566 204.982 339.141C204.848 339.715 204.78 340.362 204.78 341.083V342.094C204.78 342.832 204.865 343.491 205.035 344.071C205.211 344.651 205.46 345.146 205.782 345.557C206.104 345.961 206.488 346.269 206.934 346.479C207.385 346.69 207.883 346.796 208.428 346.796C209.031 346.796 209.521 346.746 209.896 346.646C210.271 346.541 210.563 346.418 210.774 346.277C210.985 346.131 211.146 345.993 211.258 345.864V342.999H208.296V341.628H212.945ZM221.119 346.374V341.479C221.119 341.104 221.043 340.778 220.891 340.503C220.744 340.222 220.521 340.005 220.223 339.853C219.924 339.7 219.555 339.624 219.115 339.624C218.705 339.624 218.345 339.694 218.034 339.835C217.729 339.976 217.489 340.16 217.313 340.389C217.144 340.617 217.059 340.863 217.059 341.127H215.433C215.433 340.787 215.521 340.45 215.696 340.116C215.872 339.782 216.124 339.48 216.452 339.211C216.786 338.936 217.185 338.719 217.647 338.561C218.116 338.396 218.638 338.314 219.212 338.314C219.903 338.314 220.513 338.432 221.04 338.666C221.573 338.9 221.989 339.255 222.288 339.729C222.593 340.198 222.745 340.787 222.745 341.496V345.926C222.745 346.242 222.771 346.579 222.824 346.937C222.883 347.294 222.968 347.602 223.079 347.859V348H221.383C221.301 347.812 221.236 347.563 221.189 347.253C221.143 346.937 221.119 346.644 221.119 346.374ZM221.4 342.234L221.418 343.377H219.774C219.312 343.377 218.898 343.415 218.535 343.491C218.172 343.562 217.867 343.67 217.621 343.816C217.375 343.963 217.188 344.147 217.059 344.37C216.93 344.587 216.865 344.842 216.865 345.135C216.865 345.434 216.933 345.706 217.067 345.952C217.202 346.198 217.404 346.395 217.674 346.541C217.949 346.682 218.286 346.752 218.685 346.752C219.183 346.752 219.622 346.646 220.003 346.436C220.384 346.225 220.686 345.967 220.908 345.662C221.137 345.357 221.26 345.062 221.277 344.774L221.972 345.557C221.931 345.803 221.819 346.075 221.638 346.374C221.456 346.673 221.213 346.96 220.908 347.235C220.609 347.505 220.252 347.73 219.836 347.912C219.426 348.088 218.963 348.176 218.447 348.176C217.803 348.176 217.237 348.05 216.751 347.798C216.271 347.546 215.896 347.209 215.626 346.787C215.362 346.359 215.23 345.882 215.23 345.354C215.23 344.845 215.33 344.396 215.529 344.01C215.729 343.617 216.016 343.292 216.391 343.034C216.766 342.771 217.217 342.571 217.744 342.437C218.271 342.302 218.86 342.234 219.511 342.234H221.4ZM226.92 340.38V348H225.285V338.49H226.832L226.92 340.38ZM226.586 342.885L225.83 342.858C225.836 342.208 225.921 341.607 226.085 341.057C226.249 340.5 226.492 340.017 226.814 339.606C227.137 339.196 227.538 338.88 228.019 338.657C228.499 338.429 229.056 338.314 229.688 338.314C230.134 338.314 230.544 338.379 230.919 338.508C231.294 338.631 231.619 338.827 231.895 339.097C232.17 339.366 232.384 339.712 232.536 340.134C232.688 340.556 232.765 341.065 232.765 341.663V348H231.139V341.742C231.139 341.244 231.054 340.846 230.884 340.547C230.72 340.248 230.485 340.031 230.181 339.896C229.876 339.756 229.519 339.686 229.108 339.686C228.628 339.686 228.227 339.771 227.904 339.94C227.582 340.11 227.324 340.345 227.131 340.644C226.938 340.942 226.797 341.285 226.709 341.672C226.627 342.053 226.586 342.457 226.586 342.885ZM232.747 341.988L231.657 342.322C231.663 341.801 231.748 341.3 231.912 340.819C232.082 340.339 232.325 339.911 232.642 339.536C232.964 339.161 233.359 338.865 233.828 338.648C234.297 338.426 234.833 338.314 235.437 338.314C235.946 338.314 236.397 338.382 236.79 338.517C237.188 338.651 237.522 338.859 237.792 339.141C238.067 339.416 238.275 339.771 238.416 340.204C238.557 340.638 238.627 341.153 238.627 341.751V348H236.992V341.733C236.992 341.2 236.907 340.787 236.737 340.494C236.573 340.195 236.339 339.987 236.034 339.87C235.735 339.747 235.378 339.686 234.962 339.686C234.604 339.686 234.288 339.747 234.013 339.87C233.737 339.993 233.506 340.163 233.318 340.38C233.131 340.591 232.987 340.834 232.888 341.109C232.794 341.385 232.747 341.678 232.747 341.988ZM245.034 348.176C244.372 348.176 243.771 348.064 243.232 347.842C242.699 347.613 242.239 347.294 241.853 346.884C241.472 346.474 241.179 345.987 240.974 345.425C240.769 344.862 240.666 344.247 240.666 343.579V343.21C240.666 342.437 240.78 341.748 241.009 341.145C241.237 340.535 241.548 340.02 241.94 339.598C242.333 339.176 242.778 338.856 243.276 338.64C243.774 338.423 244.29 338.314 244.823 338.314C245.503 338.314 246.089 338.432 246.581 338.666C247.079 338.9 247.486 339.229 247.803 339.65C248.119 340.066 248.354 340.559 248.506 341.127C248.658 341.689 248.734 342.305 248.734 342.973V343.702H241.633V342.375H247.108V342.252C247.085 341.83 246.997 341.42 246.845 341.021C246.698 340.623 246.464 340.295 246.142 340.037C245.819 339.779 245.38 339.65 244.823 339.65C244.454 339.65 244.114 339.729 243.804 339.888C243.493 340.04 243.227 340.269 243.004 340.573C242.781 340.878 242.608 341.25 242.485 341.689C242.362 342.129 242.301 342.636 242.301 343.21V343.579C242.301 344.03 242.362 344.455 242.485 344.854C242.614 345.246 242.799 345.592 243.039 345.891C243.285 346.189 243.581 346.424 243.927 346.594C244.278 346.764 244.677 346.849 245.122 346.849C245.696 346.849 246.183 346.731 246.581 346.497C246.979 346.263 247.328 345.949 247.627 345.557L248.611 346.339C248.406 346.649 248.146 346.945 247.829 347.227C247.513 347.508 247.123 347.736 246.66 347.912C246.203 348.088 245.661 348.176 245.034 348.176ZM252.804 348H251.178V337.664C251.178 336.943 251.318 336.334 251.6 335.836C251.881 335.338 252.282 334.96 252.804 334.702C253.325 334.444 253.943 334.315 254.658 334.315C255.08 334.315 255.493 334.368 255.897 334.474C256.302 334.573 256.718 334.699 257.146 334.852L256.873 336.223C256.604 336.117 256.29 336.018 255.933 335.924C255.581 335.824 255.194 335.774 254.772 335.774C254.075 335.774 253.571 335.933 253.261 336.249C252.956 336.56 252.804 337.031 252.804 337.664V348ZM254.746 338.49V339.738H249.675V338.49H254.746ZM257.945 338.49V348H256.319V338.49H257.945Z" fill="white"/>
<path d="M317.024 335.203H318.668L322.86 345.636L327.044 335.203H328.696L323.493 348H322.21L317.024 335.203ZM316.488 335.203H317.938L318.176 343.008V348H316.488V335.203ZM327.773 335.203H329.224V348H327.536V343.008L327.773 335.203ZM335.903 348.176C335.241 348.176 334.641 348.064 334.102 347.842C333.568 347.613 333.108 347.294 332.722 346.884C332.341 346.474 332.048 345.987 331.843 345.425C331.638 344.862 331.535 344.247 331.535 343.579V343.21C331.535 342.437 331.649 341.748 331.878 341.145C332.106 340.535 332.417 340.02 332.81 339.598C333.202 339.176 333.647 338.856 334.146 338.64C334.644 338.423 335.159 338.314 335.692 338.314C336.372 338.314 336.958 338.432 337.45 338.666C337.948 338.9 338.355 339.229 338.672 339.65C338.988 340.066 339.223 340.559 339.375 341.127C339.527 341.689 339.604 342.305 339.604 342.973V343.702H332.502V342.375H337.978V342.252C337.954 341.83 337.866 341.42 337.714 341.021C337.567 340.623 337.333 340.295 337.011 340.037C336.688 339.779 336.249 339.65 335.692 339.65C335.323 339.65 334.983 339.729 334.673 339.888C334.362 340.04 334.096 340.269 333.873 340.573C333.65 340.878 333.478 341.25 333.354 341.689C333.231 342.129 333.17 342.636 333.17 343.21V343.579C333.17 344.03 333.231 344.455 333.354 344.854C333.483 345.246 333.668 345.592 333.908 345.891C334.154 346.189 334.45 346.424 334.796 346.594C335.147 346.764 335.546 346.849 335.991 346.849C336.565 346.849 337.052 346.731 337.45 346.497C337.849 346.263 338.197 345.949 338.496 345.557L339.48 346.339C339.275 346.649 339.015 346.945 338.698 347.227C338.382 347.508 337.992 347.736 337.529 347.912C337.072 348.088 336.53 348.176 335.903 348.176ZM345.483 338.49V339.738H340.342V338.49H345.483ZM342.082 336.179H343.708V345.645C343.708 345.967 343.758 346.21 343.857 346.374C343.957 346.538 344.086 346.646 344.244 346.699C344.402 346.752 344.572 346.778 344.754 346.778C344.889 346.778 345.029 346.767 345.176 346.743C345.328 346.714 345.442 346.69 345.519 346.673L345.527 348C345.398 348.041 345.229 348.079 345.018 348.114C344.812 348.155 344.563 348.176 344.271 348.176C343.872 348.176 343.506 348.097 343.172 347.938C342.838 347.78 342.571 347.517 342.372 347.147C342.179 346.772 342.082 346.269 342.082 345.636V336.179ZM352.998 346.374V341.479C352.998 341.104 352.922 340.778 352.77 340.503C352.623 340.222 352.4 340.005 352.102 339.853C351.803 339.7 351.434 339.624 350.994 339.624C350.584 339.624 350.224 339.694 349.913 339.835C349.608 339.976 349.368 340.16 349.192 340.389C349.022 340.617 348.938 340.863 348.938 341.127H347.312C347.312 340.787 347.399 340.45 347.575 340.116C347.751 339.782 348.003 339.48 348.331 339.211C348.665 338.936 349.063 338.719 349.526 338.561C349.995 338.396 350.517 338.314 351.091 338.314C351.782 338.314 352.392 338.432 352.919 338.666C353.452 338.9 353.868 339.255 354.167 339.729C354.472 340.198 354.624 340.787 354.624 341.496V345.926C354.624 346.242 354.65 346.579 354.703 346.937C354.762 347.294 354.847 347.602 354.958 347.859V348H353.262C353.18 347.812 353.115 347.563 353.068 347.253C353.021 346.937 352.998 346.644 352.998 346.374ZM353.279 342.234L353.297 343.377H351.653C351.19 343.377 350.777 343.415 350.414 343.491C350.051 343.562 349.746 343.67 349.5 343.816C349.254 343.963 349.066 344.147 348.938 344.37C348.809 344.587 348.744 344.842 348.744 345.135C348.744 345.434 348.812 345.706 348.946 345.952C349.081 346.198 349.283 346.395 349.553 346.541C349.828 346.682 350.165 346.752 350.563 346.752C351.062 346.752 351.501 346.646 351.882 346.436C352.263 346.225 352.564 345.967 352.787 345.662C353.016 345.357 353.139 345.062 353.156 344.774L353.851 345.557C353.81 345.803 353.698 346.075 353.517 346.374C353.335 346.673 353.092 346.96 352.787 347.235C352.488 347.505 352.131 347.73 351.715 347.912C351.305 348.088 350.842 348.176 350.326 348.176C349.682 348.176 349.116 348.05 348.63 347.798C348.149 347.546 347.774 347.209 347.505 346.787C347.241 346.359 347.109 345.882 347.109 345.354C347.109 344.845 347.209 344.396 347.408 344.01C347.607 343.617 347.895 343.292 348.27 343.034C348.645 342.771 349.096 342.571 349.623 342.437C350.15 342.302 350.739 342.234 351.39 342.234H353.279ZM359.933 346.532L362.534 338.49H364.195L360.776 348H359.687L359.933 346.532ZM357.762 338.49L360.442 346.576L360.627 348H359.537L356.092 338.49H357.762ZM369.583 348.176C368.921 348.176 368.32 348.064 367.781 347.842C367.248 347.613 366.788 347.294 366.401 346.884C366.021 346.474 365.728 345.987 365.522 345.425C365.317 344.862 365.215 344.247 365.215 343.579V343.21C365.215 342.437 365.329 341.748 365.558 341.145C365.786 340.535 366.097 340.02 366.489 339.598C366.882 339.176 367.327 338.856 367.825 338.64C368.323 338.423 368.839 338.314 369.372 338.314C370.052 338.314 370.638 338.432 371.13 338.666C371.628 338.9 372.035 339.229 372.352 339.65C372.668 340.066 372.902 340.559 373.055 341.127C373.207 341.689 373.283 342.305 373.283 342.973V343.702H366.182V342.375H371.657V342.252C371.634 341.83 371.546 341.42 371.394 341.021C371.247 340.623 371.013 340.295 370.69 340.037C370.368 339.779 369.929 339.65 369.372 339.65C369.003 339.65 368.663 339.729 368.353 339.888C368.042 340.04 367.775 340.269 367.553 340.573C367.33 340.878 367.157 341.25 367.034 341.689C366.911 342.129 366.85 342.636 366.85 343.21V343.579C366.85 344.03 366.911 344.455 367.034 344.854C367.163 345.246 367.348 345.592 367.588 345.891C367.834 346.189 368.13 346.424 368.476 346.594C368.827 346.764 369.226 346.849 369.671 346.849C370.245 346.849 370.731 346.731 371.13 346.497C371.528 346.263 371.877 345.949 372.176 345.557L373.16 346.339C372.955 346.649 372.694 346.945 372.378 347.227C372.062 347.508 371.672 347.736 371.209 347.912C370.752 348.088 370.21 348.176 369.583 348.176ZM376.808 339.984V348H375.182V338.49H376.764L376.808 339.984ZM379.778 338.438L379.77 339.949C379.635 339.92 379.506 339.902 379.383 339.896C379.266 339.885 379.131 339.879 378.979 339.879C378.604 339.879 378.272 339.938 377.985 340.055C377.698 340.172 377.455 340.336 377.256 340.547C377.057 340.758 376.898 341.01 376.781 341.303C376.67 341.59 376.597 341.906 376.562 342.252L376.104 342.516C376.104 341.941 376.16 341.402 376.271 340.898C376.389 340.395 376.567 339.949 376.808 339.562C377.048 339.17 377.353 338.865 377.722 338.648C378.097 338.426 378.542 338.314 379.058 338.314C379.175 338.314 379.31 338.329 379.462 338.358C379.614 338.382 379.72 338.408 379.778 338.438ZM386.818 345.478C386.818 345.243 386.766 345.026 386.66 344.827C386.561 344.622 386.353 344.438 386.036 344.273C385.726 344.104 385.257 343.957 384.63 343.834C384.103 343.723 383.625 343.591 383.197 343.438C382.775 343.286 382.415 343.102 382.116 342.885C381.823 342.668 381.598 342.413 381.439 342.12C381.281 341.827 381.202 341.484 381.202 341.092C381.202 340.717 381.284 340.362 381.448 340.028C381.618 339.694 381.855 339.398 382.16 339.141C382.471 338.883 382.843 338.681 383.276 338.534C383.71 338.388 384.193 338.314 384.727 338.314C385.488 338.314 386.139 338.449 386.678 338.719C387.217 338.988 387.63 339.349 387.917 339.8C388.204 340.245 388.348 340.74 388.348 341.285H386.722C386.722 341.021 386.643 340.767 386.484 340.521C386.332 340.269 386.106 340.061 385.808 339.896C385.515 339.732 385.154 339.65 384.727 339.65C384.275 339.65 383.909 339.721 383.628 339.861C383.353 339.996 383.15 340.169 383.021 340.38C382.898 340.591 382.837 340.813 382.837 341.048C382.837 341.224 382.866 341.382 382.925 341.522C382.989 341.657 383.101 341.783 383.259 341.9C383.417 342.012 383.64 342.117 383.927 342.217C384.214 342.316 384.58 342.416 385.025 342.516C385.805 342.691 386.446 342.902 386.95 343.148C387.454 343.395 387.829 343.696 388.075 344.054C388.321 344.411 388.444 344.845 388.444 345.354C388.444 345.771 388.356 346.151 388.181 346.497C388.011 346.843 387.762 347.142 387.434 347.394C387.111 347.64 386.725 347.833 386.273 347.974C385.828 348.108 385.327 348.176 384.771 348.176C383.933 348.176 383.224 348.026 382.644 347.728C382.063 347.429 381.624 347.042 381.325 346.567C381.026 346.093 380.877 345.592 380.877 345.064H382.512C382.535 345.51 382.664 345.864 382.898 346.128C383.133 346.386 383.42 346.57 383.76 346.682C384.1 346.787 384.437 346.84 384.771 346.84C385.216 346.84 385.588 346.781 385.887 346.664C386.191 346.547 386.423 346.386 386.581 346.181C386.739 345.976 386.818 345.741 386.818 345.478ZM394.526 348.176C393.864 348.176 393.264 348.064 392.725 347.842C392.191 347.613 391.731 347.294 391.345 346.884C390.964 346.474 390.671 345.987 390.466 345.425C390.261 344.862 390.158 344.247 390.158 343.579V343.21C390.158 342.437 390.272 341.748 390.501 341.145C390.729 340.535 391.04 340.02 391.433 339.598C391.825 339.176 392.271 338.856 392.769 338.64C393.267 338.423 393.782 338.314 394.315 338.314C394.995 338.314 395.581 338.432 396.073 338.666C396.571 338.9 396.979 339.229 397.295 339.65C397.611 340.066 397.846 340.559 397.998 341.127C398.15 341.689 398.227 342.305 398.227 342.973V343.702H391.125V342.375H396.601V342.252C396.577 341.83 396.489 341.42 396.337 341.021C396.19 340.623 395.956 340.295 395.634 340.037C395.312 339.779 394.872 339.65 394.315 339.65C393.946 339.65 393.606 339.729 393.296 339.888C392.985 340.04 392.719 340.269 392.496 340.573C392.273 340.878 392.101 341.25 391.978 341.689C391.854 342.129 391.793 342.636 391.793 343.21V343.579C391.793 344.03 391.854 344.455 391.978 344.854C392.106 345.246 392.291 345.592 392.531 345.891C392.777 346.189 393.073 346.424 393.419 346.594C393.771 346.764 394.169 346.849 394.614 346.849C395.188 346.849 395.675 346.731 396.073 346.497C396.472 346.263 396.82 345.949 397.119 345.557L398.104 346.339C397.898 346.649 397.638 346.945 397.321 347.227C397.005 347.508 396.615 347.736 396.152 347.912C395.695 348.088 395.153 348.176 394.526 348.176Z" fill="white"/>
<path d="M325.951 61H323.279L323.297 59.6201H325.951C326.865 59.6201 327.627 59.4297 328.236 59.0488C328.846 58.6621 329.303 58.123 329.607 57.4316C329.918 56.7344 330.073 55.9199 330.073 54.9883V54.2061C330.073 53.4736 329.985 52.8232 329.81 52.2549C329.634 51.6807 329.376 51.1973 329.036 50.8047C328.696 50.4062 328.28 50.1045 327.788 49.8994C327.302 49.6943 326.742 49.5918 326.109 49.5918H323.227V48.2031H326.109C326.947 48.2031 327.712 48.3438 328.403 48.625C329.095 48.9004 329.689 49.3018 330.188 49.8291C330.691 50.3506 331.078 50.9834 331.348 51.7275C331.617 52.4658 331.752 53.2979 331.752 54.2236V54.9883C331.752 55.9141 331.617 56.749 331.348 57.4932C331.078 58.2314 330.688 58.8613 330.179 59.3828C329.675 59.9043 329.065 60.3057 328.351 60.5869C327.642 60.8623 326.842 61 325.951 61ZM324.185 48.2031V61H322.488V48.2031H324.185ZM338.001 61.1758C337.339 61.1758 336.738 61.0645 336.199 60.8418C335.666 60.6133 335.206 60.2939 334.819 59.8838C334.438 59.4736 334.146 58.9873 333.94 58.4248C333.735 57.8623 333.633 57.2471 333.633 56.5791V56.21C333.633 55.4365 333.747 54.748 333.976 54.1445C334.204 53.5352 334.515 53.0195 334.907 52.5977C335.3 52.1758 335.745 51.8564 336.243 51.6396C336.741 51.4229 337.257 51.3145 337.79 51.3145C338.47 51.3145 339.056 51.4316 339.548 51.666C340.046 51.9004 340.453 52.2285 340.77 52.6504C341.086 53.0664 341.32 53.5586 341.473 54.127C341.625 54.6895 341.701 55.3047 341.701 55.9727V56.7021H334.6V55.375H340.075V55.252C340.052 54.8301 339.964 54.4199 339.812 54.0215C339.665 53.623 339.431 53.2949 339.108 53.0371C338.786 52.7793 338.347 52.6504 337.79 52.6504C337.421 52.6504 337.081 52.7295 336.771 52.8877C336.46 53.04 336.193 53.2686 335.971 53.5732C335.748 53.8779 335.575 54.25 335.452 54.6895C335.329 55.1289 335.268 55.6357 335.268 56.21V56.5791C335.268 57.0303 335.329 57.4551 335.452 57.8535C335.581 58.2461 335.766 58.5918 336.006 58.8906C336.252 59.1895 336.548 59.4238 336.894 59.5938C337.245 59.7637 337.644 59.8486 338.089 59.8486C338.663 59.8486 339.149 59.7314 339.548 59.4971C339.946 59.2627 340.295 58.9492 340.594 58.5566L341.578 59.3389C341.373 59.6494 341.112 59.9453 340.796 60.2266C340.479 60.5078 340.09 60.7363 339.627 60.9121C339.17 61.0879 338.628 61.1758 338.001 61.1758ZM345.542 48.2031V61H343.846V48.2031H345.542ZM350.903 53.96V55.3486H345.173V53.96H350.903ZM351.773 48.2031V49.5918H345.173V48.2031H351.773ZM355.315 51.4902V61H353.681V51.4902H355.315ZM353.558 48.9678C353.558 48.7041 353.637 48.4814 353.795 48.2998C353.959 48.1182 354.199 48.0273 354.516 48.0273C354.826 48.0273 355.063 48.1182 355.228 48.2998C355.397 48.4814 355.482 48.7041 355.482 48.9678C355.482 49.2197 355.397 49.4365 355.228 49.6182C355.063 49.7939 354.826 49.8818 354.516 49.8818C354.199 49.8818 353.959 49.7939 353.795 49.6182C353.637 49.4365 353.558 49.2197 353.558 48.9678Z" fill="white"/>
<defs>
<linearGradient id="paint0_linear_0_2163" x1="109.003" y1="168" x2="109.003" y2="268" gradientUnits="userSpaceOnUse">
<stop stop-color="#C8C1E6"/>
<stop offset="0.62" stop-color="#6F55E5"/>
<stop offset="0.65" stop-color="#2A00E4"/>
<stop offset="1" stop-color="#1C0099"/>
</linearGradient>
<linearGradient id="paint1_linear_0_2163" x1="483.003" y1="290" x2="483.003" y2="390" gradientUnits="userSpaceOnUse">
<stop stop-color="#C8C1E6"/>
<stop offset="0.62" stop-color="#6F55E5"/>
<stop offset="0.65" stop-color="#2A00E4"/>
<stop offset="1" stop-color="#1C0099"/>
</linearGradient>
<linearGradient id="paint2_linear_0_2163" x1="483.003" y1="413" x2="483.003" y2="513" gradientUnits="userSpaceOnUse">
<stop stop-color="#C8C1E6"/>
<stop offset="0.62" stop-color="#6F55E5"/>
<stop offset="0.65" stop-color="#2A00E4"/>
<stop offset="1" stop-color="#1C0099"/>
</linearGradient>
<linearGradient id="paint3_linear_0_2163" x1="483.003" y1="167" x2="483.003" y2="267" gradientUnits="userSpaceOnUse">
<stop stop-color="#C8C1E6"/>
<stop offset="0.62" stop-color="#6F55E5"/>
<stop offset="0.65" stop-color="#2A00E4"/>
<stop offset="1" stop-color="#1C0099"/>
</linearGradient>
</defs>
</svg>
