<svg width="552" height="551" viewBox="0 0 552 551" fill="none" xmlns="http://www.w3.org/2000/svg">
<g clip-path="url(#clip0_0_2163)">
<path d="M35.6631 67.94C34.29 67.94 33.131 67.6367 32.1859 67.03C31.2408 66.4169 30.5255 65.5707 30.0401 64.4915C29.5548 63.4123 29.3121 62.167 29.3121 60.7556C29.3121 59.3443 29.5548 58.099 30.0401 57.0198C30.5255 55.9406 31.2408 55.0976 32.1859 54.4909C33.131 53.8778 34.29 53.5713 35.6631 53.5713C37.266 53.5713 38.5752 53.9832 39.5905 54.807C40.6059 55.6245 41.302 56.7228 41.6788 58.1022L40.2419 58.4758C39.9482 57.3838 39.4213 56.5184 38.6614 55.8799C37.9014 55.2413 36.902 54.9219 35.6631 54.9219C34.5839 54.9219 33.6866 55.1678 32.9714 55.6595C32.2562 56.1513 31.7165 56.8378 31.3525 57.719C30.9948 58.594 30.8097 59.6061 30.7969 60.7556C30.7906 61.9051 30.9661 62.9173 31.3238 63.7922C31.6878 64.6672 32.2305 65.3536 32.9522 65.8517C33.6802 66.3435 34.5839 66.5893 35.6631 66.5893C36.902 66.5893 37.9014 66.27 38.6614 65.6314C39.4213 64.9864 39.9482 64.1211 40.2419 63.0355L41.6788 63.4091C41.302 64.7885 40.6059 65.89 39.5905 66.7139C38.5752 67.5313 37.266 67.94 35.6631 67.94ZM43.7923 67.6526V57.3071H45.0568V59.7977L44.8077 59.472C44.9226 59.1655 45.0728 58.8845 45.2579 58.6291C45.4431 58.3672 45.6443 58.1533 45.8614 57.9873C46.1296 57.751 46.4426 57.5721 46.8002 57.4508C47.1578 57.3231 47.5186 57.2497 47.8826 57.2305C48.2466 57.205 48.5788 57.2305 48.8788 57.3071V58.6291C48.5021 58.5333 48.0902 58.5109 47.6431 58.562C47.1961 58.6131 46.7842 58.7919 46.4074 59.0984C46.0626 59.3667 45.8039 59.6891 45.6315 60.0659C45.4591 60.4363 45.3441 60.8323 45.2866 61.2537C45.2292 61.6689 45.2004 62.0808 45.2004 62.4895V67.6526H43.7923ZM52.0403 72.2506L54.0423 66.8192L54.0711 68.4285L49.5401 57.3071H51.0345L54.7512 66.6085H54.1381L57.5675 57.3071H59.0043L53.4484 72.2506H52.0403ZM65.314 67.94C64.3624 67.94 63.5578 67.7005 62.9 67.2215C62.2422 66.7362 61.7441 66.0816 61.4057 65.2578C61.0672 64.4277 60.898 63.4985 60.898 62.4703C60.898 61.4229 61.0672 60.4907 61.4057 59.6732C61.7505 58.8494 62.255 58.2012 62.9192 57.7286C63.5833 57.256 64.4007 57.0198 65.3715 57.0198C66.3166 57.0198 67.1275 57.2593 67.8046 57.7382C68.4814 58.2172 68.9987 58.8685 69.3564 59.6924C69.7204 60.5162 69.9024 61.4421 69.9024 62.4703C69.9024 63.5048 69.7204 64.434 69.3564 65.2578C68.9924 66.0816 68.4686 66.7362 67.7854 67.2215C67.102 67.7005 66.2782 67.94 65.314 67.94ZM60.6585 72.2506V57.3071H61.923V65.095H62.0762V72.2506H60.6585ZM65.1703 66.6276C65.8918 66.6276 66.4922 66.4456 66.9712 66.0816C67.4501 65.7176 67.8077 65.2227 68.044 64.5969C68.2866 63.9646 68.408 63.2558 68.408 62.4703C68.408 61.6912 68.2899 60.9888 68.0536 60.3629C67.8172 59.737 67.4565 59.2421 66.9712 58.8781C66.4922 58.5141 65.8823 58.3321 65.1416 58.3321C64.4199 58.3321 63.8196 58.5078 63.3407 58.859C62.8681 59.2102 62.5136 59.6987 62.2774 60.3246C62.041 60.944 61.923 61.6593 61.923 62.4703C61.923 63.2686 62.041 63.9838 62.2774 64.616C62.5136 65.2419 62.8713 65.7335 63.3503 66.0912C63.8292 66.4489 64.4358 66.6276 65.1703 66.6276ZM77.6384 67.6526C77.0573 67.7739 76.4825 67.8218 75.9141 67.7963C75.3522 67.7708 74.8477 67.6494 74.4006 67.4323C73.96 67.2152 73.6247 66.8767 73.3948 66.4169C73.2097 66.0337 73.1074 65.6473 73.0883 65.2578C73.0756 64.8618 73.0691 64.4116 73.0691 63.9072V54.4334H74.4677V63.8497C74.4677 64.284 74.4709 64.648 74.4773 64.9417C74.4901 65.2291 74.5571 65.4845 74.6784 65.708C74.9083 66.1359 75.2723 66.3914 75.7704 66.4744C76.275 66.5574 76.8977 66.5382 77.6384 66.4169V67.6526ZM70.8563 58.5141V57.3071H77.6384V58.5141H70.8563ZM83.6227 67.94C82.5945 67.94 81.7164 67.7068 80.9884 67.2407C80.2604 66.7746 79.7016 66.1295 79.3121 65.3057C78.9224 64.4819 78.7277 63.5368 78.7277 62.4703C78.7277 61.3846 78.9257 60.4332 79.3217 59.6157C79.7175 58.7983 80.2796 58.1629 81.0076 57.7095C81.7419 57.2497 82.6137 57.0198 83.6227 57.0198C84.6572 57.0198 85.5385 57.2529 86.2665 57.719C87.0009 58.1788 87.5597 58.8207 87.9429 59.6445C88.3324 60.4619 88.5272 61.4038 88.5272 62.4703C88.5272 63.556 88.3324 64.5107 87.9429 65.3345C87.5532 66.1519 86.9913 66.7905 86.257 67.2503C85.5225 67.7101 84.6444 67.94 83.6227 67.94ZM83.6227 66.5893C84.7722 66.5893 85.6278 66.2094 86.1899 65.4494C86.7518 64.6831 87.0329 63.6901 87.0329 62.4703C87.0329 61.2187 86.7486 60.2224 86.1803 59.4816C85.6183 58.7408 84.7657 58.3704 83.6227 58.3704C82.8499 58.3704 82.2113 58.5461 81.7069 58.8973C81.2087 59.2421 80.8352 59.7243 80.5861 60.3437C80.3434 60.9568 80.2221 61.6657 80.2221 62.4703C80.2221 63.7156 80.5095 64.715 81.0842 65.4686C81.659 66.2157 82.505 66.5893 83.6227 66.5893Z" fill="#434343"/>
<path d="M177.044 211.34L173.059 197.546H174.525L177.753 208.935L180.962 197.555L182.437 197.546L185.665 208.935L188.874 197.546H190.349L186.374 211.34H184.956L181.699 200.027L178.462 211.34H177.044ZM195.243 211.627C194.235 211.627 193.36 211.403 192.618 210.956C191.884 210.51 191.313 209.88 190.904 209.069C190.495 208.259 190.291 207.307 190.291 206.215C190.291 205.084 190.492 204.107 190.894 203.284C191.296 202.46 191.862 201.824 192.59 201.377C193.325 200.931 194.189 200.707 195.186 200.707C196.208 200.707 197.08 200.943 197.801 201.416C198.523 201.881 199.069 202.552 199.439 203.427C199.81 204.303 199.979 205.347 199.946 206.56H198.51V206.062C198.484 204.72 198.193 203.709 197.638 203.025C197.089 202.341 196.285 202 195.224 202C194.113 202 193.26 202.36 192.666 203.082C192.08 203.804 191.785 204.832 191.785 206.167C191.785 207.47 192.08 208.481 192.666 209.203C193.26 209.918 194.101 210.276 195.186 210.276C195.927 210.276 196.572 210.107 197.121 209.769C197.676 209.424 198.114 208.929 198.433 208.284L199.745 208.792C199.337 209.692 198.733 210.391 197.935 210.889C197.143 211.382 196.246 211.627 195.243 211.627ZM191.287 206.56V205.381H199.19V206.56H191.287ZM206.719 211.627C205.767 211.627 204.962 211.388 204.305 210.909C203.648 210.424 203.149 209.769 202.811 208.945C202.472 208.115 202.303 207.186 202.303 206.157C202.303 205.11 202.472 204.178 202.811 203.36C203.155 202.536 203.66 201.889 204.324 201.416C204.989 200.943 205.805 200.707 206.776 200.707C207.721 200.707 208.533 200.946 209.209 201.425C209.886 201.904 210.403 202.556 210.761 203.379C211.125 204.203 211.307 205.129 211.307 206.157C211.307 207.192 211.125 208.121 210.761 208.945C210.397 209.769 209.874 210.424 209.19 210.909C208.507 211.388 207.683 211.627 206.719 211.627ZM202.063 211.34V197.546H203.481V203.552H203.328V211.34H202.063ZM206.575 210.315C207.297 210.315 207.897 210.133 208.376 209.769C208.855 209.405 209.213 208.91 209.449 208.284C209.692 207.652 209.813 206.943 209.813 206.157C209.813 205.378 209.694 204.676 209.458 204.05C209.223 203.424 208.861 202.929 208.376 202.565C207.897 202.201 207.288 202.019 206.546 202.019C205.824 202.019 205.224 202.195 204.746 202.546C204.273 202.897 203.918 203.385 203.682 204.012C203.446 204.631 203.328 205.347 203.328 206.157C203.328 206.956 203.446 207.671 203.682 208.303C203.918 208.929 204.276 209.42 204.755 209.778C205.234 210.136 205.841 210.315 206.575 210.315ZM220.953 211.617C220.27 211.617 219.641 211.496 219.066 211.253C218.492 211.01 217.996 210.665 217.582 210.219C217.166 209.765 216.863 209.226 216.672 208.6L218.013 208.198C218.243 208.881 218.618 209.399 219.143 209.749C219.672 210.1 220.27 210.27 220.934 210.257C221.547 210.244 222.074 210.107 222.515 209.845C222.961 209.583 223.303 209.219 223.54 208.753C223.776 208.287 223.894 207.747 223.894 207.134C223.894 206.196 223.619 205.442 223.07 204.874C222.527 204.299 221.808 204.012 220.915 204.012C220.666 204.012 220.404 204.046 220.13 204.117C219.854 204.18 219.599 204.274 219.363 204.395L218.654 203.274L224.019 198.322L224.249 198.896H217.218V197.546H225.187V198.915L220.513 203.379L220.494 202.824C221.452 202.703 222.294 202.811 223.023 203.149C223.751 203.488 224.318 204.006 224.728 204.701C225.142 205.391 225.35 206.202 225.35 207.134C225.35 208.016 225.159 208.795 224.775 209.472C224.398 210.142 223.877 210.669 223.214 211.052C222.55 211.429 221.796 211.617 220.953 211.617Z" fill="#434343"/>
<path d="M178.414 355.314C177.443 355.314 176.569 355.145 175.789 354.806C175.01 354.467 174.346 353.986 173.797 353.36C173.254 352.734 172.839 351.98 172.551 351.099C172.264 350.212 172.12 349.222 172.12 348.13C172.12 346.687 172.369 345.428 172.867 344.356C173.372 343.277 174.094 342.44 175.032 341.846C175.971 341.252 177.098 340.955 178.414 340.955C179.883 340.955 181.077 341.3 181.996 341.989C182.922 342.673 183.567 343.593 183.931 344.748L182.514 345.093C182.213 344.25 181.719 343.576 181.029 343.072C180.345 342.568 179.493 342.315 178.471 342.315C177.392 342.309 176.494 342.551 175.779 343.043C175.065 343.528 174.525 344.212 174.161 345.093C173.803 345.968 173.621 346.98 173.615 348.13C173.609 349.279 173.783 350.291 174.141 351.166C174.505 352.034 175.048 352.718 175.77 353.216C176.492 353.708 177.392 353.957 178.471 353.963C179.461 353.963 180.278 353.772 180.923 353.389C181.569 353.005 182.057 352.456 182.389 351.741C182.728 351.026 182.92 350.18 182.964 349.203H179.784V347.996H184.439C184.458 348.143 184.468 348.298 184.468 348.465C184.474 348.624 184.477 348.739 184.477 348.81C184.477 350.055 184.253 351.17 183.807 352.153C183.36 353.13 182.686 353.902 181.786 354.471C180.891 355.033 179.768 355.314 178.414 355.314ZM189.354 355.314C188.575 355.314 187.921 355.174 187.391 354.893C186.867 354.611 186.475 354.238 186.212 353.772C185.95 353.306 185.82 352.798 185.82 352.249C185.82 351.687 185.931 351.208 186.155 350.812C186.385 350.41 186.695 350.08 187.084 349.825C187.48 349.57 187.937 349.375 188.454 349.241C188.977 349.113 189.555 349.001 190.188 348.906C190.826 348.804 191.449 348.718 192.056 348.647C192.669 348.57 193.205 348.497 193.665 348.427L193.167 348.733C193.186 347.712 192.988 346.955 192.573 346.463C192.157 345.971 191.437 345.725 190.408 345.725C189.699 345.725 189.099 345.885 188.607 346.204C188.122 346.524 187.78 347.028 187.582 347.718L186.212 347.315C186.448 346.39 186.925 345.671 187.64 345.16C188.354 344.649 189.284 344.394 190.427 344.394C191.372 344.394 192.174 344.572 192.832 344.93C193.496 345.281 193.965 345.792 194.24 346.463C194.368 346.763 194.45 347.099 194.489 347.469C194.527 347.839 194.546 348.216 194.546 348.599V355.027H193.291V352.431L193.655 352.584C193.304 353.471 192.758 354.149 192.017 354.615C191.276 355.081 190.389 355.314 189.354 355.314ZM189.517 354.097C190.174 354.097 190.749 353.979 191.241 353.743C191.734 353.507 192.129 353.184 192.429 352.776C192.73 352.36 192.924 351.894 193.014 351.377C193.09 351.045 193.132 350.681 193.138 350.285C193.144 349.883 193.148 349.582 193.148 349.385L193.684 349.662C193.205 349.726 192.684 349.79 192.123 349.854C191.567 349.917 191.017 349.992 190.475 350.074C189.939 350.157 189.454 350.256 189.019 350.371C188.726 350.454 188.441 350.572 188.166 350.726C187.892 350.873 187.665 351.07 187.486 351.32C187.314 351.569 187.228 351.879 187.228 352.249C187.228 352.549 187.301 352.839 187.448 353.12C187.601 353.402 187.844 353.634 188.176 353.82C188.515 354.005 188.962 354.097 189.517 354.097ZM209.378 355.027L209.388 348.235C209.388 347.436 209.164 346.811 208.717 346.358C208.277 345.898 207.714 345.668 207.031 345.668C206.641 345.668 206.261 345.758 205.891 345.936C205.52 346.114 205.214 346.402 204.972 346.798C204.735 347.194 204.617 347.712 204.617 348.35L203.784 348.111C203.765 347.369 203.909 346.722 204.215 346.166C204.528 345.61 204.955 345.179 205.499 344.873C206.047 344.56 206.667 344.403 207.357 344.403C208.398 344.403 209.231 344.725 209.857 345.371C210.482 346.009 210.796 346.875 210.796 347.967L210.786 355.027H209.378ZM197.031 355.027V344.681H198.295V347.229H198.448V355.027H197.031ZM203.219 355.027L203.228 348.331C203.228 347.507 203.008 346.859 202.567 346.386C202.133 345.907 201.558 345.668 200.843 345.668C200.127 345.668 199.55 345.913 199.109 346.405C198.669 346.89 198.448 347.539 198.448 348.35L197.606 347.89C197.606 347.226 197.761 346.632 198.075 346.108C198.387 345.578 198.815 345.164 199.358 344.863C199.901 344.557 200.518 344.403 201.207 344.403C201.865 344.403 202.449 344.543 202.96 344.825C203.478 345.106 203.882 345.515 204.177 346.051C204.47 346.587 204.617 347.239 204.617 348.005L204.608 355.027H203.219ZM217.583 355.314C216.573 355.314 215.698 355.09 214.958 354.643C214.223 354.197 213.652 353.567 213.243 352.756C212.834 351.946 212.63 350.994 212.63 349.902C212.63 348.771 212.832 347.794 213.234 346.971C213.636 346.147 214.201 345.511 214.929 345.064C215.663 344.618 216.529 344.394 217.525 344.394C218.547 344.394 219.418 344.63 220.14 345.103C220.861 345.568 221.407 346.239 221.778 347.114C222.148 347.99 222.317 349.034 222.286 350.247H220.849V349.749C220.823 348.407 220.533 347.396 219.978 346.712C219.428 346.028 218.623 345.687 217.564 345.687C216.452 345.687 215.6 346.047 215.006 346.769C214.418 347.491 214.125 348.519 214.125 349.854C214.125 351.157 214.418 352.168 215.006 352.891C215.6 353.605 216.439 353.963 217.525 353.963C218.265 353.963 218.911 353.795 219.46 353.456C220.016 353.111 220.453 352.616 220.773 351.971L222.085 352.479C221.675 353.379 221.072 354.078 220.275 354.576C219.482 355.069 218.585 355.314 217.583 355.314ZM213.627 350.247V349.068H221.529V350.247H213.627ZM225.436 355.027V343.915C225.436 343.647 225.45 343.382 225.475 343.12C225.507 342.858 225.567 342.609 225.657 342.373C225.747 342.13 225.887 341.907 226.078 341.702C226.289 341.472 226.519 341.306 226.768 341.204C227.017 341.095 227.276 341.026 227.544 340.993C227.818 340.961 228.086 340.945 228.349 340.945H229.67V342.133H228.444C227.908 342.133 227.506 342.264 227.237 342.526C226.975 342.788 226.845 343.2 226.845 343.762V355.027H225.436ZM223.645 345.888V344.681H229.67V345.888H223.645ZM231.682 342.717V341.137H233.09V342.717H231.682ZM231.682 355.027V344.681H233.09V355.027H231.682Z" fill="#434343"/>
<path d="M328.884 67.6527V53.8587H333.07C333.217 53.8587 333.466 53.862 333.817 53.8683C334.175 53.8747 334.516 53.9003 334.842 53.9449C335.89 54.0919 336.764 54.4814 337.467 55.1136C338.17 55.7458 338.697 56.5505 339.047 57.5275C339.398 58.5046 339.574 59.5807 339.574 60.7557C339.574 61.9307 339.398 63.0068 339.047 63.9839C338.697 64.9609 338.17 65.7656 337.467 66.3978C336.764 67.03 335.89 67.4195 334.842 67.5665C334.522 67.6048 334.181 67.6303 333.817 67.6431C333.453 67.6494 333.204 67.6527 333.07 67.6527H328.884ZM330.34 66.302H333.07C333.332 66.302 333.612 66.2957 333.913 66.2829C334.22 66.2637 334.482 66.2317 334.698 66.1871C335.503 66.0466 336.151 65.7209 336.643 65.21C337.141 64.6991 337.505 64.0605 337.735 63.2942C337.965 62.5215 338.08 61.6753 338.08 60.7557C338.08 59.8298 337.965 58.9803 337.735 58.2077C337.505 57.435 337.141 56.7963 336.643 56.2918C336.145 55.7874 335.497 55.4648 334.698 55.3243C334.482 55.2797 334.216 55.2509 333.903 55.2381C333.597 55.219 333.319 55.2094 333.07 55.2094H330.34V66.302ZM346.134 67.9401C345.124 67.9401 344.25 67.7165 343.509 67.2695C342.775 66.8225 342.203 66.1934 341.794 65.3824C341.386 64.5714 341.181 63.6199 341.181 62.5278C341.181 61.3975 341.382 60.4204 341.785 59.5966C342.187 58.7728 342.752 58.1374 343.48 57.6904C344.214 57.2434 345.08 57.0198 346.076 57.0198C347.097 57.0198 347.969 57.2561 348.691 57.7287C349.413 58.1948 349.959 58.8654 350.329 59.7403C350.699 60.6152 350.869 61.6594 350.837 62.8727H349.4V62.3746C349.375 61.0335 349.084 60.0213 348.528 59.338C347.979 58.6546 347.174 58.313 346.114 58.313C345.003 58.313 344.151 58.6738 343.557 59.3955C342.969 60.1171 342.675 61.1452 342.675 62.4799C342.675 63.7827 342.969 64.7949 343.557 65.5165C344.151 66.2317 344.99 66.5894 346.076 66.5894C346.817 66.5894 347.461 66.4202 348.011 66.0817C348.567 65.7368 349.004 65.242 349.323 64.5969L350.636 65.1046C350.227 66.0051 349.624 66.7043 348.825 67.2025C348.034 67.6942 347.136 67.9401 346.134 67.9401ZM342.177 62.8727V61.6945H350.08V62.8727H342.177ZM352.962 67.6527V53.8587H360.884V55.2669H354.37V60.0564H359.735V61.455H354.37V67.6527H352.962ZM362.808 55.3435V53.7629H364.217V55.3435H362.808ZM362.808 67.6527V57.3072H364.217V67.6527H362.808Z" fill="#434343"/>
<rect x="0.248047" y="0.340088" width="115" height="114" rx="11.5" fill="black" stroke="#2F00FF"/>
<rect x="0.248047" y="147.34" width="115" height="114" rx="11.5" fill="black" stroke="url(#paint0_linear_0_2163)"/>
<rect x="145.248" y="147.34" width="115" height="114" rx="11.5" fill="black" stroke="#2F00FF"/>
<rect x="289.248" y="3.34009" width="115" height="114" rx="11.5" fill="black" stroke="#2F00FF"/>
<rect x="145.248" y="290.34" width="115" height="114" rx="11.5" fill="black" stroke="#2F00FF"/>
<rect x="289.5" y="290.5" width="115" height="114" rx="11.5" fill="black" stroke="#2F00FF"/>
</g>
<defs>
<linearGradient id="paint0_linear_0_2163" x1="57.748" y1="146.84" x2="57.748" y2="261.84" gradientUnits="userSpaceOnUse">
<stop stop-color="#C8C1E6"/>
<stop offset="0.62" stop-color="#6F55E5"/>
<stop offset="0.65" stop-color="#2A00E4"/>
<stop offset="1" stop-color="#1C0099"/>
</linearGradient>
<clipPath id="clip0_0_2163">
<rect width="551.997" height="550.8" fill="white"/>
</clipPath>
</defs>
</svg>
