<svg width="70" height="48" viewBox="0 0 70 48" fill="none" xmlns="http://www.w3.org/2000/svg">
<g clip-path="url(#clip0_74_2968)">
<path d="M15 12H54.9791V35.9973H15V12Z" fill="white"/>
<path d="M32.9904 26.391V35.9973H36.9888V26.391H54.9792V21.5936H36.9888V12H32.9904V21.5936H15V26.391H32.9904Z" fill="#CF142B"/>
<path d="M38.322 19.7678V12H51.266L38.322 19.7678ZM38.322 28.2293V35.9973H51.266L38.322 28.2293ZM31.6571 28.2293V35.9973H18.7132L31.6571 28.2293ZM31.6571 19.7678V12H18.7132L31.6571 19.7678ZM15.0001 14.2307V19.9989H24.6117L15.0001 14.2307ZM54.9791 14.2307V19.9989H45.3675L54.9791 14.2307ZM54.9791 33.7666V27.9984H45.3675L54.9791 33.7666ZM15.0001 33.7666V27.9984H24.6117L15.0001 33.7666Z" fill="#00247D"/>
<path d="M54.9791 12H52.7585L39.4533 19.9989H41.6739L55 12M30.5257 27.9979H28.3052L15 35.9968H17.2205L30.5467 27.9979M26.1024 20.0051H28.3228L15 12V13.3416L26.1024 20.0051ZM43.8697 27.9949H41.6492L54.972 36V34.6584L43.8697 27.9949Z" fill="#CF142B"/>
</g>
<rect x="15.5" y="12.5" width="39" height="23" rx="3.5" stroke="#F4EBE7"/>
<defs>
<clipPath id="clip0_74_2968">
<rect x="15" y="12" width="40" height="24" rx="4" fill="white"/>
</clipPath>
</defs>
</svg>
