<svg width="40" height="24" viewBox="0 0 40 24" fill="none" xmlns="http://www.w3.org/2000/svg">
<g clip-path="url(#clip0_93_8074)">
<path d="M0 0H39.7292V23.9973H0V0Z" fill="white"/>
<path d="M17.878 14.391V23.9973H21.8514V14.391H39.7293V9.5936H21.8514V0H17.878V9.5936H0V14.391H17.878Z" fill="#CF142B"/>
<path d="M23.1762 7.76784V0H36.0393L23.1762 7.76784ZM23.1762 16.2293V23.9973H36.0393L23.1762 16.2293ZM16.553 16.2293V23.9973H3.68998L16.553 16.2293ZM16.553 7.76784V0H3.68998L16.553 7.76784ZM0.00012207 2.23072V7.99888H9.55165L0.00012207 2.23072ZM39.7292 2.23072V7.99888H30.1777L39.7292 2.23072ZM39.7292 21.7666V15.9984H30.1777L39.7292 21.7666ZM0.00012207 21.7666V15.9984H9.55165L0.00012207 21.7666Z" fill="#00247D"/>
<path d="M39.7292 0H37.5225L24.3005 7.99888H26.5072L39.75 0M15.4287 15.9979H13.222L0 23.9968H2.20665L15.4495 15.9979M11.033 8.00512H13.2395L0 0V1.3416L11.033 8.00512ZM28.6893 15.9949H26.4826L39.7222 24V22.6584L28.6893 15.9949Z" fill="#CF142B"/>
</g>
<rect x="0.5" y="0.5" width="38.75" height="23" rx="3.5" stroke="#F4EBE7"/>
<defs>
<clipPath id="clip0_93_8074">
<rect width="39.75" height="24" rx="4" fill="white"/>
</clipPath>
</defs>
</svg>
