<svg width="190" height="49" viewBox="0 0 190 49" fill="none" xmlns="http://www.w3.org/2000/svg">
<g clip-path="url(#clip0_0_2139)">
<g clip-path="url(#clip1_0_2139)">
<mask id="mask0_0_2139" style="mask-type:luminance" maskUnits="userSpaceOnUse" x="6" y="0" width="177" height="49">
<path d="M182.671 0.0600586H6.23096V48.0601H182.671V0.0600586Z" fill="white"/>
</mask>
<g mask="url(#mask0_0_2139)">
<path d="M92.7309 4.56006V34.7401C92.7309 35.1201 92.4309 35.4201 92.0509 35.4201H89.131C88.9309 35.4201 88.711 35.3201 88.591 35.1601L76.7509 19.8801V47.3601C76.7509 47.7401 76.4509 48.0401 76.0709 48.0401H6.91096C6.53096 48.0401 6.23096 47.7401 6.23096 47.3601V0.740059C6.23096 0.360059 6.53096 0.0600586 6.91096 0.0600586H79.9709C80.3509 0.0600586 80.6509 0.360059 80.6509 0.740059V3.86006C80.6509 4.24006 80.3509 4.54006 79.9709 4.54006H10.711V43.5601H72.2309V13.3801C72.2309 13.0001 72.5309 12.7001 72.9109 12.7001H76.2109C76.4109 12.7001 76.6309 12.8001 76.7509 12.9601L88.2309 27.7601V0.740059C88.2309 0.360059 88.5309 0.0600586 88.9109 0.0600586H181.971C182.351 0.0600586 182.651 0.360059 182.651 0.740059V47.3601C182.651 47.7401 182.351 48.0401 181.971 48.0401H84.9909C84.6109 48.0401 84.3109 47.7401 84.3109 47.3601V44.2401C84.3109 43.8601 84.6109 43.5601 84.9909 43.5601H178.171V4.56006H92.7309ZM107.611 24.1401V24.0801C107.611 17.4801 112.951 12.3001 119.771 12.3001C123.691 12.3001 126.031 13.2601 128.071 14.7601C128.391 15.0001 128.451 15.4601 128.191 15.7601L126.211 18.1001C125.991 18.3801 125.571 18.4201 125.291 18.2201C123.711 17.0601 122.091 16.3601 119.611 16.3601C115.651 16.3601 112.431 19.7801 112.431 24.0001V24.0601C112.431 28.5601 115.611 31.8201 119.991 31.8201C121.991 31.8201 123.771 31.3201 125.131 30.3601L125.271 30.2601V24.6401C125.271 24.2601 125.571 23.9601 125.951 23.9601H128.971C129.351 23.9601 129.651 24.2601 129.651 24.6401V31.9801C129.651 32.2001 129.551 32.4001 129.391 32.5201C126.673 34.6934 123.291 35.8657 119.811 35.8401C112.631 35.8401 107.631 31.0201 107.631 24.1401H107.611ZM20.6909 13.3801V34.7401C20.6909 35.1201 20.9909 35.4201 21.3709 35.4201H36.4509C36.8309 35.4201 37.1309 35.1201 37.1309 34.7401V32.1201C37.1309 31.7401 36.8309 31.4401 36.4509 31.4401H25.2509V13.3801C25.2509 13.0001 24.9509 12.7001 24.5709 12.7001H21.3909C21.0109 12.7001 20.7109 13.0001 20.7109 13.3801H20.6909ZM55.3909 12.7001H52.2109C51.8309 12.7001 51.5309 13.0001 51.5309 13.3801V34.7401C51.5309 35.1201 51.8309 35.4201 52.2109 35.4201H55.3909C55.7709 35.4201 56.0709 35.1201 56.0709 34.7401V13.3801C56.0709 13.0001 55.7709 12.7001 55.3909 12.7001ZM156.171 12.3001C149.231 12.3001 143.811 17.4601 143.811 24.0601V24.1201C143.811 30.7801 149.091 35.8201 156.091 35.8201C163.091 35.8201 168.451 30.6601 168.451 24.0601V24.0001C168.451 17.3401 163.171 12.3001 156.171 12.3001ZM163.671 24.1201C163.671 28.4801 160.451 31.7601 156.171 31.7601C151.891 31.7601 148.611 28.3801 148.611 24.0601V24.0001C148.611 19.6401 151.831 16.3601 156.111 16.3601C160.391 16.3601 163.671 19.7401 163.671 24.0601V24.1201Z" fill="white"/>
</g>
</g>
</g>
<defs>
<clipPath id="clip0_0_2139">
<rect width="189.11" height="48" fill="white" transform="translate(0.0600586 0.0600586)"/>
</clipPath>
<clipPath id="clip1_0_2139">
<rect width="193.333" height="48" fill="white" transform="translate(-2.05151 0.0600586)"/>
</clipPath>
</defs>
</svg>
