<svg width="552" height="551" viewBox="0 0 552 551" fill="none" xmlns="http://www.w3.org/2000/svg">
<rect x="59.5" y="168.5" width="99" height="99" rx="11.5" fill="black" stroke="url(#paint0_linear_0_2163)"/>
<rect x="176.5" y="290.5" width="99" height="99" rx="11.5" fill="black" stroke="url(#paint1_linear_0_2163)"/>
<rect x="293.5" y="290.5" width="99" height="99" rx="11.5" fill="black" stroke="url(#paint2_linear_0_2163)"/>
<rect x="59.5" y="44.5" width="99" height="99" rx="11.5" fill="black" stroke="url(#paint3_linear_0_2163)"/>
<rect x="176.5" y="168.5" width="99" height="99" rx="11.5" fill="black" stroke="url(#paint4_linear_0_2163)"/>
<rect x="293.5" y="167.5" width="99" height="99" rx="11.5" fill="black" stroke="url(#paint5_linear_0_2163)"/>
<rect x="410.5" y="290.5" width="99" height="99" rx="11.5" fill="black" stroke="url(#paint6_linear_0_2163)"/>
<rect x="410.5" y="413.5" width="99" height="99" rx="11.5" fill="black" stroke="url(#paint7_linear_0_2163)"/>
<path d="M207.852 220.133L210.392 211.203H211.622L210.91 214.675L208.177 224H206.955L207.852 220.133ZM205.224 211.203L207.245 219.957L207.852 224H206.639L203.536 211.203H205.224ZM214.909 219.948L216.887 211.203H218.583L215.489 224H214.276L214.909 219.948ZM211.807 211.203L214.276 220.133L215.173 224H213.951L211.314 214.675L210.594 211.203H211.807ZM223.883 224.176C223.221 224.176 222.62 224.064 222.081 223.842C221.548 223.613 221.088 223.294 220.701 222.884C220.32 222.474 220.027 221.987 219.822 221.425C219.617 220.862 219.515 220.247 219.515 219.579V219.21C219.515 218.437 219.629 217.748 219.857 217.145C220.086 216.535 220.396 216.02 220.789 215.598C221.182 215.176 221.627 214.856 222.125 214.64C222.623 214.423 223.139 214.314 223.672 214.314C224.352 214.314 224.938 214.432 225.43 214.666C225.928 214.9 226.335 215.229 226.651 215.65C226.968 216.066 227.202 216.559 227.354 217.127C227.507 217.689 227.583 218.305 227.583 218.973V219.702H220.481V218.375H225.957V218.252C225.934 217.83 225.846 217.42 225.693 217.021C225.547 216.623 225.312 216.295 224.99 216.037C224.668 215.779 224.229 215.65 223.672 215.65C223.303 215.65 222.963 215.729 222.652 215.888C222.342 216.04 222.075 216.269 221.853 216.573C221.63 216.878 221.457 217.25 221.334 217.689C221.211 218.129 221.149 218.636 221.149 219.21V219.579C221.149 220.03 221.211 220.455 221.334 220.854C221.463 221.246 221.647 221.592 221.888 221.891C222.134 222.189 222.43 222.424 222.775 222.594C223.127 222.764 223.525 222.849 223.971 222.849C224.545 222.849 225.031 222.731 225.43 222.497C225.828 222.263 226.177 221.949 226.476 221.557L227.46 222.339C227.255 222.649 226.994 222.945 226.678 223.227C226.361 223.508 225.972 223.736 225.509 223.912C225.052 224.088 224.51 224.176 223.883 224.176ZM229.473 210.5H231.107V222.154L230.967 224H229.473V210.5ZM237.532 219.166V219.351C237.532 220.042 237.45 220.684 237.286 221.275C237.122 221.861 236.882 222.371 236.565 222.805C236.249 223.238 235.862 223.575 235.405 223.815C234.948 224.056 234.424 224.176 233.832 224.176C233.229 224.176 232.698 224.073 232.241 223.868C231.79 223.657 231.409 223.355 231.099 222.963C230.788 222.57 230.539 222.096 230.352 221.539C230.17 220.982 230.044 220.355 229.974 219.658V218.85C230.044 218.146 230.17 217.517 230.352 216.96C230.539 216.403 230.788 215.929 231.099 215.536C231.409 215.138 231.79 214.836 232.241 214.631C232.692 214.42 233.217 214.314 233.814 214.314C234.412 214.314 234.942 214.432 235.405 214.666C235.868 214.895 236.255 215.223 236.565 215.65C236.882 216.078 237.122 216.591 237.286 217.188C237.45 217.78 237.532 218.439 237.532 219.166ZM235.897 219.351V219.166C235.897 218.691 235.854 218.246 235.766 217.83C235.678 217.408 235.537 217.039 235.344 216.723C235.15 216.4 234.896 216.148 234.579 215.967C234.263 215.779 233.873 215.686 233.41 215.686C233 215.686 232.643 215.756 232.338 215.896C232.039 216.037 231.784 216.228 231.573 216.468C231.362 216.702 231.189 216.972 231.055 217.276C230.926 217.575 230.829 217.886 230.765 218.208V220.326C230.858 220.736 231.011 221.132 231.222 221.513C231.438 221.888 231.726 222.195 232.083 222.436C232.446 222.676 232.895 222.796 233.428 222.796C233.867 222.796 234.242 222.708 234.553 222.532C234.869 222.351 235.124 222.102 235.317 221.785C235.517 221.469 235.663 221.103 235.757 220.687C235.851 220.271 235.897 219.825 235.897 219.351ZM241.786 216.802H242.946C243.515 216.802 243.983 216.708 244.353 216.521C244.728 216.327 245.006 216.066 245.188 215.738C245.375 215.404 245.469 215.029 245.469 214.613C245.469 214.121 245.387 213.708 245.223 213.374C245.059 213.04 244.812 212.788 244.484 212.618C244.156 212.448 243.74 212.363 243.236 212.363C242.779 212.363 242.375 212.454 242.023 212.636C241.678 212.812 241.405 213.063 241.206 213.392C241.013 213.72 240.916 214.106 240.916 214.552H239.29C239.29 213.901 239.454 213.31 239.782 212.776C240.11 212.243 240.57 211.818 241.162 211.502C241.76 211.186 242.451 211.027 243.236 211.027C244.01 211.027 244.687 211.165 245.267 211.44C245.847 211.71 246.298 212.114 246.62 212.653C246.942 213.187 247.104 213.852 247.104 214.648C247.104 214.971 247.027 215.316 246.875 215.686C246.729 216.049 246.497 216.389 246.181 216.705C245.87 217.021 245.466 217.282 244.968 217.487C244.47 217.687 243.872 217.786 243.175 217.786H241.786V216.802ZM241.786 218.138V217.162H243.175C243.989 217.162 244.663 217.259 245.196 217.452C245.729 217.646 246.148 217.903 246.453 218.226C246.764 218.548 246.98 218.902 247.104 219.289C247.232 219.67 247.297 220.051 247.297 220.432C247.297 221.029 247.194 221.56 246.989 222.022C246.79 222.485 246.506 222.878 246.137 223.2C245.773 223.522 245.346 223.766 244.854 223.93C244.361 224.094 243.825 224.176 243.245 224.176C242.688 224.176 242.164 224.097 241.672 223.938C241.186 223.78 240.755 223.552 240.38 223.253C240.005 222.948 239.712 222.576 239.501 222.137C239.29 221.691 239.185 221.185 239.185 220.616H240.811C240.811 221.062 240.907 221.451 241.101 221.785C241.3 222.119 241.581 222.38 241.944 222.567C242.313 222.749 242.747 222.84 243.245 222.84C243.743 222.84 244.171 222.755 244.528 222.585C244.892 222.409 245.17 222.146 245.363 221.794C245.562 221.442 245.662 221 245.662 220.467C245.662 219.934 245.551 219.497 245.328 219.157C245.105 218.812 244.789 218.557 244.379 218.393C243.975 218.223 243.497 218.138 242.946 218.138H241.786Z" fill="white"/>
<path d="M451.211 343.931H452.898C452.811 344.739 452.579 345.463 452.204 346.102C451.829 346.74 451.299 347.247 450.613 347.622C449.928 347.991 449.072 348.176 448.047 348.176C447.297 348.176 446.614 348.035 445.999 347.754C445.39 347.473 444.865 347.074 444.426 346.559C443.986 346.037 443.646 345.413 443.406 344.687C443.172 343.954 443.055 343.14 443.055 342.243V340.969C443.055 340.072 443.172 339.261 443.406 338.534C443.646 337.802 443.989 337.175 444.435 336.653C444.886 336.132 445.428 335.73 446.061 335.449C446.693 335.168 447.405 335.027 448.196 335.027C449.163 335.027 449.98 335.209 450.648 335.572C451.316 335.936 451.835 336.439 452.204 337.084C452.579 337.723 452.811 338.464 452.898 339.308H451.211C451.129 338.71 450.977 338.197 450.754 337.77C450.531 337.336 450.215 337.002 449.805 336.768C449.395 336.533 448.858 336.416 448.196 336.416C447.628 336.416 447.127 336.524 446.693 336.741C446.266 336.958 445.905 337.266 445.612 337.664C445.325 338.062 445.108 338.54 444.962 339.097C444.815 339.653 444.742 340.271 444.742 340.951V342.243C444.742 342.87 444.807 343.459 444.936 344.01C445.07 344.561 445.272 345.044 445.542 345.46C445.812 345.876 446.154 346.204 446.57 346.444C446.986 346.679 447.479 346.796 448.047 346.796C448.768 346.796 449.342 346.682 449.77 346.453C450.197 346.225 450.52 345.896 450.736 345.469C450.959 345.041 451.117 344.528 451.211 343.931ZM458.91 348.176C458.248 348.176 457.647 348.064 457.108 347.842C456.575 347.613 456.115 347.294 455.729 346.884C455.348 346.474 455.055 345.987 454.85 345.425C454.645 344.862 454.542 344.247 454.542 343.579V343.21C454.542 342.437 454.656 341.748 454.885 341.145C455.113 340.535 455.424 340.02 455.816 339.598C456.209 339.176 456.654 338.856 457.152 338.64C457.65 338.423 458.166 338.314 458.699 338.314C459.379 338.314 459.965 338.432 460.457 338.666C460.955 338.9 461.362 339.229 461.679 339.65C461.995 340.066 462.229 340.559 462.382 341.127C462.534 341.689 462.61 342.305 462.61 342.973V343.702H455.509V342.375H460.984V342.252C460.961 341.83 460.873 341.42 460.721 341.021C460.574 340.623 460.34 340.295 460.018 340.037C459.695 339.779 459.256 339.65 458.699 339.65C458.33 339.65 457.99 339.729 457.68 339.888C457.369 340.04 457.103 340.269 456.88 340.573C456.657 340.878 456.484 341.25 456.361 341.689C456.238 342.129 456.177 342.636 456.177 343.21V343.579C456.177 344.03 456.238 344.455 456.361 344.854C456.49 345.246 456.675 345.592 456.915 345.891C457.161 346.189 457.457 346.424 457.803 346.594C458.154 346.764 458.553 346.849 458.998 346.849C459.572 346.849 460.059 346.731 460.457 346.497C460.855 346.263 461.204 345.949 461.503 345.557L462.487 346.339C462.282 346.649 462.021 346.945 461.705 347.227C461.389 347.508 460.999 347.736 460.536 347.912C460.079 348.088 459.537 348.176 458.91 348.176ZM466.451 335.203V348H464.755V335.203H466.451ZM471.812 340.96V342.349H466.082V340.96H471.812ZM472.683 335.203V336.592H466.082V335.203H472.683ZM476.225 338.49V348H474.59V338.49H476.225ZM474.467 335.968C474.467 335.704 474.546 335.481 474.704 335.3C474.868 335.118 475.108 335.027 475.425 335.027C475.735 335.027 475.973 335.118 476.137 335.3C476.307 335.481 476.392 335.704 476.392 335.968C476.392 336.22 476.307 336.437 476.137 336.618C475.973 336.794 475.735 336.882 475.425 336.882C475.108 336.882 474.868 336.794 474.704 336.618C474.546 336.437 474.467 336.22 474.467 335.968Z" fill="white"/>
<path d="M85.3057 220.766C85.3057 220.467 85.2588 220.203 85.165 219.975C85.0771 219.74 84.9189 219.529 84.6904 219.342C84.4678 219.154 84.1572 218.976 83.7588 218.806C83.3662 218.636 82.8682 218.463 82.2646 218.287C81.6318 218.1 81.0605 217.892 80.5508 217.663C80.041 217.429 79.6045 217.162 79.2412 216.863C78.8779 216.564 78.5996 216.222 78.4062 215.835C78.2129 215.448 78.1162 215.006 78.1162 214.508C78.1162 214.01 78.2188 213.55 78.4238 213.128C78.6289 212.706 78.9219 212.34 79.3027 212.029C79.6895 211.713 80.1494 211.467 80.6826 211.291C81.2158 211.115 81.8105 211.027 82.4668 211.027C83.4277 211.027 84.2422 211.212 84.9102 211.581C85.584 211.944 86.0967 212.422 86.4482 213.014C86.7998 213.6 86.9756 214.227 86.9756 214.895H85.2881C85.2881 214.414 85.1855 213.989 84.9805 213.62C84.7754 213.245 84.4648 212.952 84.0488 212.741C83.6328 212.524 83.1055 212.416 82.4668 212.416C81.8633 212.416 81.3652 212.507 80.9727 212.688C80.5801 212.87 80.2871 213.116 80.0938 213.427C79.9062 213.737 79.8125 214.092 79.8125 214.49C79.8125 214.76 79.8682 215.006 79.9795 215.229C80.0967 215.445 80.2754 215.647 80.5156 215.835C80.7617 216.022 81.0723 216.195 81.4473 216.354C81.8281 216.512 82.2822 216.664 82.8096 216.811C83.5361 217.016 84.1631 217.244 84.6904 217.496C85.2178 217.748 85.6514 218.032 85.9912 218.349C86.3369 218.659 86.5918 219.014 86.7559 219.412C86.9258 219.805 87.0107 220.25 87.0107 220.748C87.0107 221.27 86.9053 221.741 86.6943 222.163C86.4834 222.585 86.1816 222.945 85.7891 223.244C85.3965 223.543 84.9248 223.774 84.374 223.938C83.8291 224.097 83.2197 224.176 82.5459 224.176C81.9541 224.176 81.3711 224.094 80.7969 223.93C80.2285 223.766 79.71 223.52 79.2412 223.191C78.7783 222.863 78.4062 222.459 78.125 221.979C77.8496 221.492 77.7119 220.93 77.7119 220.291H79.3994C79.3994 220.73 79.4844 221.108 79.6543 221.425C79.8242 221.735 80.0557 221.993 80.3486 222.198C80.6475 222.403 80.9844 222.556 81.3594 222.655C81.7402 222.749 82.1357 222.796 82.5459 222.796C83.1377 222.796 83.6387 222.714 84.0488 222.55C84.459 222.386 84.7695 222.151 84.9805 221.847C85.1973 221.542 85.3057 221.182 85.3057 220.766ZM88.4961 219.351V219.148C88.4961 218.463 88.5957 217.827 88.7949 217.241C88.9941 216.649 89.2812 216.137 89.6562 215.703C90.0312 215.264 90.4854 214.924 91.0186 214.684C91.5518 214.438 92.1494 214.314 92.8115 214.314C93.4795 214.314 94.0801 214.438 94.6133 214.684C95.1523 214.924 95.6094 215.264 95.9844 215.703C96.3652 216.137 96.6553 216.649 96.8545 217.241C97.0537 217.827 97.1533 218.463 97.1533 219.148V219.351C97.1533 220.036 97.0537 220.672 96.8545 221.258C96.6553 221.844 96.3652 222.356 95.9844 222.796C95.6094 223.229 95.1553 223.569 94.6221 223.815C94.0947 224.056 93.4971 224.176 92.8291 224.176C92.1611 224.176 91.5605 224.056 91.0273 223.815C90.4941 223.569 90.0371 223.229 89.6562 222.796C89.2812 222.356 88.9941 221.844 88.7949 221.258C88.5957 220.672 88.4961 220.036 88.4961 219.351ZM90.1221 219.148V219.351C90.1221 219.825 90.1777 220.273 90.2891 220.695C90.4004 221.111 90.5674 221.48 90.79 221.803C91.0186 222.125 91.3027 222.38 91.6426 222.567C91.9824 222.749 92.3779 222.84 92.8291 222.84C93.2744 222.84 93.6641 222.749 93.998 222.567C94.3379 222.38 94.6191 222.125 94.8418 221.803C95.0645 221.48 95.2314 221.111 95.3428 220.695C95.46 220.273 95.5186 219.825 95.5186 219.351V219.148C95.5186 218.68 95.46 218.237 95.3428 217.821C95.2314 217.399 95.0615 217.027 94.833 216.705C94.6104 216.377 94.3291 216.119 93.9893 215.932C93.6553 215.744 93.2627 215.65 92.8115 215.65C92.3662 215.65 91.9736 215.744 91.6338 215.932C91.2998 216.119 91.0186 216.377 90.79 216.705C90.5674 217.027 90.4004 217.399 90.2891 217.821C90.1777 218.237 90.1221 218.68 90.1221 219.148ZM102.998 222.84C103.385 222.84 103.742 222.761 104.07 222.603C104.398 222.444 104.668 222.228 104.879 221.952C105.09 221.671 105.21 221.352 105.239 220.994H106.786C106.757 221.557 106.566 222.081 106.215 222.567C105.869 223.048 105.415 223.438 104.853 223.736C104.29 224.029 103.672 224.176 102.998 224.176C102.283 224.176 101.659 224.05 101.126 223.798C100.599 223.546 100.159 223.2 99.8076 222.761C99.4619 222.321 99.2012 221.817 99.0254 221.249C98.8555 220.675 98.7705 220.068 98.7705 219.43V219.061C98.7705 218.422 98.8555 217.818 99.0254 217.25C99.2012 216.676 99.4619 216.169 99.8076 215.729C100.159 215.29 100.599 214.944 101.126 214.692C101.659 214.44 102.283 214.314 102.998 214.314C103.742 214.314 104.393 214.467 104.949 214.771C105.506 215.07 105.942 215.48 106.259 216.002C106.581 216.518 106.757 217.104 106.786 217.76H105.239C105.21 217.367 105.099 217.013 104.905 216.696C104.718 216.38 104.46 216.128 104.132 215.94C103.81 215.747 103.432 215.65 102.998 215.65C102.5 215.65 102.081 215.75 101.741 215.949C101.407 216.143 101.141 216.406 100.941 216.74C100.748 217.068 100.607 217.435 100.52 217.839C100.438 218.237 100.396 218.645 100.396 219.061V219.43C100.396 219.846 100.438 220.256 100.52 220.66C100.602 221.064 100.739 221.431 100.933 221.759C101.132 222.087 101.398 222.351 101.732 222.55C102.072 222.743 102.494 222.84 102.998 222.84ZM110.381 214.49V224H108.746V214.49H110.381ZM108.623 211.968C108.623 211.704 108.702 211.481 108.86 211.3C109.024 211.118 109.265 211.027 109.581 211.027C109.892 211.027 110.129 211.118 110.293 211.3C110.463 211.481 110.548 211.704 110.548 211.968C110.548 212.22 110.463 212.437 110.293 212.618C110.129 212.794 109.892 212.882 109.581 212.882C109.265 212.882 109.024 212.794 108.86 212.618C108.702 212.437 108.623 212.22 108.623 211.968ZM118.599 222.374V217.479C118.599 217.104 118.522 216.778 118.37 216.503C118.224 216.222 118.001 216.005 117.702 215.853C117.403 215.7 117.034 215.624 116.595 215.624C116.185 215.624 115.824 215.694 115.514 215.835C115.209 215.976 114.969 216.16 114.793 216.389C114.623 216.617 114.538 216.863 114.538 217.127H112.912C112.912 216.787 113 216.45 113.176 216.116C113.352 215.782 113.604 215.48 113.932 215.211C114.266 214.936 114.664 214.719 115.127 214.561C115.596 214.396 116.117 214.314 116.691 214.314C117.383 214.314 117.992 214.432 118.52 214.666C119.053 214.9 119.469 215.255 119.768 215.729C120.072 216.198 120.225 216.787 120.225 217.496V221.926C120.225 222.242 120.251 222.579 120.304 222.937C120.362 223.294 120.447 223.602 120.559 223.859V224H118.862C118.78 223.812 118.716 223.563 118.669 223.253C118.622 222.937 118.599 222.644 118.599 222.374ZM118.88 218.234L118.897 219.377H117.254C116.791 219.377 116.378 219.415 116.015 219.491C115.651 219.562 115.347 219.67 115.101 219.816C114.854 219.963 114.667 220.147 114.538 220.37C114.409 220.587 114.345 220.842 114.345 221.135C114.345 221.434 114.412 221.706 114.547 221.952C114.682 222.198 114.884 222.395 115.153 222.541C115.429 222.682 115.766 222.752 116.164 222.752C116.662 222.752 117.102 222.646 117.482 222.436C117.863 222.225 118.165 221.967 118.388 221.662C118.616 221.357 118.739 221.062 118.757 220.774L119.451 221.557C119.41 221.803 119.299 222.075 119.117 222.374C118.936 222.673 118.692 222.96 118.388 223.235C118.089 223.505 117.731 223.73 117.315 223.912C116.905 224.088 116.442 224.176 115.927 224.176C115.282 224.176 114.717 224.05 114.23 223.798C113.75 223.546 113.375 223.209 113.105 222.787C112.842 222.359 112.71 221.882 112.71 221.354C112.71 220.845 112.81 220.396 113.009 220.01C113.208 219.617 113.495 219.292 113.87 219.034C114.245 218.771 114.696 218.571 115.224 218.437C115.751 218.302 116.34 218.234 116.99 218.234H118.88ZM124.549 210.5V224H122.914V210.5H124.549ZM129.102 211.203V224H127.405V211.203H129.102ZM134.463 216.96V218.349H128.732V216.96H134.463ZM135.333 211.203V212.592H128.732V211.203H135.333ZM138.875 214.49V224H137.24V214.49H138.875ZM137.117 211.968C137.117 211.704 137.196 211.481 137.354 211.3C137.519 211.118 137.759 211.027 138.075 211.027C138.386 211.027 138.623 211.118 138.787 211.3C138.957 211.481 139.042 211.704 139.042 211.968C139.042 212.22 138.957 212.437 138.787 212.618C138.623 212.794 138.386 212.882 138.075 212.882C137.759 212.882 137.519 212.794 137.354 212.618C137.196 212.437 137.117 212.22 137.117 211.968Z" fill="white"/>
<path d="M91.1193 91H89.5341C89.4403 90.544 89.2763 90.1435 89.0419 89.7983C88.8118 89.4531 88.5305 89.1634 88.1982 88.929C87.87 88.6903 87.5057 88.5114 87.1051 88.392C86.7045 88.2727 86.2869 88.2131 85.8523 88.2131C85.0597 88.2131 84.3416 88.4134 83.6982 88.8139C83.0589 89.2145 82.5497 89.8047 82.1705 90.5845C81.7955 91.3643 81.608 92.321 81.608 93.4545C81.608 94.5881 81.7955 95.5447 82.1705 96.3246C82.5497 97.1044 83.0589 97.6946 83.6982 98.0952C84.3416 98.4957 85.0597 98.696 85.8523 98.696C86.2869 98.696 86.7045 98.6364 87.1051 98.517C87.5057 98.3977 87.87 98.2209 88.1982 97.9865C88.5305 97.7479 88.8118 97.456 89.0419 97.1108C89.2763 96.7614 89.4403 96.3608 89.5341 95.9091H91.1193C91 96.5781 90.7827 97.1768 90.4673 97.7053C90.152 98.2337 89.7599 98.6832 89.2912 99.054C88.8224 99.4205 88.2962 99.6996 87.7124 99.8913C87.1328 100.083 86.5128 100.179 85.8523 100.179C84.7358 100.179 83.7429 99.9062 82.8736 99.3608C82.0043 98.8153 81.3203 98.0398 80.8217 97.0341C80.3232 96.0284 80.0739 94.8352 80.0739 93.4545C80.0739 92.0739 80.3232 90.8807 80.8217 89.875C81.3203 88.8693 82.0043 88.0938 82.8736 87.5483C83.7429 87.0028 84.7358 86.7301 85.8523 86.7301C86.5128 86.7301 87.1328 86.826 87.7124 87.0178C88.2962 87.2095 88.8224 87.4908 89.2912 87.8615C89.7599 88.228 90.152 88.6754 90.4673 89.2038C90.7827 89.728 91 90.3267 91.1193 91ZM93.4764 100V90.1818H94.9338V91.6648H95.036C95.215 91.179 95.5389 90.7848 96.0076 90.4822C96.4764 90.1797 97.0048 90.0284 97.5929 90.0284C97.7037 90.0284 97.8422 90.0305 98.0083 90.0348C98.1745 90.0391 98.3002 90.0455 98.3855 90.054V91.5881C98.3343 91.5753 98.2172 91.5561 98.0339 91.5305C97.8549 91.5007 97.6653 91.4858 97.465 91.4858C96.9877 91.4858 96.5616 91.5859 96.1866 91.7862C95.8159 91.9822 95.5218 92.255 95.3045 92.6044C95.0914 92.9496 94.9849 93.3437 94.9849 93.7869V100H93.4764ZM101.444 103.682C101.188 103.682 100.96 103.661 100.76 103.618C100.56 103.58 100.421 103.541 100.345 103.503L100.728 102.173C101.095 102.267 101.419 102.301 101.7 102.276C101.981 102.25 102.23 102.124 102.448 101.898C102.669 101.677 102.872 101.317 103.055 100.818L103.336 100.051L99.7054 90.1818H101.342L104.052 98.0057H104.154L106.865 90.1818H108.501L104.333 101.432C104.146 101.939 103.914 102.359 103.637 102.691C103.36 103.028 103.038 103.277 102.671 103.439C102.309 103.601 101.9 103.682 101.444 103.682ZM110.492 103.682V90.1818H111.949V91.7415H112.128C112.239 91.571 112.393 91.3537 112.589 91.0895C112.789 90.821 113.074 90.5824 113.445 90.3736C113.82 90.1605 114.327 90.054 114.966 90.054C115.793 90.054 116.522 90.2607 117.153 90.674C117.783 91.0874 118.275 91.6733 118.629 92.4318C118.983 93.1903 119.16 94.0852 119.16 95.1165C119.16 96.1562 118.983 97.0575 118.629 97.8203C118.275 98.5788 117.785 99.1669 117.159 99.5845C116.532 99.9979 115.81 100.205 114.992 100.205C114.361 100.205 113.856 100.1 113.477 99.8913C113.098 99.6783 112.806 99.4375 112.601 99.169C112.397 98.8963 112.239 98.6705 112.128 98.4915H112.001V103.682H110.492ZM111.975 95.0909C111.975 95.8324 112.084 96.4865 112.301 97.0533C112.518 97.6158 112.836 98.0568 113.253 98.3764C113.671 98.6918 114.182 98.8494 114.787 98.8494C115.418 98.8494 115.944 98.6832 116.366 98.3509C116.792 98.0142 117.112 97.5625 117.325 96.9957C117.542 96.4247 117.651 95.7898 117.651 95.0909C117.651 94.4006 117.545 93.7784 117.331 93.2244C117.123 92.6662 116.805 92.2251 116.379 91.9013C115.957 91.5732 115.427 91.4091 114.787 91.4091C114.174 91.4091 113.658 91.5646 113.241 91.8757C112.823 92.1825 112.508 92.6129 112.295 93.1669C112.081 93.7166 111.975 94.358 111.975 95.0909ZM125.731 90.1818V91.4602H120.643V90.1818H125.731ZM122.126 87.8295H123.634V97.1875C123.634 97.6136 123.696 97.9332 123.819 98.1463C123.947 98.3551 124.109 98.4957 124.305 98.5682C124.506 98.6364 124.716 98.6705 124.938 98.6705C125.104 98.6705 125.241 98.6619 125.347 98.6449C125.454 98.6236 125.539 98.6065 125.603 98.5938L125.91 99.9489C125.807 99.9872 125.665 100.026 125.481 100.064C125.298 100.107 125.066 100.128 124.785 100.128C124.358 100.128 123.941 100.036 123.532 99.853C123.127 99.6697 122.79 99.3906 122.522 99.0156C122.258 98.6406 122.126 98.1676 122.126 97.5966V87.8295ZM131.883 100.205C130.997 100.205 130.219 99.9936 129.55 99.5717C128.885 99.1499 128.365 98.5597 127.99 97.8011C127.619 97.0426 127.434 96.1562 127.434 95.142C127.434 94.1193 127.619 93.2266 127.99 92.4638C128.365 91.701 128.885 91.1087 129.55 90.6868C130.219 90.2649 130.997 90.054 131.883 90.054C132.769 90.054 133.545 90.2649 134.21 90.6868C134.879 91.1087 135.399 91.701 135.769 92.4638C136.144 93.2266 136.332 94.1193 136.332 95.142C136.332 96.1562 136.144 97.0426 135.769 97.8011C135.399 98.5597 134.879 99.1499 134.21 99.5717C133.545 99.9936 132.769 100.205 131.883 100.205ZM131.883 98.8494C132.556 98.8494 133.11 98.6768 133.545 98.3317C133.98 97.9865 134.301 97.5327 134.51 96.9702C134.719 96.4077 134.823 95.7983 134.823 95.142C134.823 94.4858 134.719 93.8743 134.51 93.3075C134.301 92.7408 133.98 92.2827 133.545 91.9332C133.11 91.5838 132.556 91.4091 131.883 91.4091C131.21 91.4091 130.656 91.5838 130.221 91.9332C129.786 92.2827 129.465 92.7408 129.256 93.3075C129.047 93.8743 128.943 94.4858 128.943 95.142C128.943 95.7983 129.047 96.4077 129.256 96.9702C129.465 97.5327 129.786 97.9865 130.221 98.3317C130.656 98.6768 131.21 98.8494 131.883 98.8494Z" fill="white"/>
<rect x="410.5" y="167.5" width="99" height="99" rx="11.5" fill="black" stroke="url(#paint8_linear_0_2163)"/>
<path d="M205.942 341.628V346.312C205.784 346.547 205.532 346.811 205.187 347.104C204.841 347.391 204.363 347.643 203.754 347.859C203.15 348.07 202.371 348.176 201.416 348.176C200.637 348.176 199.919 348.041 199.263 347.771C198.612 347.496 198.047 347.098 197.566 346.576C197.092 346.049 196.723 345.41 196.459 344.66C196.201 343.904 196.072 343.049 196.072 342.094V341.101C196.072 340.146 196.184 339.293 196.406 338.543C196.635 337.793 196.969 337.157 197.408 336.636C197.848 336.108 198.387 335.71 199.025 335.44C199.664 335.165 200.396 335.027 201.223 335.027C202.201 335.027 203.019 335.197 203.675 335.537C204.337 335.871 204.853 336.334 205.222 336.926C205.597 337.518 205.837 338.191 205.942 338.947H204.246C204.17 338.484 204.018 338.062 203.789 337.682C203.566 337.301 203.247 336.996 202.831 336.768C202.415 336.533 201.879 336.416 201.223 336.416C200.631 336.416 200.118 336.524 199.685 336.741C199.251 336.958 198.894 337.269 198.612 337.673C198.331 338.077 198.12 338.566 197.979 339.141C197.845 339.715 197.777 340.362 197.777 341.083V342.094C197.777 342.832 197.862 343.491 198.032 344.071C198.208 344.651 198.457 345.146 198.779 345.557C199.102 345.961 199.485 346.269 199.931 346.479C200.382 346.69 200.88 346.796 201.425 346.796C202.028 346.796 202.518 346.746 202.893 346.646C203.268 346.541 203.561 346.418 203.771 346.277C203.982 346.131 204.144 345.993 204.255 345.864V342.999H201.293V341.628H205.942ZM214.116 346.374V341.479C214.116 341.104 214.04 340.778 213.888 340.503C213.741 340.222 213.519 340.005 213.22 339.853C212.921 339.7 212.552 339.624 212.112 339.624C211.702 339.624 211.342 339.694 211.031 339.835C210.727 339.976 210.486 340.16 210.311 340.389C210.141 340.617 210.056 340.863 210.056 341.127H208.43C208.43 340.787 208.518 340.45 208.693 340.116C208.869 339.782 209.121 339.48 209.449 339.211C209.783 338.936 210.182 338.719 210.645 338.561C211.113 338.396 211.635 338.314 212.209 338.314C212.9 338.314 213.51 338.432 214.037 338.666C214.57 338.9 214.986 339.255 215.285 339.729C215.59 340.198 215.742 340.787 215.742 341.496V345.926C215.742 346.242 215.769 346.579 215.821 346.937C215.88 347.294 215.965 347.602 216.076 347.859V348H214.38C214.298 347.812 214.233 347.563 214.187 347.253C214.14 346.937 214.116 346.644 214.116 346.374ZM214.397 342.234L214.415 343.377H212.771C212.309 343.377 211.896 343.415 211.532 343.491C211.169 343.562 210.864 343.67 210.618 343.816C210.372 343.963 210.185 344.147 210.056 344.37C209.927 344.587 209.862 344.842 209.862 345.135C209.862 345.434 209.93 345.706 210.064 345.952C210.199 346.198 210.401 346.395 210.671 346.541C210.946 346.682 211.283 346.752 211.682 346.752C212.18 346.752 212.619 346.646 213 346.436C213.381 346.225 213.683 345.967 213.905 345.662C214.134 345.357 214.257 345.062 214.274 344.774L214.969 345.557C214.928 345.803 214.816 346.075 214.635 346.374C214.453 346.673 214.21 346.96 213.905 347.235C213.606 347.505 213.249 347.73 212.833 347.912C212.423 348.088 211.96 348.176 211.444 348.176C210.8 348.176 210.234 348.05 209.748 347.798C209.268 347.546 208.893 347.209 208.623 346.787C208.359 346.359 208.228 345.882 208.228 345.354C208.228 344.845 208.327 344.396 208.526 344.01C208.726 343.617 209.013 343.292 209.388 343.034C209.763 342.771 210.214 342.571 210.741 342.437C211.269 342.302 211.857 342.234 212.508 342.234H214.397ZM219.917 340.38V348H218.282V338.49H219.829L219.917 340.38ZM219.583 342.885L218.827 342.858C218.833 342.208 218.918 341.607 219.082 341.057C219.246 340.5 219.489 340.017 219.812 339.606C220.134 339.196 220.535 338.88 221.016 338.657C221.496 338.429 222.053 338.314 222.686 338.314C223.131 338.314 223.541 338.379 223.916 338.508C224.291 338.631 224.616 338.827 224.892 339.097C225.167 339.366 225.381 339.712 225.533 340.134C225.686 340.556 225.762 341.065 225.762 341.663V348H224.136V341.742C224.136 341.244 224.051 340.846 223.881 340.547C223.717 340.248 223.482 340.031 223.178 339.896C222.873 339.756 222.516 339.686 222.105 339.686C221.625 339.686 221.224 339.771 220.901 339.94C220.579 340.11 220.321 340.345 220.128 340.644C219.935 340.942 219.794 341.285 219.706 341.672C219.624 342.053 219.583 342.457 219.583 342.885ZM225.744 341.988L224.654 342.322C224.66 341.801 224.745 341.3 224.909 340.819C225.079 340.339 225.322 339.911 225.639 339.536C225.961 339.161 226.356 338.865 226.825 338.648C227.294 338.426 227.83 338.314 228.434 338.314C228.943 338.314 229.395 338.382 229.787 338.517C230.186 338.651 230.52 338.859 230.789 339.141C231.064 339.416 231.272 339.771 231.413 340.204C231.554 340.638 231.624 341.153 231.624 341.751V348H229.989V341.733C229.989 341.2 229.904 340.787 229.734 340.494C229.57 340.195 229.336 339.987 229.031 339.87C228.732 339.747 228.375 339.686 227.959 339.686C227.602 339.686 227.285 339.747 227.01 339.87C226.734 339.993 226.503 340.163 226.315 340.38C226.128 340.591 225.984 340.834 225.885 341.109C225.791 341.385 225.744 341.678 225.744 341.988ZM238.031 348.176C237.369 348.176 236.769 348.064 236.229 347.842C235.696 347.613 235.236 347.294 234.85 346.884C234.469 346.474 234.176 345.987 233.971 345.425C233.766 344.862 233.663 344.247 233.663 343.579V343.21C233.663 342.437 233.777 341.748 234.006 341.145C234.234 340.535 234.545 340.02 234.938 339.598C235.33 339.176 235.775 338.856 236.273 338.64C236.771 338.423 237.287 338.314 237.82 338.314C238.5 338.314 239.086 338.432 239.578 338.666C240.076 338.9 240.483 339.229 240.8 339.65C241.116 340.066 241.351 340.559 241.503 341.127C241.655 341.689 241.731 342.305 241.731 342.973V343.702H234.63V342.375H240.105V342.252C240.082 341.83 239.994 341.42 239.842 341.021C239.695 340.623 239.461 340.295 239.139 340.037C238.816 339.779 238.377 339.65 237.82 339.65C237.451 339.65 237.111 339.729 236.801 339.888C236.49 340.04 236.224 340.269 236.001 340.573C235.778 340.878 235.605 341.25 235.482 341.689C235.359 342.129 235.298 342.636 235.298 343.21V343.579C235.298 344.03 235.359 344.455 235.482 344.854C235.611 345.246 235.796 345.592 236.036 345.891C236.282 346.189 236.578 346.424 236.924 346.594C237.275 346.764 237.674 346.849 238.119 346.849C238.693 346.849 239.18 346.731 239.578 346.497C239.977 346.263 240.325 345.949 240.624 345.557L241.608 346.339C241.403 346.649 241.143 346.945 240.826 347.227C240.51 347.508 240.12 347.736 239.657 347.912C239.2 348.088 238.658 348.176 238.031 348.176ZM245.572 335.203V348H243.876V335.203H245.572ZM250.934 340.96V342.349H245.203V340.96H250.934ZM251.804 335.203V336.592H245.203V335.203H251.804ZM255.346 338.49V348H253.711V338.49H255.346ZM253.588 335.968C253.588 335.704 253.667 335.481 253.825 335.3C253.989 335.118 254.229 335.027 254.546 335.027C254.856 335.027 255.094 335.118 255.258 335.3C255.428 335.481 255.513 335.704 255.513 335.968C255.513 336.22 255.428 336.437 255.258 336.618C255.094 336.794 254.856 336.882 254.546 336.882C254.229 336.882 253.989 336.794 253.825 336.618C253.667 336.437 253.588 336.22 253.588 335.968Z" fill="white"/>
<path d="M303.021 335.203H304.665L308.857 345.636L313.041 335.203H314.693L309.49 348H308.207L303.021 335.203ZM302.485 335.203H303.936L304.173 343.008V348H302.485V335.203ZM313.771 335.203H315.221V348H313.533V343.008L313.771 335.203ZM321.9 348.176C321.238 348.176 320.638 348.064 320.099 347.842C319.565 347.613 319.105 347.294 318.719 346.884C318.338 346.474 318.045 345.987 317.84 345.425C317.635 344.862 317.532 344.247 317.532 343.579V343.21C317.532 342.437 317.646 341.748 317.875 341.145C318.104 340.535 318.414 340.02 318.807 339.598C319.199 339.176 319.645 338.856 320.143 338.64C320.641 338.423 321.156 338.314 321.689 338.314C322.369 338.314 322.955 338.432 323.447 338.666C323.945 338.9 324.353 339.229 324.669 339.65C324.985 340.066 325.22 340.559 325.372 341.127C325.524 341.689 325.601 342.305 325.601 342.973V343.702H318.499V342.375H323.975V342.252C323.951 341.83 323.863 341.42 323.711 341.021C323.564 340.623 323.33 340.295 323.008 340.037C322.686 339.779 322.246 339.65 321.689 339.65C321.32 339.65 320.98 339.729 320.67 339.888C320.359 340.04 320.093 340.269 319.87 340.573C319.647 340.878 319.475 341.25 319.352 341.689C319.229 342.129 319.167 342.636 319.167 343.21V343.579C319.167 344.03 319.229 344.455 319.352 344.854C319.48 345.246 319.665 345.592 319.905 345.891C320.151 346.189 320.447 346.424 320.793 346.594C321.145 346.764 321.543 346.849 321.988 346.849C322.562 346.849 323.049 346.731 323.447 346.497C323.846 346.263 324.194 345.949 324.493 345.557L325.478 346.339C325.272 346.649 325.012 346.945 324.695 347.227C324.379 347.508 323.989 347.736 323.526 347.912C323.069 348.088 322.527 348.176 321.9 348.176ZM331.48 338.49V339.738H326.339V338.49H331.48ZM328.079 336.179H329.705V345.645C329.705 345.967 329.755 346.21 329.854 346.374C329.954 346.538 330.083 346.646 330.241 346.699C330.399 346.752 330.569 346.778 330.751 346.778C330.886 346.778 331.026 346.767 331.173 346.743C331.325 346.714 331.439 346.69 331.516 346.673L331.524 348C331.396 348.041 331.226 348.079 331.015 348.114C330.81 348.155 330.561 348.176 330.268 348.176C329.869 348.176 329.503 348.097 329.169 347.938C328.835 347.78 328.568 347.517 328.369 347.147C328.176 346.772 328.079 346.269 328.079 345.636V336.179ZM338.995 346.374V341.479C338.995 341.104 338.919 340.778 338.767 340.503C338.62 340.222 338.397 340.005 338.099 339.853C337.8 339.7 337.431 339.624 336.991 339.624C336.581 339.624 336.221 339.694 335.91 339.835C335.605 339.976 335.365 340.16 335.189 340.389C335.02 340.617 334.935 340.863 334.935 341.127H333.309C333.309 340.787 333.396 340.45 333.572 340.116C333.748 339.782 334 339.48 334.328 339.211C334.662 338.936 335.061 338.719 335.523 338.561C335.992 338.396 336.514 338.314 337.088 338.314C337.779 338.314 338.389 338.432 338.916 338.666C339.449 338.9 339.865 339.255 340.164 339.729C340.469 340.198 340.621 340.787 340.621 341.496V345.926C340.621 346.242 340.647 346.579 340.7 346.937C340.759 347.294 340.844 347.602 340.955 347.859V348H339.259C339.177 347.812 339.112 347.563 339.065 347.253C339.019 346.937 338.995 346.644 338.995 346.374ZM339.276 342.234L339.294 343.377H337.65C337.188 343.377 336.774 343.415 336.411 343.491C336.048 343.562 335.743 343.67 335.497 343.816C335.251 343.963 335.063 344.147 334.935 344.37C334.806 344.587 334.741 344.842 334.741 345.135C334.741 345.434 334.809 345.706 334.943 345.952C335.078 346.198 335.28 346.395 335.55 346.541C335.825 346.682 336.162 346.752 336.561 346.752C337.059 346.752 337.498 346.646 337.879 346.436C338.26 346.225 338.562 345.967 338.784 345.662C339.013 345.357 339.136 345.062 339.153 344.774L339.848 345.557C339.807 345.803 339.695 346.075 339.514 346.374C339.332 346.673 339.089 346.96 338.784 347.235C338.485 347.505 338.128 347.73 337.712 347.912C337.302 348.088 336.839 348.176 336.323 348.176C335.679 348.176 335.113 348.05 334.627 347.798C334.146 347.546 333.771 347.209 333.502 346.787C333.238 346.359 333.106 345.882 333.106 345.354C333.106 344.845 333.206 344.396 333.405 344.01C333.604 343.617 333.892 343.292 334.267 343.034C334.642 342.771 335.093 342.571 335.62 342.437C336.147 342.302 336.736 342.234 337.387 342.234H339.276ZM345.93 346.532L348.531 338.49H350.192L346.773 348H345.684L345.93 346.532ZM343.759 338.49L346.439 346.576L346.624 348H345.534L342.089 338.49H343.759ZM355.58 348.176C354.918 348.176 354.317 348.064 353.778 347.842C353.245 347.613 352.785 347.294 352.398 346.884C352.018 346.474 351.725 345.987 351.52 345.425C351.314 344.862 351.212 344.247 351.212 343.579V343.21C351.212 342.437 351.326 341.748 351.555 341.145C351.783 340.535 352.094 340.02 352.486 339.598C352.879 339.176 353.324 338.856 353.822 338.64C354.32 338.423 354.836 338.314 355.369 338.314C356.049 338.314 356.635 338.432 357.127 338.666C357.625 338.9 358.032 339.229 358.349 339.65C358.665 340.066 358.899 340.559 359.052 341.127C359.204 341.689 359.28 342.305 359.28 342.973V343.702H352.179V342.375H357.654V342.252C357.631 341.83 357.543 341.42 357.391 341.021C357.244 340.623 357.01 340.295 356.688 340.037C356.365 339.779 355.926 339.65 355.369 339.65C355 339.65 354.66 339.729 354.35 339.888C354.039 340.04 353.772 340.269 353.55 340.573C353.327 340.878 353.154 341.25 353.031 341.689C352.908 342.129 352.847 342.636 352.847 343.21V343.579C352.847 344.03 352.908 344.455 353.031 344.854C353.16 345.246 353.345 345.592 353.585 345.891C353.831 346.189 354.127 346.424 354.473 346.594C354.824 346.764 355.223 346.849 355.668 346.849C356.242 346.849 356.729 346.731 357.127 346.497C357.525 346.263 357.874 345.949 358.173 345.557L359.157 346.339C358.952 346.649 358.691 346.945 358.375 347.227C358.059 347.508 357.669 347.736 357.206 347.912C356.749 348.088 356.207 348.176 355.58 348.176ZM362.805 339.984V348H361.179V338.49H362.761L362.805 339.984ZM365.775 338.438L365.767 339.949C365.632 339.92 365.503 339.902 365.38 339.896C365.263 339.885 365.128 339.879 364.976 339.879C364.601 339.879 364.27 339.938 363.982 340.055C363.695 340.172 363.452 340.336 363.253 340.547C363.054 340.758 362.896 341.01 362.778 341.303C362.667 341.59 362.594 341.906 362.559 342.252L362.102 342.516C362.102 341.941 362.157 341.402 362.269 340.898C362.386 340.395 362.564 339.949 362.805 339.562C363.045 339.17 363.35 338.865 363.719 338.648C364.094 338.426 364.539 338.314 365.055 338.314C365.172 338.314 365.307 338.329 365.459 338.358C365.611 338.382 365.717 338.408 365.775 338.438ZM372.815 345.478C372.815 345.243 372.763 345.026 372.657 344.827C372.558 344.622 372.35 344.438 372.033 344.273C371.723 344.104 371.254 343.957 370.627 343.834C370.1 343.723 369.622 343.591 369.194 343.438C368.772 343.286 368.412 343.102 368.113 342.885C367.82 342.668 367.595 342.413 367.437 342.12C367.278 341.827 367.199 341.484 367.199 341.092C367.199 340.717 367.281 340.362 367.445 340.028C367.615 339.694 367.853 339.398 368.157 339.141C368.468 338.883 368.84 338.681 369.273 338.534C369.707 338.388 370.19 338.314 370.724 338.314C371.485 338.314 372.136 338.449 372.675 338.719C373.214 338.988 373.627 339.349 373.914 339.8C374.201 340.245 374.345 340.74 374.345 341.285H372.719C372.719 341.021 372.64 340.767 372.481 340.521C372.329 340.269 372.104 340.061 371.805 339.896C371.512 339.732 371.151 339.65 370.724 339.65C370.272 339.65 369.906 339.721 369.625 339.861C369.35 339.996 369.147 340.169 369.019 340.38C368.896 340.591 368.834 340.813 368.834 341.048C368.834 341.224 368.863 341.382 368.922 341.522C368.986 341.657 369.098 341.783 369.256 341.9C369.414 342.012 369.637 342.117 369.924 342.217C370.211 342.316 370.577 342.416 371.022 342.516C371.802 342.691 372.443 342.902 372.947 343.148C373.451 343.395 373.826 343.696 374.072 344.054C374.318 344.411 374.441 344.845 374.441 345.354C374.441 345.771 374.354 346.151 374.178 346.497C374.008 346.843 373.759 347.142 373.431 347.394C373.108 347.64 372.722 347.833 372.271 347.974C371.825 348.108 371.324 348.176 370.768 348.176C369.93 348.176 369.221 348.026 368.641 347.728C368.061 347.429 367.621 347.042 367.322 346.567C367.023 346.093 366.874 345.592 366.874 345.064H368.509C368.532 345.51 368.661 345.864 368.896 346.128C369.13 346.386 369.417 346.57 369.757 346.682C370.097 346.787 370.434 346.84 370.768 346.84C371.213 346.84 371.585 346.781 371.884 346.664C372.188 346.547 372.42 346.386 372.578 346.181C372.736 345.976 372.815 345.741 372.815 345.478ZM380.523 348.176C379.861 348.176 379.261 348.064 378.722 347.842C378.188 347.613 377.729 347.294 377.342 346.884C376.961 346.474 376.668 345.987 376.463 345.425C376.258 344.862 376.155 344.247 376.155 343.579V343.21C376.155 342.437 376.27 341.748 376.498 341.145C376.727 340.535 377.037 340.02 377.43 339.598C377.822 339.176 378.268 338.856 378.766 338.64C379.264 338.423 379.779 338.314 380.312 338.314C380.992 338.314 381.578 338.432 382.07 338.666C382.568 338.9 382.976 339.229 383.292 339.65C383.608 340.066 383.843 340.559 383.995 341.127C384.147 341.689 384.224 342.305 384.224 342.973V343.702H377.122V342.375H382.598V342.252C382.574 341.83 382.486 341.42 382.334 341.021C382.188 340.623 381.953 340.295 381.631 340.037C381.309 339.779 380.869 339.65 380.312 339.65C379.943 339.65 379.604 339.729 379.293 339.888C378.982 340.04 378.716 340.269 378.493 340.573C378.271 340.878 378.098 341.25 377.975 341.689C377.852 342.129 377.79 342.636 377.79 343.21V343.579C377.79 344.03 377.852 344.455 377.975 344.854C378.104 345.246 378.288 345.592 378.528 345.891C378.774 346.189 379.07 346.424 379.416 346.594C379.768 346.764 380.166 346.849 380.611 346.849C381.186 346.849 381.672 346.731 382.07 346.497C382.469 346.263 382.817 345.949 383.116 345.557L384.101 346.339C383.896 346.649 383.635 346.945 383.318 347.227C383.002 347.508 382.612 347.736 382.149 347.912C381.692 348.088 381.15 348.176 380.523 348.176Z" fill="white"/>
<path d="M329.948 223H327.276L327.294 221.62H329.948C330.862 221.62 331.624 221.43 332.233 221.049C332.843 220.662 333.3 220.123 333.604 219.432C333.915 218.734 334.07 217.92 334.07 216.988V216.206C334.07 215.474 333.982 214.823 333.807 214.255C333.631 213.681 333.373 213.197 333.033 212.805C332.693 212.406 332.277 212.104 331.785 211.899C331.299 211.694 330.739 211.592 330.106 211.592H327.224V210.203H330.106C330.944 210.203 331.709 210.344 332.4 210.625C333.092 210.9 333.687 211.302 334.185 211.829C334.688 212.351 335.075 212.983 335.345 213.728C335.614 214.466 335.749 215.298 335.749 216.224V216.988C335.749 217.914 335.614 218.749 335.345 219.493C335.075 220.231 334.686 220.861 334.176 221.383C333.672 221.904 333.062 222.306 332.348 222.587C331.639 222.862 330.839 223 329.948 223ZM328.182 210.203V223H326.485V210.203H328.182ZM341.998 223.176C341.336 223.176 340.735 223.064 340.196 222.842C339.663 222.613 339.203 222.294 338.816 221.884C338.436 221.474 338.143 220.987 337.938 220.425C337.732 219.862 337.63 219.247 337.63 218.579V218.21C337.63 217.437 337.744 216.748 337.973 216.145C338.201 215.535 338.512 215.02 338.904 214.598C339.297 214.176 339.742 213.856 340.24 213.64C340.738 213.423 341.254 213.314 341.787 213.314C342.467 213.314 343.053 213.432 343.545 213.666C344.043 213.9 344.45 214.229 344.767 214.65C345.083 215.066 345.317 215.559 345.47 216.127C345.622 216.689 345.698 217.305 345.698 217.973V218.702H338.597V217.375H344.072V217.252C344.049 216.83 343.961 216.42 343.809 216.021C343.662 215.623 343.428 215.295 343.105 215.037C342.783 214.779 342.344 214.65 341.787 214.65C341.418 214.65 341.078 214.729 340.768 214.888C340.457 215.04 340.19 215.269 339.968 215.573C339.745 215.878 339.572 216.25 339.449 216.689C339.326 217.129 339.265 217.636 339.265 218.21V218.579C339.265 219.03 339.326 219.455 339.449 219.854C339.578 220.246 339.763 220.592 340.003 220.891C340.249 221.189 340.545 221.424 340.891 221.594C341.242 221.764 341.641 221.849 342.086 221.849C342.66 221.849 343.146 221.731 343.545 221.497C343.943 221.263 344.292 220.949 344.591 220.557L345.575 221.339C345.37 221.649 345.109 221.945 344.793 222.227C344.477 222.508 344.087 222.736 343.624 222.912C343.167 223.088 342.625 223.176 341.998 223.176ZM349.539 210.203V223H347.843V210.203H349.539ZM354.9 215.96V217.349H349.17V215.96H354.9ZM355.771 210.203V211.592H349.17V210.203H355.771ZM359.312 213.49V223H357.678V213.49H359.312ZM357.555 210.968C357.555 210.704 357.634 210.481 357.792 210.3C357.956 210.118 358.196 210.027 358.513 210.027C358.823 210.027 359.061 210.118 359.225 210.3C359.395 210.481 359.479 210.704 359.479 210.968C359.479 211.22 359.395 211.437 359.225 211.618C359.061 211.794 358.823 211.882 358.513 211.882C358.196 211.882 357.956 211.794 357.792 211.618C357.634 211.437 357.555 211.22 357.555 210.968Z" fill="white"/>
<path d="M454.329 211.203V224H452.624L446.182 214.13V224H444.485V211.203H446.182L452.65 221.1V211.203H454.329ZM459.031 211.203V224H457.335V211.203H459.031ZM464.393 216.96V218.349H458.662V216.96H464.393ZM465.263 211.203V212.592H458.662V211.203H465.263ZM472.188 211.203V224H470.519V211.203H472.188ZM476.302 211.203V212.592H466.414V211.203H476.302Z" fill="white"/>
<path d="M446.948 469H444.276L444.294 467.62H446.948C447.862 467.62 448.624 467.43 449.233 467.049C449.843 466.662 450.3 466.123 450.604 465.432C450.915 464.734 451.07 463.92 451.07 462.988V462.206C451.07 461.474 450.982 460.823 450.807 460.255C450.631 459.681 450.373 459.197 450.033 458.805C449.693 458.406 449.277 458.104 448.785 457.899C448.299 457.694 447.739 457.592 447.106 457.592H444.224V456.203H447.106C447.944 456.203 448.709 456.344 449.4 456.625C450.092 456.9 450.687 457.302 451.185 457.829C451.688 458.351 452.075 458.983 452.345 459.728C452.614 460.466 452.749 461.298 452.749 462.224V462.988C452.749 463.914 452.614 464.749 452.345 465.493C452.075 466.231 451.686 466.861 451.176 467.383C450.672 467.904 450.062 468.306 449.348 468.587C448.639 468.862 447.839 469 446.948 469ZM445.182 456.203V469H443.485V456.203H445.182ZM459.842 457.337L455.605 469H453.874L458.752 456.203H459.868L459.842 457.337ZM463.393 469L459.147 457.337L459.121 456.203H460.237L465.133 469H463.393ZM463.173 464.263V465.651H455.983V464.263H463.173ZM476.594 462.197V463.006C476.594 463.967 476.474 464.828 476.233 465.59C475.993 466.352 475.647 466.999 475.196 467.532C474.745 468.065 474.203 468.473 473.57 468.754C472.943 469.035 472.24 469.176 471.461 469.176C470.705 469.176 470.011 469.035 469.378 468.754C468.751 468.473 468.206 468.065 467.743 467.532C467.286 466.999 466.932 466.352 466.68 465.59C466.428 464.828 466.302 463.967 466.302 463.006V462.197C466.302 461.236 466.425 460.378 466.671 459.622C466.923 458.86 467.277 458.213 467.734 457.68C468.191 457.141 468.733 456.73 469.36 456.449C469.993 456.168 470.688 456.027 471.443 456.027C472.223 456.027 472.926 456.168 473.553 456.449C474.186 456.73 474.728 457.141 475.179 457.68C475.636 458.213 475.984 458.86 476.225 459.622C476.471 460.378 476.594 461.236 476.594 462.197ZM474.915 463.006V462.18C474.915 461.418 474.836 460.744 474.678 460.158C474.525 459.572 474.3 459.08 474.001 458.682C473.702 458.283 473.336 457.981 472.902 457.776C472.475 457.571 471.988 457.469 471.443 457.469C470.916 457.469 470.438 457.571 470.011 457.776C469.589 457.981 469.226 458.283 468.921 458.682C468.622 459.08 468.391 459.572 468.227 460.158C468.062 460.744 467.98 461.418 467.98 462.18V463.006C467.98 463.773 468.062 464.453 468.227 465.045C468.391 465.631 468.625 466.126 468.93 466.53C469.24 466.929 469.606 467.23 470.028 467.436C470.456 467.641 470.934 467.743 471.461 467.743C472.012 467.743 472.501 467.641 472.929 467.436C473.356 467.23 473.717 466.929 474.01 466.53C474.309 466.126 474.534 465.631 474.687 465.045C474.839 464.453 474.915 463.773 474.915 463.006Z" fill="white"/>
<defs>
<linearGradient id="paint0_linear_0_2163" x1="109" y1="168" x2="109" y2="268" gradientUnits="userSpaceOnUse">
<stop stop-color="#C8C1E6"/>
<stop offset="0.62" stop-color="#6F55E5"/>
<stop offset="0.65" stop-color="#2A00E4"/>
<stop offset="1" stop-color="#1C0099"/>
</linearGradient>
<linearGradient id="paint1_linear_0_2163" x1="226" y1="290" x2="226" y2="390" gradientUnits="userSpaceOnUse">
<stop stop-color="#C8C1E6"/>
<stop offset="0.62" stop-color="#6F55E5"/>
<stop offset="0.65" stop-color="#2A00E4"/>
<stop offset="1" stop-color="#1C0099"/>
</linearGradient>
<linearGradient id="paint2_linear_0_2163" x1="343" y1="290" x2="343" y2="390" gradientUnits="userSpaceOnUse">
<stop stop-color="#C8C1E6"/>
<stop offset="0.62" stop-color="#6F55E5"/>
<stop offset="0.65" stop-color="#2A00E4"/>
<stop offset="1" stop-color="#1C0099"/>
</linearGradient>
<linearGradient id="paint3_linear_0_2163" x1="109" y1="44" x2="109" y2="144" gradientUnits="userSpaceOnUse">
<stop stop-color="#C8C1E6"/>
<stop offset="0.62" stop-color="#6F55E5"/>
<stop offset="0.65" stop-color="#2A00E4"/>
<stop offset="1" stop-color="#1C0099"/>
</linearGradient>
<linearGradient id="paint4_linear_0_2163" x1="226" y1="168" x2="226" y2="268" gradientUnits="userSpaceOnUse">
<stop stop-color="#C8C1E6"/>
<stop offset="0.62" stop-color="#6F55E5"/>
<stop offset="0.65" stop-color="#2A00E4"/>
<stop offset="1" stop-color="#1C0099"/>
</linearGradient>
<linearGradient id="paint5_linear_0_2163" x1="343" y1="167" x2="343" y2="267" gradientUnits="userSpaceOnUse">
<stop stop-color="#C8C1E6"/>
<stop offset="0.62" stop-color="#6F55E5"/>
<stop offset="0.65" stop-color="#2A00E4"/>
<stop offset="1" stop-color="#1C0099"/>
</linearGradient>
<linearGradient id="paint6_linear_0_2163" x1="460" y1="290" x2="460" y2="390" gradientUnits="userSpaceOnUse">
<stop stop-color="#C8C1E6"/>
<stop offset="0.62" stop-color="#6F55E5"/>
<stop offset="0.65" stop-color="#2A00E4"/>
<stop offset="1" stop-color="#1C0099"/>
</linearGradient>
<linearGradient id="paint7_linear_0_2163" x1="460" y1="413" x2="460" y2="513" gradientUnits="userSpaceOnUse">
<stop stop-color="#C8C1E6"/>
<stop offset="0.62" stop-color="#6F55E5"/>
<stop offset="0.65" stop-color="#2A00E4"/>
<stop offset="1" stop-color="#1C0099"/>
</linearGradient>
<linearGradient id="paint8_linear_0_2163" x1="460" y1="167" x2="460" y2="267" gradientUnits="userSpaceOnUse">
<stop stop-color="#C8C1E6"/>
<stop offset="0.62" stop-color="#6F55E5"/>
<stop offset="0.65" stop-color="#2A00E4"/>
<stop offset="1" stop-color="#1C0099"/>
</linearGradient>
</defs>
</svg>
