<svg width="190" height="49" viewBox="0 0 190 49" fill="none" xmlns="http://www.w3.org/2000/svg">
<g clip-path="url(#clip0_0_2155)">
<path d="M33.8404 46.797C46.3976 46.797 56.5772 36.6173 56.5772 24.0602C56.5772 11.5029 46.3976 1.32324 33.8404 1.32324C21.2831 1.32324 11.1035 11.5029 11.1035 24.0602C11.1035 36.6173 21.2831 46.797 33.8404 46.797Z" fill="#1896A4"/>
<path d="M35.0103 31.6243C34.0875 31.7656 33.1281 31.7472 32.1641 31.5245C28.1106 30.5888 25.5831 26.544 26.519 22.4905C26.5881 22.1911 26.6809 21.9013 26.7809 21.6176L19.6655 18.7087C19.4258 19.3423 19.2283 19.9912 19.0746 20.6509C17.1917 28.8068 22.2782 36.9471 30.4342 38.83C33.2937 39.4903 36.149 39.2895 38.7343 38.4041L35.0103 31.6243ZM41.3409 23.2765L31.0193 23.1751L47.4429 30.7436C47.9422 29.7224 48.3422 28.6264 48.6093 27.4695C50.4923 19.3135 45.4057 11.1733 37.2497 9.29034C33.9758 8.5345 30.7099 8.90406 27.845 10.1396L31.6397 16.9877C32.9082 16.5917 34.2593 16.5412 35.5539 16.8413C38.7293 17.5744 40.971 20.218 41.3409 23.2765Z" fill="white"/>
<path d="M68.4634 8.47681V39.643H76.0171V22.1989L82.5055 34.5357H86.4423L93.2507 22.1989V39.643H100.695V8.47681H93.2507L84.5812 24.2114L76.3371 8.47681H68.4634ZM105.735 8.47681H128.034V14.86H113.036V20.5232H125.958V26.6241H113.074V32.8473H128.392V39.643H105.735V8.47681ZM130.8 8.47681H138.24L148.506 29.803L151.162 24.06L143.823 8.47681H150.847L154.143 15.18L156.695 8.47681H164.779L158.396 24.2114L161.162 29.803L169.302 8.47681H177.562L164.568 39.643H158.451L154.994 32.0894L152.012 39.643H145.688L130.8 8.47681Z" fill="white"/>
</g>
<defs>
<clipPath id="clip0_0_2155">
<rect width="189.11" height="48" fill="white" transform="translate(0.0600586 0.0600586)"/>
</clipPath>
</defs>
</svg>
