<svg width="58" height="58" viewBox="0 0 58 58" fill="none" xmlns="http://www.w3.org/2000/svg">
<g clip-path="url(#clip0_146_141)">
<path fill-rule="evenodd" clip-rule="evenodd" d="M4.41092 4.31818C7.40902 1.36801 12.8031 0.893191 19.5861 3.21529C22.4255 4.21231 25.1557 5.49607 27.7348 7.04668C19.3705 12.3719 12.2261 19.4047 6.76999 27.6842C5.25948 25.0805 4.01833 22.3296 3.06581 19.4741C0.851791 12.6542 1.41282 7.26836 4.41092 4.31818ZM5.9476 28.9923C-0.264797 18.441 -1.6058 8.31514 3.45032 3.34254C8.50644 -1.63006 18.605 -0.130339 29.0566 6.24893C39.6095 0.0379696 49.7285 -1.30302 54.7053 3.75305C59.6821 8.80909 58.1782 18.9062 51.8016 29.3577C58.0126 39.9091 59.3536 50.0281 54.2976 55.0048C49.2414 59.9815 39.1428 58.4791 28.6912 52.1025C18.1398 58.3121 8.01383 59.6531 3.04255 54.597C-1.92873 49.5409 -0.431739 39.4438 5.9476 28.9923ZM27.3831 51.2815C24.7793 52.792 22.0284 54.0331 19.1728 54.9857C12.353 57.1983 6.96703 56.6386 4.01682 53.6405C1.06663 50.6425 0.595905 45.2484 2.91392 38.4642C3.91092 35.6248 5.1947 32.8945 6.74536 30.3156C9.38527 34.4943 12.4718 38.3736 15.9504 41.885C19.4091 45.4227 23.2426 48.5734 27.3831 51.2815ZM28.7049 50.5015C24.429 47.7691 20.4806 44.5553 16.937 40.9231C13.3628 37.3221 10.2132 33.3232 7.54996 29.0047C13.0604 20.4493 20.4019 13.2243 29.0443 7.85127C33.3202 10.5838 37.2686 13.7976 40.8123 17.4297C44.3858 21.0322 47.5344 25.0324 50.1965 29.3523C47.464 33.6281 44.2502 37.5765 40.618 41.1201C37.0179 44.6912 33.0203 47.838 28.7036 50.4988L28.7049 50.5015ZM30.0145 51.302C32.593 52.8526 35.3229 54.1364 38.1618 55.1334C44.9461 57.4596 50.3402 56.9807 53.337 54.0305C56.3337 51.0803 56.8947 45.6945 54.682 38.8746C53.7296 36.0191 52.4884 33.2682 50.9779 30.6645C48.2705 34.8018 45.1212 38.6326 41.5854 42.0889C38.0733 45.5695 34.1931 48.6577 30.0131 51.2993L30.0145 51.302ZM50.9998 28.0399C52.5505 25.461 53.8342 22.7307 54.8312 19.8915C57.1574 13.1071 56.6785 7.71307 53.7283 4.715C50.7781 1.71694 45.3922 1.15728 38.5722 3.36992C35.7167 4.32242 32.9658 5.56355 30.362 7.07405C34.4989 9.78096 38.3292 12.9298 41.7852 16.4651C45.2667 19.9765 48.3559 23.8563 50.9984 28.0359L50.9998 28.0399ZM28.8732 15.0803C28.9757 18.8062 30.5016 22.3514 33.1373 24.9869C35.7729 27.6226 39.3181 29.1485 43.0441 29.251C39.3188 29.3534 35.7742 30.8787 33.1387 33.5135C30.5031 36.1483 28.9768 39.6924 28.8732 43.4175C28.7697 39.6925 27.2436 36.1487 24.6083 33.514C21.973 30.8792 18.4288 29.3537 14.7038 29.251C18.4295 29.1481 21.9744 27.6221 24.6097 24.9865C27.2451 22.3509 28.7707 18.806 28.8732 15.0803Z" fill="white"/>
</g>
<defs>
<clipPath id="clip0_146_141">
<rect width="57.59" height="57.59" fill="white" transform="translate(0.0799561 0.379883)"/>
</clipPath>
</defs>
</svg>
