<svg width="59" height="58" viewBox="0 0 59 58" fill="none" xmlns="http://www.w3.org/2000/svg">
<g clip-path="url(#clip0_146_164)">
<g clip-path="url(#clip1_146_164)">
<g clip-path="url(#clip2_146_164)">
<path d="M29.2448 36.7741C25.0479 36.7741 21.6456 33.3718 21.6456 29.1749C21.6456 24.978 25.0479 21.5756 29.2448 21.5756C30.8465 21.5756 32.3325 22.0712 33.5579 22.9173H39.4314C37.3277 19.4999 33.5523 17.2214 29.2448 17.2214C22.6431 17.2214 17.2914 22.5732 17.2914 29.1749C17.2914 35.7765 22.6431 41.1283 29.2448 41.1283C35.8465 41.1283 41.1982 35.7765 41.1982 29.1749C41.1982 28.5033 41.1428 27.8446 41.0364 27.2031H36.5857H29.2448V31.2287H36.5633C35.6672 34.4279 32.73 36.7741 29.2448 36.7741Z" fill="#01AFCF"/>
<path d="M53.5777 13.7709C52.8182 12.5738 51.9729 11.4366 51.0504 10.3679L47.9617 13.4566C48.8738 14.5415 49.6933 15.7069 50.408 16.9406L53.5777 13.7709Z" fill="#01AFCF"/>
<path d="M10.4187 7.38597L13.5071 10.4744C14.5602 9.58725 15.6892 8.78742 16.8831 8.08611L13.7177 4.92065C12.5585 5.66425 11.4562 6.48866 10.4187 7.38597Z" fill="#01AFCF"/>
<path d="M4.93817 44.6199C5.70939 45.8311 6.56865 46.9807 7.50696 48.0599L10.5947 44.9721C9.66634 43.8772 8.8327 42.6995 8.10645 41.4517L4.93817 44.6199Z" fill="#01AFCF"/>
<path d="M44.4771 53.6156C45.7071 52.8474 46.8749 51.9889 47.9714 51.0494L44.8817 47.9597C43.7677 48.888 42.5699 49.719 41.3013 50.4399L44.4771 53.6156Z" fill="#01AFCF"/>
<path d="M13.1016 29.175C13.1016 25.484 14.3402 22.0824 16.4246 19.363L13.4414 16.3799L10.5235 13.462L7.43482 10.3733C3.08201 15.418 0.449829 21.9891 0.449829 29.175C0.449829 33.2638 1.30208 37.1537 2.83864 40.6765L6.19434 37.3208C5.29393 34.7729 4.80399 32.0312 4.80399 29.175C4.80399 24.7839 5.96195 20.6633 7.98916 17.1019L11.0253 20.138C9.67238 22.8603 8.9117 25.9288 8.9117 29.175C8.9117 34.0632 10.6367 38.5486 13.5112 42.0556L16.4923 39.0745C14.3671 36.3408 13.1016 32.9057 13.1016 29.175Z" fill="#01AFCF"/>
<path d="M29.2448 45.3183C25.5897 45.3183 22.2182 44.1035 19.5122 42.0557L16.5271 45.0408L13.608 47.9599L10.5182 51.0496C15.553 55.3639 22.0946 57.97 29.2448 57.97C33.2861 57.97 37.1329 57.1374 40.6231 55.6346L37.2599 52.2713C34.749 53.1425 32.0522 53.6158 29.2448 53.6158C24.7846 53.6158 20.6034 52.4211 17.0039 50.3342L20.032 47.3061C22.7977 48.7142 25.9285 49.5081 29.2448 49.5081C34.0577 49.5081 38.48 47.8359 41.9625 45.0408L38.9774 42.0557C36.2714 44.1035 32.8999 45.3183 29.2448 45.3183Z" fill="#01AFCF"/>
<path d="M42.0608 19.3576C44.1477 22.0778 45.3881 25.4815 45.3881 29.1749C45.3881 32.9057 44.1226 36.3408 41.9974 39.0745L44.9785 42.0556L47.895 44.9721L50.9827 48.0599C55.3785 43.0043 58.0398 36.4004 58.0398 29.1749C58.0398 25.1056 57.1957 21.2335 55.673 17.724L52.3142 21.0827C53.2026 23.6155 53.6856 26.3387 53.6856 29.1749C53.6856 33.663 52.4759 37.8686 50.3648 41.4833L47.3398 38.4583C48.7705 35.6754 49.5779 32.5194 49.5779 29.1749C49.5779 24.3238 47.8791 19.8696 45.0439 16.3745L42.0608 19.3576Z" fill="#01AFCF"/>
<path d="M48.016 7.33853C42.9753 3.00146 36.4162 0.379883 29.2448 0.379883C25.1005 0.379883 21.1607 1.25539 17.6003 2.83154L20.9473 6.17857C23.5379 5.24365 26.3319 4.73405 29.2448 4.73405C33.7051 4.73405 37.8862 5.92878 41.4858 8.0157L38.4576 11.0438C35.6919 9.63564 32.5611 8.84175 29.2448 8.84175C24.3846 8.84175 19.9226 10.547 16.4246 13.3919L19.4072 16.3745C22.1307 14.2781 25.5422 13.0316 29.2448 13.0316C32.9212 13.0316 36.3106 14.2605 39.0245 16.33L42.0085 13.346L44.9268 10.4277L48.016 7.33853Z" fill="#01AFCF"/>
</g>
</g>
</g>
<defs>
<clipPath id="clip0_146_164">
<rect width="57.59" height="57.59" fill="white" transform="translate(0.449829 0.379883)"/>
</clipPath>
<clipPath id="clip1_146_164">
<rect width="57.59" height="57.59" fill="white" transform="translate(0.449829 0.379883)"/>
</clipPath>
<clipPath id="clip2_146_164">
<rect width="57.59" height="57.59" fill="white" transform="translate(0.449829 0.379883)"/>
</clipPath>
</defs>
</svg>
