<svg width="62" height="58" viewBox="0 0 62 58" fill="none" xmlns="http://www.w3.org/2000/svg">
<g clip-path="url(#clip0_146_255)">
<g clip-path="url(#clip1_146_255)">
<path d="M30.2447 9.16231C30.2139 9.26536 28.5448 17.8166 28.5448 17.8651C28.5448 17.8833 28.8281 17.7742 29.1792 17.6287C29.5241 17.4833 30.0661 17.3015 30.3864 17.2166C30.7005 17.1318 30.9777 17.0469 31.0024 17.0287C31.0393 16.9863 31.0886 16.7742 31.5875 14.2713C31.7784 13.3198 31.9816 12.2956 32.0433 11.9986L32.1541 11.4532L34.1867 11.435L36.2192 11.4228L35.7388 14.0712C35.474 15.5318 35.2584 16.7621 35.2584 16.7984C35.2584 16.859 35.5232 16.8772 36.3917 16.8772C37.02 16.8772 37.5435 16.853 37.562 16.8288C37.6112 16.75 37.7468 16.0409 38.0301 14.4531C38.1717 13.6713 38.4366 12.1986 38.6213 11.1865C38.8061 10.1744 38.9539 9.28356 38.9539 9.20477V9.05933H34.6178C30.5404 9.05933 30.2756 9.06539 30.2447 9.16231Z" fill="#08212D"/>
<path d="M38.962 48.6273C38.962 48.6273 38.9411 48.6551 38.931 48.6962C38.9168 48.807 38.9125 48.8766 38.9082 48.9463C38.8918 49 38.8753 49.0536 38.8486 49.1625C38.7866 49.4764 38.729 49.7339 38.6843 49.9937C38.4762 51.2025 38.2716 52.4119 38.0657 53.6211C38.0546 53.6556 38.0435 53.69 38.0215 53.7795C37.9498 54.2123 37.8891 54.5902 37.8283 54.9681C37.8172 55.0026 37.806 55.037 37.7838 55.1254C37.6511 55.8184 37.5384 56.4594 37.4009 57.0951C37.3695 57.2402 37.2526 57.3668 37.1751 57.5019C37.0042 57.4944 36.8333 57.4804 36.6624 57.4804C29.112 57.4793 21.5616 57.4803 14.0112 57.4744C13.833 57.4743 13.4959 57.6152 13.6207 57.124C13.6409 56.9741 13.6491 56.8821 13.6572 56.7902C13.6941 56.6296 13.7309 56.469 13.78 56.2517C13.801 56.1029 13.8097 56.0107 13.8184 55.9186C13.8501 55.7687 13.8817 55.6187 13.9256 55.4169C13.946 55.2855 13.9542 55.2059 13.9623 55.1263C13.9971 54.9646 14.0319 54.8029 14.0819 54.5837C14.1158 54.3803 14.1345 54.2344 14.1532 54.0885C14.1532 54.0885 14.1739 54.0665 14.1835 54.0236C14.2323 53.7292 14.2716 53.4778 14.3109 53.2264C14.3109 53.2264 14.3316 53.1991 14.3413 53.1542C14.5255 52.1218 14.7 51.1345 14.8745 50.147C14.8972 50.033 14.9199 49.9189 14.9568 49.7506C14.9839 49.5785 14.9968 49.4606 15.0097 49.3427C15.04 49.2068 15.0703 49.0709 15.1148 48.8799C15.1418 48.7069 15.1548 48.589 15.1677 48.471C15.1979 48.335 15.2281 48.199 15.2725 48.008C15.2995 47.8352 15.3124 47.7174 15.3253 47.5994C15.3557 47.4635 15.386 47.3276 15.4308 47.1354C15.4634 46.9362 15.4817 46.7932 15.5 46.6501C15.5 46.6501 15.5208 46.623 15.5314 46.5789C15.5649 46.4325 15.5917 46.331 15.6098 46.2278C15.8639 44.7808 16.1168 43.3335 16.37 41.8864C16.37 41.8864 16.3907 41.8628 16.402 41.8245C16.4304 41.6635 16.4474 41.5408 16.4644 41.4181C16.4945 41.2924 16.5246 41.1667 16.5867 41.0016C17.5875 40.9627 18.5563 40.9633 19.5225 40.9967C19.5118 41.1215 19.5107 41.2147 19.4943 41.3051C18.8492 44.8736 18.2031 48.4418 17.5565 52.0099C17.4092 52.8223 17.26 53.6342 17.1082 54.4661C17.2356 54.4763 17.313 54.488 17.3905 54.488C23.1207 54.4889 28.851 54.4871 34.5812 54.4946C34.8527 54.4949 34.9326 54.4025 34.9762 54.1441C35.2767 52.3625 35.5935 50.5837 35.9104 48.8049C36.5327 45.3125 37.1635 41.8215 37.775 38.3271C37.8319 38.0019 37.9672 37.9351 38.2679 37.9362C41.0538 37.9463 43.8397 37.9497 46.6256 37.9362C47.2304 37.9333 47.8427 37.9021 48.438 37.803C50.7436 37.4195 52.6825 36.3002 54.3169 34.6722C56.7941 32.2047 58.0884 29.2504 57.6855 25.705C57.4577 23.7001 56.5176 22.0518 54.8581 20.8608C53.5318 19.909 52.0182 19.5669 50.4103 19.5668C44.6669 19.5663 38.9233 19.5891 33.18 19.556C30.7304 19.5418 28.5057 20.1571 26.5469 21.6305C24.1272 23.4508 22.4103 25.7586 21.7734 28.774C21.5772 29.7026 21.4248 30.6404 21.215 31.5801C20.2324 31.5816 19.2871 31.577 18.3378 31.541C18.3383 31.4449 18.3359 31.3788 18.3482 31.3155C18.6934 29.5432 18.9047 27.7413 19.5382 26.0099C20.0682 25.0092 20.5792 24.0275 21.1126 23.0304C21.7572 22.2682 22.3426 21.4866 23.0097 20.7824C24.1231 19.6072 25.4683 18.7292 26.9055 17.9577C26.9385 17.9358 26.9506 17.9148 26.9582 17.8904C26.9537 17.887 26.9627 17.8943 26.9919 17.8972C28.0309 17.5484 29.0407 17.1966 30.082 16.8478C30.9862 16.7677 31.8574 16.6531 32.7321 16.6105C33.6612 16.5654 34.5937 16.5887 35.5558 16.587C35.6289 16.5918 35.6708 16.5918 35.7435 16.6021C36.7163 16.6018 37.6585 16.5911 38.637 16.5884C39.6833 16.5915 40.6933 16.5868 41.7347 16.5871C41.8084 16.592 41.8508 16.5918 41.9238 16.602C42.8068 16.6067 43.6592 16.6009 44.5446 16.5932C44.5985 16.5843 44.6195 16.5775 44.6631 16.5806C44.7179 16.5851 44.7499 16.5797 44.8145 16.5822C46.9647 16.5925 49.0823 16.5949 51.2 16.5973C51.3101 16.6067 51.4202 16.6161 51.5939 16.6311C52.0599 16.7012 52.4638 16.7567 52.8641 16.8316C54.0545 17.0544 55.1418 17.5428 56.1859 18.1391C56.2446 18.1864 56.3032 18.2336 56.3995 18.3084C57.8027 19.2977 58.8534 20.5257 59.6015 22.0215C60.139 23.0963 60.4476 24.2358 60.6427 25.4129C60.6461 25.5053 60.6496 25.5978 60.6622 25.748C60.6841 25.939 60.6969 26.0723 60.7098 26.2055C60.7065 26.6038 60.7032 27.0022 60.6968 27.4687C60.6917 27.6476 60.6898 27.7583 60.6878 27.8691C60.6705 27.9823 60.6531 28.0955 60.6297 28.2654C60.6102 28.4619 60.597 28.6018 60.5837 28.7417C60.5732 28.7763 60.5628 28.8109 60.544 28.902C60.4687 29.3085 60.4018 29.6585 60.3347 30.0085C60.3216 30.0422 60.3085 30.0758 60.2804 30.1598C60.2243 30.3807 60.183 30.5512 60.1418 30.7218C60.0797 30.8958 60.0177 31.0697 59.9345 31.286C59.7454 31.7302 59.5773 32.1321 59.4092 32.534C59.3078 32.7272 59.2063 32.9205 59.0794 33.1588C58.3775 34.1746 57.7011 35.1453 57.0247 36.116C56.9637 36.1753 56.9027 36.2348 56.8088 36.33C56.4766 36.6772 56.1773 36.9884 55.8781 37.2996C55.8293 37.3355 55.7806 37.3713 55.6981 37.4378C55.5208 37.5958 55.3773 37.7232 55.2339 37.8505C55.1929 37.8769 55.152 37.9032 55.0762 37.9596C54.8389 38.1456 54.6364 38.3015 54.4339 38.4574C54.1566 38.6314 53.8792 38.8054 53.5598 39.0058C53.3994 39.1023 53.2811 39.1723 53.1628 39.2424C53.124 39.2594 53.0853 39.2764 53.0044 39.3166C50.8177 40.4682 48.5416 41.0036 46.1117 40.9449C44.3187 40.9015 42.5237 40.9364 40.7296 40.9364C40.5887 40.9364 40.4478 40.9364 40.2981 40.9364C40.2396 41.2554 40.187 41.5254 40.1409 41.7966C39.9422 42.9647 39.7454 44.1331 39.548 45.3014C39.5373 45.3341 39.5265 45.3669 39.5022 45.4517C39.4711 45.6469 39.4535 45.7899 39.4358 45.9329C39.4358 45.9329 39.4305 45.9537 39.4196 45.982C39.4002 46.0909 39.3916 46.1717 39.383 46.2524C39.3486 46.4135 39.3142 46.5746 39.2658 46.7923C39.2399 46.9667 39.228 47.0847 39.216 47.2025C39.1586 47.4949 39.1011 47.7873 39.0291 48.1387C38.997 48.341 38.9795 48.4841 38.962 48.6273Z" fill="#2BDCB1"/>
<path d="M41.8932 16.5916C41.8508 16.5918 41.8085 16.592 41.7377 16.5568C42.0863 14.3516 42.4693 12.1828 42.8382 10.0116C43.0783 8.59814 43.2895 7.17977 43.5296 5.76635C43.6781 4.89208 43.8566 4.02289 44.0169 3.12564C43.9791 3.09413 43.9458 3.08841 43.8755 3.07745C38.1828 3.07141 32.5269 3.07055 26.8712 3.07033C26.7923 3.07033 26.7135 3.07839 26.6147 3.07897C26.569 3.09995 26.5432 3.12466 26.5047 3.18111C26.0941 5.40519 25.6985 7.59791 25.2981 9.78976C24.7219 12.9433 24.1365 16.0952 23.5726 19.2509C23.5169 19.5624 23.3908 19.6214 23.108 19.6206C20.3217 19.6117 17.5355 19.6131 14.7492 19.6177C14.3543 19.6184 13.9595 19.6518 13.5434 19.6645C13.4824 19.674 13.4427 19.6891 13.3699 19.701C13.2279 19.7132 13.1189 19.7286 12.9884 19.7402C12.928 19.7536 12.8891 19.7708 12.8177 19.7854C12.5794 19.8258 12.3704 19.8581 12.1678 19.9134C9.37913 20.6747 7.19825 22.3068 5.55519 24.6485C3.94412 26.9447 3.19965 29.4818 3.62508 32.3089C3.75282 33.1578 4.10471 33.9187 4.50372 34.6497C4.77734 35.151 5.15754 35.6128 5.56269 36.0199C6.6076 37.0701 7.87101 37.7091 9.37834 37.8714C9.43715 37.8881 9.47979 37.8901 9.55515 37.9027C9.72486 37.9186 9.86185 37.9237 10.0265 37.9456C10.225 37.9727 10.3959 37.9919 10.5668 37.992C16.6669 37.9935 22.767 37.9939 28.8671 37.9908C29.0481 37.9907 29.2292 37.9528 29.4448 37.9381C29.6411 37.9257 29.8026 37.9077 29.9853 37.8956C30.0457 37.8864 30.0851 37.8711 30.1577 37.8598C32.0887 37.6232 33.7339 36.8071 35.2261 35.6471C36.7271 34.4804 37.9057 33.0429 38.7605 31.348C39.262 30.3538 39.579 29.2961 39.7273 28.1709C39.7472 28.1123 39.7524 28.0699 39.7682 27.9954C39.8355 27.5888 39.8923 27.2142 39.9635 26.8234C39.983 26.7648 39.988 26.7226 40.0039 26.6497C40.0462 26.4291 40.0777 26.2392 40.1454 26.0413C41.1349 26.0308 42.088 26.0281 43.0437 26.061C42.7305 27.9168 42.508 29.757 41.8706 31.5331C41.3429 32.5251 40.8296 33.4955 40.2964 34.4803C40.1993 34.6169 40.1288 34.7438 40.0439 34.8604C38.5334 36.9358 36.6329 38.5498 34.2989 39.6863C33.2318 40.0431 32.1936 40.3974 31.1201 40.7533C30.2847 40.822 29.4858 40.9189 28.6843 40.9484C27.7097 40.9844 26.7329 40.9634 25.7209 40.9608C24.7141 40.9589 23.7434 40.9633 22.7346 40.9634C21.6394 40.9607 20.5823 40.9622 19.5251 40.9638C18.5563 40.9632 17.5875 40.9627 16.5887 40.9693C14.7392 40.9697 12.9196 40.9493 11.1003 40.9608C9.81369 40.9689 8.55119 40.856 7.31368 40.4768C6.33338 40.1764 5.43897 39.7209 4.56963 39.095C4.18889 38.7839 3.84951 38.5021 3.51013 38.2204C3.4279 38.1291 3.34567 38.0378 3.23326 37.9099C2.94935 37.553 2.68402 37.2411 2.44404 36.9108C1.7549 35.9623 1.29151 34.9019 0.931082 33.7927C0.815905 33.1606 0.700727 32.5286 0.581654 31.8341C0.569621 31.7124 0.561483 31.6531 0.553345 31.5938C0.58153 30.8494 0.609715 30.1051 0.643511 29.2994C0.649662 29.178 0.650199 29.1179 0.650737 29.0579C0.691083 28.8478 0.731427 28.6377 0.785447 28.372C0.805452 28.2465 0.81178 28.1767 0.818108 28.1068C1.06067 27.3654 1.30322 26.6239 1.56565 25.8335C1.60648 25.7184 1.62743 25.6522 1.64838 25.5861C1.71554 25.4691 1.7827 25.3522 1.87272 25.1907C2.0532 24.8426 2.17814 24.5159 2.37424 24.2396C3.13389 23.1696 3.91618 22.1156 4.69005 21.0557C5.29918 20.521 5.88142 19.9514 6.52252 19.4583C8.37756 18.0314 10.4694 17.132 12.8378 16.7553C12.931 16.734 12.9706 16.7181 13.0102 16.7023C13.1719 16.6931 13.3336 16.684 13.5529 16.6716C13.6744 16.6532 13.7385 16.6381 13.8025 16.6229C16.2144 16.6229 18.6263 16.6229 21.1239 16.6229C21.3993 14.7599 21.6294 12.9203 21.9525 11.0973C22.2751 9.27788 22.6908 7.47501 23.0772 5.61656C23.0883 5.52661 23.0879 5.48498 23.0874 5.44336C23.1325 5.22712 23.1776 5.01089 23.2347 4.74563C23.2461 4.65501 23.2456 4.6134 23.2451 4.5718C23.2902 4.35553 23.3355 4.13928 23.3929 3.87412C23.4046 3.78356 23.4039 3.74189 23.4032 3.70021C23.4486 3.4844 23.494 3.26859 23.5536 3.00351C23.567 2.9113 23.5664 2.86836 23.5658 2.82542C23.6096 2.61053 23.6534 2.39565 23.7114 2.13166C23.725 2.03964 23.7243 1.99672 23.7236 1.9538C23.7927 1.6062 23.8619 1.2586 23.9492 0.865236C23.9734 0.775205 23.9794 0.730941 23.9854 0.686682C23.9965 0.628366 24.0076 0.57005 24.0322 0.465458C24.0483 0.376076 24.0511 0.33297 24.0539 0.289865C24.0652 0.253726 24.0765 0.217588 24.1295 0.14857C24.2239 0.113748 24.2766 0.110101 24.3294 0.110099C31.9591 0.109789 39.5889 0.109653 47.2186 0.110543C47.337 0.110556 47.4554 0.123398 47.5737 0.130253C47.2093 2.20544 46.8431 4.28033 46.4812 6.35599C46.3476 7.12212 46.2242 7.89003 46.0802 8.70339C46.0539 8.81098 46.0435 8.8723 46.033 8.93369C45.9609 9.30882 45.8887 9.68402 45.8047 10.1077C45.7937 10.198 45.7946 10.2396 45.7954 10.2812C45.5692 11.5297 45.343 12.7781 45.0999 14.0751C45.0729 14.1898 45.0628 14.256 45.0527 14.3222C45.0412 14.3812 45.0298 14.4402 45.0061 14.5453C44.9905 14.6338 44.9872 14.6763 44.9838 14.7187C44.9687 14.8025 44.9535 14.8864 44.9257 15.0183C44.909 15.1088 44.9051 15.1515 44.9011 15.194C44.8892 15.2535 44.8774 15.3128 44.8543 15.4189C44.8412 15.5072 44.8393 15.5488 44.8374 15.5903C44.8197 15.6744 44.802 15.7585 44.7704 15.8969C44.7464 16.0422 44.7363 16.133 44.7171 16.2492C44.7074 16.3102 44.7069 16.346 44.6896 16.4012C44.662 16.4708 44.6512 16.5207 44.6404 16.5707C44.6195 16.5775 44.5986 16.5843 44.5152 16.5789C43.5995 16.575 42.7463 16.5833 41.8932 16.5916Z" fill="#08212D"/>
<path d="M36.4206 28.1078C36.4053 28.1916 36.39 28.2753 36.3629 28.4074C36.3456 28.4982 36.3403 28.5407 36.335 28.5831C36.0199 30.6869 35.0237 32.3694 33.2316 33.5446C32.3123 34.1474 31.2997 34.4957 30.1215 34.5447C24.0387 34.5475 18.0273 34.5479 12.0158 34.5489C11.8711 34.549 11.7264 34.5569 11.5817 34.5612C10.2826 34.4853 9.13912 34.0416 8.22644 33.0941C7.89168 32.7465 7.54179 32.3883 7.31168 31.9724C7.10062 31.5909 7.06906 31.1145 6.90781 30.6996C6.73866 30.2644 6.86615 29.8393 6.87393 29.4107C6.88245 28.9366 6.89274 28.4596 6.95444 27.9906C6.97925 27.8022 7.16305 27.6402 7.24012 27.4521C8.14961 25.2316 9.74663 23.7931 12.1259 23.1702C12.215 23.1409 12.253 23.1215 12.2909 23.1021C12.3514 23.1003 12.4119 23.0985 12.5261 23.0925C12.6426 23.0683 12.7053 23.0484 12.768 23.0284C15.2282 23.0276 17.6884 23.0266 20.1486 23.0264C20.438 23.0263 20.7273 23.0311 21.0535 23.0397C20.5792 24.0275 20.0683 25.0092 19.4999 26.0059C17.45 26.0199 15.457 26.0468 13.4652 26.0098C11.7328 25.9775 10.1197 27.4665 9.84619 29.1365C9.62306 30.499 10.3725 31.5528 11.653 31.5719C13.8821 31.6053 16.1122 31.5755 18.3419 31.5723C19.2872 31.577 20.2324 31.5816 21.2151 31.5802C22.3128 31.5776 23.3732 31.5812 24.5071 31.5845C25.5432 31.5799 26.5058 31.5754 27.5085 31.5765C28.2743 31.5834 28.9999 31.5876 29.7255 31.5852C31.5004 31.5794 33.0423 30.2977 33.3741 28.5523C33.5339 27.7113 33.6884 26.8692 33.8825 26.0253C34.8717 26.0331 35.8236 26.0431 36.7755 26.0532C36.7489 26.2156 36.7223 26.3781 36.6851 26.5881C36.6692 26.6773 36.6639 26.719 36.6586 26.7608C36.6435 26.8446 36.6284 26.9285 36.6013 27.0606C36.5842 27.1513 36.579 27.1937 36.5738 27.2361C36.5354 27.4522 36.4969 27.6682 36.4474 27.9333C36.4312 28.0243 36.4259 28.066 36.4206 28.1078Z" fill="#08212D"/>
<path d="M27.4682 31.5708C26.5056 31.5753 25.543 31.5798 24.5443 31.5787C24.7099 30.471 24.8787 29.3617 25.1196 28.2683C25.8072 25.1472 28.4306 23.0024 31.6135 22.992C37.5125 22.9726 43.4116 22.9764 49.3106 22.9912C51.8126 22.9974 53.7497 24.4367 54.2581 26.6788C54.7772 28.9691 54.073 30.9335 52.4593 32.5738C51.1065 33.9489 49.4422 34.5759 47.4963 34.5376C45.2669 34.4937 43.0359 34.5278 40.8056 34.5265C40.6611 34.5265 40.5165 34.5142 40.3441 34.4867C40.8294 33.4954 41.3427 32.5251 41.9095 31.5442C43.9284 31.5364 45.8938 31.5461 47.8593 31.5398C49.5974 31.5341 51.1154 30.2431 51.4252 28.5276C51.7043 26.9828 50.8651 25.9754 49.2928 25.9752C47.2087 25.9749 45.1245 25.979 43.0036 25.9746C42.013 25.9735 41.0592 25.9788 40.1055 25.9843C39.0216 25.9815 37.9377 25.9788 36.7803 25.9725C35.7527 25.9733 34.7988 25.9778 33.8081 25.9787C33.0605 25.9749 32.3496 25.9738 31.6387 25.9748C29.7882 25.9774 28.2599 27.2322 27.9136 29.0462C27.7534 29.8855 27.616 30.7291 27.4682 31.5708Z" fill="#2BDCB1"/>
<path d="M34.2992 39.6863C34.1309 40.8128 33.9398 41.943 33.7353 43.0707C33.272 45.626 32.7986 48.1794 32.3405 50.7356C32.2952 50.9888 32.2129 51.0931 31.9401 51.0925C28.4027 51.0846 24.8654 51.0875 21.3281 51.086C21.226 51.0859 21.1239 51.0672 20.9581 51.051C21.5652 47.6915 22.1668 44.3612 22.7707 40.9993C23.7436 40.9632 24.7143 40.9588 25.7184 40.9916C25.3371 43.364 24.9225 45.6992 24.5035 48.0591C26.2765 48.0591 28.0279 48.0591 29.8071 48.0591C29.8362 47.9326 29.8693 47.8074 29.8935 47.6806C30.0511 46.8516 30.2116 46.0231 30.362 45.1927C30.63 43.713 30.8914 42.2321 31.1556 40.7516C32.1938 40.3973 33.232 40.043 34.2992 39.6863Z" fill="#2BDCB1"/>
</g>
</g>
<defs>
<clipPath id="clip0_146_255">
<rect width="60.66" height="57.59" fill="white" transform="translate(0.550049 0.109863)"/>
</clipPath>
<clipPath id="clip1_146_255">
<rect width="60.6533" height="57.59" fill="white" transform="translate(0.553345 0.109863)"/>
</clipPath>
</defs>
</svg>
