<svg width="190" height="49" viewBox="0 0 190 49" fill="none" xmlns="http://www.w3.org/2000/svg">
<g clip-path="url(#clip0_15_2561)">
<g clip-path="url(#clip1_15_2561)">
<g clip-path="url(#clip2_15_2561)">
<mask id="mask0_15_2561" style="mask-type:luminance" maskUnits="userSpaceOnUse" x="-2" y="9" width="193" height="30">
<path d="M190.751 9.23364H-1.24878V38.8862H190.751V9.23364Z" fill="white"/>
</mask>
<g mask="url(#mask0_15_2561)">
<path d="M16.0864 29.3061C16.0864 28.0463 17.1076 27.0251 18.3674 27.0251H19.2798C20.5395 27.0251 21.5607 28.0463 21.5607 29.3061V30.2185C21.5607 31.4782 20.5395 32.4994 19.2798 32.4994H18.3674C17.1076 32.4994 16.0864 31.4782 16.0864 30.2185V29.3061Z" fill="#1EEFA4"/>
<path d="M18.3674 18.8137C17.1076 18.8137 16.0864 19.8349 16.0864 21.0947V22.0071C16.0864 23.2668 17.1076 24.288 18.3674 24.288H19.2798C20.5395 24.288 21.5607 23.2668 21.5607 22.0071V21.0947C21.5607 19.8349 20.5395 18.8137 19.2798 18.8137H18.3674Z" fill="#1EEFA4"/>
<path fill-rule="evenodd" clip-rule="evenodd" d="M7.87507 9.23364C2.83611 9.23364 -1.24878 13.3185 -1.24878 18.3574V29.7622C-1.24878 34.8013 2.83611 38.8861 7.87507 38.8861H19.2798C24.3189 38.8861 28.4037 34.8013 28.4037 29.7622V18.3574C28.4037 13.3185 24.3189 9.23364 19.2798 9.23364H7.87507ZM19.2798 12.8832H7.87507C4.8517 12.8832 2.40076 15.3341 2.40076 18.3574V29.7622C2.40076 32.7857 4.8517 35.2366 7.87507 35.2366H19.2798C22.3033 35.2366 24.7542 32.7857 24.7542 29.7622V18.3574C24.7542 15.3341 22.3033 12.8832 19.2798 12.8832Z" fill="#1EEFA4"/>
<path d="M57.2774 31.5143C57.8988 30.5179 58.2174 29.3631 58.1948 28.1895C58.1948 27.1043 57.9545 26.1673 57.4796 25.4011C56.9656 24.5937 56.2676 23.9192 55.4428 23.4324C54.368 22.8035 53.2312 22.2861 52.0505 21.8887C51.9629 21.8604 51.8852 21.8323 51.8188 21.8068L51.6449 21.7447C50.8704 21.4808 50.2908 21.2677 49.9177 21.1111C49.5765 20.978 49.2609 20.7869 48.9849 20.5467C48.864 20.4412 48.7673 20.3109 48.7016 20.1649C48.6357 20.0188 48.6021 19.8601 48.6032 19.6999C48.5958 19.4617 48.6461 19.2253 48.7497 19.0107C48.8533 18.796 49.007 18.6093 49.1982 18.4667C49.5757 18.1759 50.117 18.0277 50.8053 18.0277C51.6542 18.0353 52.4925 18.2179 53.2674 18.564C53.941 18.852 54.5682 19.2376 55.129 19.7084L57.8357 16.4148C56.8968 15.5788 55.8236 14.9067 54.6612 14.4264C53.3626 13.9148 51.9764 13.6623 50.5806 13.6828C49.0258 13.6828 47.7184 13.9565 46.7008 14.4969C45.683 15.0375 44.9382 15.7501 44.4689 16.6236C43.9924 17.5141 43.7469 18.5097 43.7552 19.5193C43.7552 21.2945 44.3205 22.6564 45.4258 23.5693C46.6506 24.5503 48.0612 25.2745 49.5728 25.6988C50.3501 25.9151 51.1106 26.1872 51.8485 26.5131C52.3968 26.7741 52.7629 27.0352 52.9665 27.3089C53.1761 27.5952 53.2858 27.9423 53.2789 28.2968C53.2846 28.56 53.2228 28.8203 53.099 29.0528C52.9753 29.2853 52.7938 29.4823 52.5721 29.6247C52.1212 29.9352 51.4738 30.0861 50.5933 30.0861C48.8365 30.0861 47.1361 29.334 45.5389 27.8493L42.4888 31.0147C43.5332 32.106 44.7816 32.9823 46.1637 33.5943C47.6044 34.2188 49.1598 34.536 50.7304 34.5256C52.223 34.5256 53.5573 34.2604 54.6781 33.7355C55.7404 33.2597 56.6428 32.4887 57.2774 31.5143Z" fill="#1EEFA4"/>
<path d="M122.538 29.3963L120.305 27.6099C119.579 28.5689 118.571 29.2781 117.421 29.6387C116.272 29.9994 115.04 29.9935 113.894 29.6222C112.748 29.2509 111.747 28.5323 111.029 27.5665C110.312 26.6006 109.913 25.4355 109.89 24.2333C109.866 23.0309 110.218 21.8511 110.896 20.8578C111.575 19.8646 112.548 19.1071 113.678 18.691C114.808 18.2749 116.04 18.2206 117.202 18.5358C118.364 18.8509 119.4 19.5198 120.164 20.4497L123.797 17.5441C122.43 15.8611 120.571 14.6449 118.48 14.0638C116.389 13.4829 114.168 13.5659 112.126 14.3015C110.084 15.0373 108.322 16.3889 107.084 18.1693C105.846 19.9498 105.194 22.0706 105.217 24.2378C105.241 26.405 105.939 28.5111 107.216 30.2643C108.492 32.0174 110.283 33.3305 112.341 34.0217C114.398 34.7129 116.62 34.7477 118.698 34.1215C120.777 33.4953 122.608 32.2389 123.939 30.5267L122.538 29.3963Z" fill="#1EEFA4"/>
<path fill-rule="evenodd" clip-rule="evenodd" d="M80.061 20.3635C80.061 21.7436 79.7778 22.9727 79.2128 24.017C78.6547 25.0511 77.8036 25.8979 76.7658 26.4512C75.6946 27.0299 74.407 27.3234 72.9384 27.3234H69.4303V33.7794H64.5879V13.6816H72.8706C74.3106 13.6816 75.5886 13.9738 76.6702 14.548C77.7132 15.0898 78.5812 15.9151 79.1743 16.9287C79.7718 17.9739 80.078 19.16 80.061 20.3635ZM73.8828 22.6679C74.2883 22.4526 74.6279 22.1304 74.8636 21.7366C75.1031 21.3346 75.2268 20.8748 75.2224 20.4072C75.2291 19.9616 75.1023 19.5243 74.8576 19.1514C74.6146 18.7872 74.2772 18.4948 73.8828 18.3046C73.4588 18.1012 72.9932 17.9987 72.523 18.0054H69.4303V23.001H72.5087C72.9874 23.0062 73.4595 22.8916 73.8828 22.6679Z" fill="#1EEFA4"/>
<path d="M134.997 25.6003H142.559V21.6279H134.997V18.0054H144.666V13.6816H130.154V33.7794H144.885V29.4556H134.997V25.6003Z" fill="#1EEFA4"/>
<path d="M159.411 13.6816H164.254V33.7794H159.411V13.6816Z" fill="#1EEFA4"/>
<path fill-rule="evenodd" clip-rule="evenodd" d="M188.437 28.8423C189.355 27.2938 189.841 25.5266 189.839 23.7266C189.838 21.9264 189.351 20.16 188.43 18.6127C187.494 17.0896 186.169 15.8428 184.589 15.0002C182.941 14.1171 181.097 13.6638 179.226 13.6822H171.699V33.7799H179.271C181.134 33.7982 182.971 33.3447 184.61 32.4619C186.186 31.618 187.507 30.3682 188.437 28.8423ZM184.217 26.566C183.758 27.3882 183.079 28.066 182.255 28.5234C181.397 28.9979 180.429 29.241 179.446 29.229H176.543V18.2403H179.431C180.417 18.227 181.387 18.4702 182.249 18.9458C183.073 19.4048 183.754 20.0822 184.217 20.9031C184.695 21.7658 184.939 22.7391 184.922 23.7255C184.939 24.7176 184.695 25.6967 184.217 26.566Z" fill="#1EEFA4"/>
<path fill-rule="evenodd" clip-rule="evenodd" d="M89.6232 13.6816H93.9399L101.66 33.8076H96.6916L95.5952 30.5944V30.5846H87.9204V30.5944L86.8247 33.8076H81.8579L89.6232 13.6816ZM91.7671 19.3192L91.6982 19.5238L89.369 26.351H94.1592L91.8382 19.5238L91.7671 19.3192Z" fill="#1EEFA4"/>
</g>
</g>
</g>
</g>
<defs>
<clipPath id="clip0_15_2561">
<rect width="189.11" height="48" fill="white" transform="translate(0.360107 0.0600586)"/>
</clipPath>
<clipPath id="clip1_15_2561">
<rect width="189.11" height="48" fill="white" transform="translate(0.360107 0.0600586)"/>
</clipPath>
<clipPath id="clip2_15_2561">
<rect width="193.333" height="48" fill="white" transform="translate(-1.75146 0.0600586)"/>
</clipPath>
</defs>
</svg>
