<svg width="190" height="49" viewBox="0 0 190 49" fill="none" xmlns="http://www.w3.org/2000/svg">
<g clip-path="url(#clip0_15_2586)">
<g clip-path="url(#clip1_15_2586)">
<g clip-path="url(#clip2_15_2586)">
<mask id="mask0_15_2586" style="mask-type:luminance" maskUnits="userSpaceOnUse" x="25" y="0" width="139" height="49">
<path d="M163.606 0.0600586H25.6753V48.0601H163.606V0.0600586Z" fill="white"/>
</mask>
<g mask="url(#mask0_15_2586)">
<path d="M94.0697 10.8633H85.5523V33.9145H83.4606V10.8633H74.9647V9.0951H94.0697V10.8633ZM101.94 34.2811C100.366 34.2811 98.943 33.893 97.6924 33.1167C96.4417 32.3403 95.4282 31.2622 94.7383 29.8822C94.0266 28.5021 93.6816 26.9495 93.6816 25.2461V24.5129C93.6816 22.7447 94.0266 21.149 94.7167 19.7258C95.4067 18.3026 96.3555 17.1814 97.5847 16.3835C98.8137 15.5857 100.151 15.1545 101.574 15.1545C103.816 15.1545 105.585 15.9091 106.9 17.4401C108.215 18.9711 108.862 21.0627 108.862 23.715V24.8579H95.687V25.2461C95.687 27.3377 96.2908 29.0843 97.4768 30.4643C98.6844 31.8659 100.194 32.5561 102.005 32.5561C103.105 32.5561 104.054 32.3619 104.895 31.9522C105.736 31.5641 106.49 30.9173 107.18 30.0331L108.453 31.0034C106.986 33.1814 104.808 34.2811 101.94 34.2811ZM101.574 16.8795C100.043 16.8795 98.749 17.4401 97.6924 18.5614C96.6358 19.6827 96.0105 21.1922 95.7733 23.0897H106.835V22.8741C106.771 21.1059 106.275 19.6611 105.326 18.5398C104.377 17.4186 103.126 16.8795 101.574 16.8795ZM114.9 32.211H126.889V33.9361H112.377V32.4266L123.568 17.2461H112.722V15.4778H126.135V17.0089L114.9 32.211ZM129.822 24.4266C129.822 22.6585 130.167 21.0627 130.857 19.6395C131.546 18.2165 132.517 17.1167 133.768 16.3189C135.018 15.521 136.442 15.1329 138.037 15.1329C140.496 15.1329 142.48 15.9954 144.01 17.7205C145.541 19.4455 146.296 21.7313 146.296 24.5775V25.0089C146.296 26.7986 145.952 28.3943 145.261 29.8175C144.572 31.2406 143.601 32.3403 142.35 33.1167C141.1 33.893 139.676 34.2811 138.081 34.2811C135.644 34.2811 133.638 33.4186 132.108 31.6935C130.577 29.9685 129.822 27.6827 129.822 24.8363V24.4266ZM131.87 24.9873C131.87 27.1867 132.453 28.9981 133.574 30.4213C134.717 31.8445 136.205 32.5345 138.058 32.5345C139.892 32.5345 141.401 31.8229 142.544 30.4213C143.686 28.9981 144.248 27.1437 144.248 24.8147V24.4266C144.248 23.025 143.989 21.7313 143.472 20.5453C142.954 19.3809 142.221 18.4751 141.272 17.8282C140.324 17.1814 139.245 16.8579 138.037 16.8579C136.226 16.8579 134.738 17.5695 133.574 18.9927C132.43 20.4158 131.849 22.2919 131.849 24.5991L131.87 24.9873ZM161.562 29.2353C161.562 28.2218 161.153 27.4023 160.334 26.7986C159.514 26.1949 158.306 25.6989 156.646 25.3539C154.986 25.0089 153.736 24.5991 152.83 24.1679C151.924 23.715 151.256 23.1759 150.825 22.5291C150.393 21.8822 150.156 21.1059 150.156 20.1787C150.156 18.7123 150.76 17.5263 151.989 16.5775C153.197 15.6289 154.77 15.1545 156.668 15.1545C158.717 15.1545 160.377 15.6719 161.628 16.6854C162.878 17.6989 163.504 19.0358 163.504 20.6746H161.456C161.456 19.5965 161.002 18.6907 160.097 17.9793C159.192 17.2677 158.048 16.901 156.668 16.901C155.332 16.901 154.253 17.2029 153.433 17.7851C152.614 18.3889 152.205 19.1651 152.205 20.1139C152.205 21.0411 152.549 21.7527 153.218 22.2487C153.886 22.7447 155.137 23.2191 156.926 23.6503C158.717 24.0817 160.053 24.5129 160.96 24.9873C161.844 25.4617 162.512 26.0439 162.944 26.7123C163.374 27.3809 163.59 28.2002 163.59 29.149C163.59 30.7015 162.965 31.9522 161.714 32.8795C160.464 33.8067 158.825 34.2811 156.797 34.2811C154.641 34.2811 152.894 33.7635 151.58 32.7285C150.242 31.6935 149.574 30.3781 149.574 28.7825H151.622C151.709 29.9685 152.205 30.8957 153.132 31.5641C154.058 32.2326 155.288 32.5561 156.82 32.5561C158.242 32.5561 159.385 32.2326 160.269 31.6289C161.132 30.9819 161.562 30.1841 161.562 29.2353ZM59.8919 35.3161C59.396 26.5398 48.3554 22.5506 47.2989 22.1409C47.2557 22.1194 47.2557 22.0762 47.2773 22.0331L58.6628 10.6045V9.37542C58.6628 9.18135 58.4902 9.00884 58.2962 9.00884H37.315V0.0600586L29.5738 1.67731V2.84173H30.005C30.005 2.84173 31.9026 2.84173 31.9026 4.7393V8.98728H25.9081C25.8002 8.98728 25.6924 9.0951 25.6924 9.20291V11.8983H31.9242V26.5398C31.9242 31.1329 34.8784 34.3242 40.0536 33.893C41.1533 33.8067 42.1668 33.3754 43.0293 32.8147C43.4175 32.5561 43.6546 32.1463 43.6546 31.6719V30.2271C41.9728 31.3485 40.5496 31.2838 40.5496 31.2838C37.272 31.2838 37.3366 27.1221 37.3366 27.1221V11.8983H52.4309L41.563 22.8525C41.5414 24.2973 41.5198 25.4186 41.5198 25.4401C41.5198 25.4833 41.5415 25.5049 41.5847 25.5049C51.5469 27.1867 54.2422 33.6342 54.2422 35.5102C54.2422 35.5102 55.3205 44.6315 46.1992 45.2569C46.1992 45.2569 40.2261 45.5155 39.1694 43.1221C39.1264 43.0358 39.1694 42.9495 39.2557 42.9065C40.2477 42.4535 40.9161 41.5695 40.9161 40.3835C40.9161 38.6153 39.838 37.1706 37.5738 37.1706C35.7409 37.1706 34.2314 38.6153 34.2314 40.3835C34.2314 40.3835 33.3689 48.0601 46.1776 47.8445C60.7976 47.5857 59.8919 35.3161 59.8919 35.3161Z" fill="#0D61FF"/>
</g>
</g>
</g>
</g>
<defs>
<clipPath id="clip0_15_2586">
<rect width="189.11" height="48" fill="white" transform="translate(0.25 0.0600586)"/>
</clipPath>
<clipPath id="clip1_15_2586">
<rect width="189.11" height="48" fill="white" transform="translate(0.25 0.0600586)"/>
</clipPath>
<clipPath id="clip2_15_2586">
<rect width="193.333" height="48" fill="white" transform="translate(-1.86182 0.0600586)"/>
</clipPath>
</defs>
</svg>
